<!DOCTYPE svg PUBLIC "-//W3C//DTD SVG 1.1//EN" "http://www.w3.org/Graphics/SVG/1.1/DTD/svg11.dtd">
<svg xmlns="http://www.w3.org/2000/svg" viewBox="0 0 2728 516">
<path fill="#2b282a" d="M1941 6.709c-2.996 1.102-5 3.661-5 6.386 0 2.496-.389 2.816-3.75 3.095-2.529.209-3.75.799-3.75 1.81 0 1.011 1.221 1.601 3.75 1.81l3.75.311v15.758l-3.75.311c-2.529.209-3.75.799-3.75 1.81 0 1.205 1.822 1.557 9.25 1.788 8.734.271 9.25.173 9.25-1.75 0-1.662-.645-2.038-3.5-2.038h-3.5V20h4c3.333 0 4-.333 4-2s-.667-2-4-2c-3.246 0-4-.354-4-1.878 0-3.126 2.635-4.655 5.439-3.155 2.578 1.38 4.561.732 4.561-1.491 0-2.633-5.099-4.201-9-2.767m-88.637 1.788c-.346.901-.167 2.099.398 2.664 1.63 1.63 4.739.531 4.739-1.675 0-2.543-4.228-3.358-5.137-.989m53.637 4.44c0 2.582-.392 2.974-3.25 3.25-2.083.2-3.25.852-3.25 1.813s1.167 1.613 3.25 1.813l3.25.314v7.936c0 9.579 1.581 11.937 8 11.937 4.683 0 8-2.695 8-6.5 0-3.3-2.746-3.3-4 0-.929 2.443-1.958 2.961-5 2.519-2.406-.351-2.968-2.097-2.985-9.269L1910 20h5.573c4.768 0 5.526-.253 5.241-1.75-.257-1.353-1.523-1.819-5.573-2.052-5.068-.293-5.241-.4-5.241-3.25 0-2.281-.452-2.948-2-2.948-1.546 0-2 .667-2 2.937M1785 18c0 1.333.667 2 2 2 1.905 0 2 .667 2 14s-.095 14-2 14c-1.349 0-2 .667-2 2.048 0 1.877.521 2.023 6.25 1.75 6.361-.303 9.208-2.878 4-3.618-1.988-.282-2.25-.897-2.25-5.285 0-4.599.143-4.889 1.934-3.93 6.663 3.565 15.066-2.19 15.066-10.318 0-9.104-5.345-14.036-12.997-11.993-2.232.596-4.29.691-4.585.213-1.186-1.919-7.418-.968-7.418 1.133m29 0c0 1.556.667 2 3 2h3v16h-3c-2.333 0-3 .444-3 2 0 1.852.667 2 9 2s9-.148 9-2c0-1.667-.667-2-4-2-3.912 0-4-.078-4-3.532 0-8.128 5.576-14.463 10.192-11.58 2.403 1.501 4.175.27 3.644-2.532-.473-2.491-5.889-2.975-10.051-.899-2.838 1.416-3.273 1.423-4.033.065-1.4-2.503-9.752-2.094-9.752.478m32-.05c0 1.725.634 2.05 4 2.05h4v15.885l-4.25.308c-2.974.215-4.25.757-4.25 1.807 0 1.233 1.778 1.5 10 1.5s10-.267 10-1.5c0-1.009-1.216-1.601-3.714-1.808l-3.715-.308-.285-9.692-.286-9.692-5.75-.3c-5.228-.273-5.75-.114-5.75 1.75m24 .05c0 1.333.667 2 2 2 1.833 0 2 .667 2 8s-.167 8-2 8c-1.349 0-2 .667-2 2.048 0 1.877.521 2.023 6.25 1.75 6.361-.303 9.208-2.878 4-3.618-4.564-.648-2.43-14.595 2.419-15.812 4.566-1.146 5.331-.001 5.331 7.984 0 6.574-.227 7.474-2 7.938-1.1.287-2 1.261-2 2.164 0 1.379 1.001 1.594 6.25 1.344 6.361-.303 9.208-2.878 4-3.618-2.117-.3-2.25-.787-2.25-8.25 0-10.849-3.318-14.041-11.399-10.968-1.62.616-2.744.616-3.125 0C1876.247 14.973 1870 15.84 1870 18m121.217-.439c-9.467 6.631-5.166 22.439 6.106 22.439 6.135 0 10.677-5.104 10.677-12 0-9.385-9.686-15.41-16.783-10.439m4.14 2.488c-5.193 1.957-6.87 8.758-3.284 13.316 5.396 6.86 14.629-1.159 11.306-9.82-.939-2.447-5.515-4.441-8.022-3.496m-200.474 2.068c-2.351 2.351-2.284 9.49.117 12.382 3.664 4.416 11 .082 11-6.499 0-7.106-6.47-10.53-11.117-5.883m170.826 11.507c-1.549 1.549-.67 5.254 1.403 5.911 2.945.935 5.769-1.911 4.269-4.304-1.154-1.841-4.492-2.787-5.672-1.607M1867 91v34h188.07l-1.116 2.086c-1.59 2.972-1.032 3.071 5.09.905 3.001-1.061 7.481-2.458 9.956-3.104l4.5-1.175-6.5-1.677c-3.575-.922-8.242-2.433-10.372-3.356-5.02-2.177-5.161-2.141-3.22.821l1.638 2.5H1869V89.5c0-21-.354-32.5-1-32.5-.647 0-1 12-1 34M387.907 88.327c-2.424 1.279-5.757 4.243-7.407 6.586l-3 4.259-.264 103.437c-.292 114.413-.747 105.956 6.099 113.168 6.122 6.45 1.686 6.224 121.597 6.217 116.043-.006 113.613.1 119.654-5.204 7.689-6.751 7.414-4.423 7.414-62.75V202h138c75.9 0 138 .255 138 .566 0 .311-.466 1.436-1.035 2.5-1.286 2.402-1.502 2.417 6.166-.434 3.503-1.303 8.057-2.673 10.119-3.046l3.75-.677v50.364c0 57.707 0 57.707 7.397 64.525 6.992 6.445 2.014 6.19 120.987 6.196 117.01.006 113.548.16 120.189-5.315 7.542-6.216 7.38-4.845 7.405-62.929L1183 202h137.5c75.625 0 137.5.255 137.5.566 0 .311-.502 1.504-1.116 2.651-.981 1.833-.89 1.995.75 1.332 5.003-2.022 12.27-4.33 15.866-5.038l4-.788-6.5-1.715c-3.575-.943-8.242-2.455-10.372-3.361-4.851-2.063-4.918-2.058-3.663.287.569 1.064 1.035 2.189 1.035 2.5 0 .311-61.875.566-137.5.566H1183v-48.54c0-54.401.234-52.536-7.425-59.26-6.212-5.454-2.805-5.315-122.648-4.997l-111.574.297-4.121 2.728c-2.267 1.5-5.384 4.875-6.927 7.5L927.5 101.5l-.294 49.353-.295 49.353-3.705-.689c-3.294-.612-10.261-2.874-15.572-5.054-1.641-.674-1.732-.514-.75 1.32.614 1.147 1.116 2.34 1.116 2.651 0 .311-62.1.566-138 .566H632v-48.435c0-51.41.019-51.195-5.174-57.111-7.002-7.974 2.37-7.407-122.919-7.432L392.315 86l-4.408 2.327m1107.123-1.214c-4.402 1.756-8.997 5.906-11.289 10.195l-2.241 4.192-.273 99.913c-.31 113.068-.68 107.149 7.156 114.372 2.424 2.235 6.142 4.545 8.262 5.134 5.321 1.477 233.316 1.497 238.632.021 4.724-1.312 10.245-6.084 12.774-11.04 2.566-5.03 3.122-205.158.586-211.226-1.949-4.665-7.878-10.13-12.489-11.512-5.029-1.506-237.347-1.554-241.118-.049M2087 88.354c-2.565 1.31-5.79 4.129-7.5 6.558l-3 4.26-.264 103.427c-.297 116.56-.885 107.423 7.356 114.216 6.384 5.262 4.596 5.185 120.601 5.179 115.745-.006 113.354.099 119.385-5.197 7.204-6.325 6.867-3.516 7.422-61.797l.5-52.5 137.287-.254 137.287-.253-1.118 2.089c-1.569 2.932-.84 3.189 3.64 1.284 2.147-.913 6.829-2.423 10.404-3.355l6.5-1.696-4.5-.774c-2.475-.427-7.312-1.827-10.75-3.113-6.595-2.468-6.859-2.435-5.213.641 1.024 1.914-.701 1.935-136.25 1.685L2331.5 198.5l-.239-47.951c-.259-51.906-.29-52.212-5.861-57.949-6.839-7.042 1.333-6.603-122.272-6.572l-111.628.028-4.5 2.298M392.604 91.038c-3.749 1.122-8.483 5.602-10.227 9.68-1.139 2.661-1.377 20.54-1.377 103.29 0 112.878-.564 104.818 7.735 110.458l3.729 2.534h111.367c124.791 0 115.794.545 121.008-7.333l2.661-4.02.297-99.574c.31-103.579.289-104.151-3.968-109.563-5.39-6.853 1.685-6.473-119.329-6.402-59.95.035-110.303.454-111.896.93m550.764.05c-3.528 1.023-10.03 7.682-10.872 11.137-.305 1.251-.429 47.76-.275 103.353l.279 101.078 2.802 3.673c5.466 7.166-3.422 6.671 119.747 6.671 124.546 0 115.577.545 120.79-7.333l2.661-4.02.269-99.396c.279-103.099.231-104.439-3.944-109.746-5.386-6.847 1.682-6.469-119.325-6.393-62.088.039-110.348.459-112.132.976m554.546-.132c-4.338 1.314-7.429 3.836-9.739 7.946l-2.203 3.92.264 102.016c.297 114.917-.451 104.328 7.772 109.924l3.323 2.262 119.085-.262 119.084-.262 3.367-2.401c7.512-5.358 7.087 1.188 7.105-109.599.018-104.303.021-104.216-4.716-108.754-6.337-6.07.662-5.754-125.474-5.66-63.405.047-116.446.439-117.868.87m593.586.248c-4.001 1.394-8.43 5.558-10.123 9.514-1.139 2.662-1.373 20.46-1.355 103 .025 111.663-.403 105.021 7.111 110.381l3.367 2.401h226l3.367-2.401c7.512-5.358 7.087 1.188 7.105-109.599.011-62.191-.351-100.322-.971-102.557-1.181-4.251-5.127-8.263-10.219-10.39-4.58-1.913-218.839-2.247-224.282-.349M462 142.5V161h2.458c2.374 0 2.468-.265 2.75-7.75l.292-7.75 8.842-.5c9.922-.561 11.835-1.799 13.086-8.468 1.688-8.998-3.24-12.532-17.475-12.532H462v18.5m5.461-13.26c-.319.833-.441 3.707-.271 6.387l.31 4.873 5.845.303c7.575.392 10.655-1.427 10.655-6.291 0-4.26-2.044-5.524-10.113-6.256-4.64-.421-5.964-.218-6.426.984M505 133.709c-.825.304-2.288 1.238-3.25 2.076-1.576 1.373-1.75 1.36-1.75-.13 0-.988-.806-1.655-2-1.655-1.902 0-2 .667-2 13.57 0 13.5.012 13.567 2.25 13.25 2.098-.298 2.26-.844 2.391-8.07.199-10.859.737-12.395 4.862-13.887 2.615-.946 3.497-1.844 3.497-3.564 0-2.263-1.042-2.677-4-1.59m13 1.043c-10.047 5.018-9.107 22.546 1.394 26.008 6.736 2.22 15.574-2.317 15.602-8.01.009-1.778-4.377-.535-6.175 1.75-3.166 4.025-9.254 3.407-11.671-1.184-2.116-4.021-1.545-4.316 8.35-4.316h9.5v-3.032c0-10.082-8.304-15.561-17-11.216m.073 5.883C514.952 144.602 515.401 145 523 145c7.532 0 8.311-.684 5.443-4.777-2.278-3.253-7.656-3.039-10.37.412M540 146.5c0 2.41.233 2.5 6.5 2.5s6.5-.09 6.5-2.5-.233-2.5-6.5-2.5-6.5.09-6.5 2.5m-421 3c0 .833.889 1.5 2 1.5 1.897 0 2 .667 2 13s-.103 13-2 13c-1.349 0-2 .667-2 2.048 0 1.877.521 2.023 6.25 1.75 6.361-.303 9.208-2.878 4-3.618-4.564-.648-2.43-14.595 2.419-15.812 4.566-1.146 5.331-.001 5.331 7.984 0 6.574-.227 7.474-2 7.938-1.1.287-2 1.261-2 2.164 0 1.379 1.001 1.594 6.25 1.344 6.361-.303 9.208-2.878 4-3.618-2.117-.3-2.25-.787-2.25-8.25 0-10.865-3.315-14.042-11.435-10.955-2.56.974-2.565.964-2.565-4.5V148h-4c-2.889 0-4 .417-4 1.5m59 0c0 1.111 1.167 1.5 4.5 1.5h4.5V176.885l-4.25.308c-2.974.215-4.25.757-4.25 1.807 0 1.223 1.987 1.552 10.75 1.784 10.236.27 10.75.186 10.75-1.75 0-1.744-.642-2.034-4.5-2.034H191v-29h-6.5c-5.111 0-6.5.321-6.5 1.5m29 0c0 1.111 1.167 1.5 4.5 1.5h4.5V176.885l-4.25.308c-2.974.215-4.25.757-4.25 1.807 0 1.223 1.987 1.552 10.75 1.784 10.236.27 10.75.186 10.75-1.75 0-1.744-.642-2.034-4.5-2.034H220v-29h-6.5c-5.111 0-6.5.321-6.5 1.5m470 0c0 .833.889 1.5 2 1.5 1.897 0 2 .667 2 13s-.103 13-2 13c-1.349 0-2 .667-2 2.048 0 1.877.521 2.023 6.25 1.75 6.361-.303 9.208-2.878 4-3.618-4.564-.648-2.43-14.595 2.419-15.812 4.566-1.146 5.331-.001 5.331 7.984 0 6.574-.227 7.474-2 7.938-1.1.287-2 1.261-2 2.164 0 1.379 1.001 1.594 6.25 1.344 6.361-.303 9.208-2.878 4-3.618-2.117-.3-2.25-.787-2.25-8.25 0-10.865-3.315-14.042-11.435-10.955-2.56.974-2.565.964-2.565-4.5V148h-4c-2.889 0-4 .417-4 1.5m59 0c0 1.111 1.167 1.5 4.5 1.5h4.5V176.885l-4.25.308c-2.974.215-4.25.757-4.25 1.807 0 1.223 1.987 1.552 10.75 1.784 10.236.27 10.75.186 10.75-1.75 0-1.744-.642-2.034-4.5-2.034H749v-29h-6.5c-5.111 0-6.5.321-6.5 1.5m28 0c0 1.111 1.167 1.5 4.5 1.5h4.5V176.885l-4.25.308c-2.974.215-4.25.757-4.25 1.807 0 1.223 1.987 1.552 10.75 1.784 10.236.27 10.75.186 10.75-1.75 0-1.744-.642-2.034-4.5-2.034H777v-29h-6.5c-5.111 0-6.5.321-6.5 1.5m94.363-.003c-.346.901-.167 2.099.398 2.664 1.63 1.63 4.739.531 4.739-1.675 0-2.543-4.228-3.358-5.137-.989M1235 149.5c0 .833.889 1.5 2 1.5 1.897 0 2 .667 2 13s-.103 13-2 13c-1.349 0-2 .667-2 2.048 0 1.877.521 2.023 6.25 1.75 6.361-.303 9.208-2.878 4-3.618-4.564-.648-2.43-14.595 2.419-15.812 4.566-1.146 5.331-.001 5.331 7.984 0 6.697-.204 7.468-2.105 7.965-4.366 1.142-1.36 3.183 4.688 3.183 6.043 0 8.89-2.578 3.667-3.32-2.117-.3-2.25-.787-2.25-8.25 0-10.865-3.315-14.042-11.435-10.955-2.56.974-2.565.964-2.565-4.5V148h-4c-2.889 0-4 .417-4 1.5m59 0c0 1.111 1.167 1.5 4.5 1.5h4.5V176.885l-4.25.308c-2.974.215-4.25.757-4.25 1.807 0 1.223 1.987 1.552 10.75 1.784 10.236.27 10.75.186 10.75-1.75 0-1.744-.642-2.034-4.5-2.034h-4.5v-29h-6.5c-5.111 0-6.5.321-6.5 1.5m28 0c0 1.111 1.167 1.5 4.5 1.5h4.5V176.885l-4.25.308c-2.974.215-4.25.757-4.25 1.807 0 1.223 1.987 1.552 10.75 1.784 10.236.27 10.75.186 10.75-1.75 0-1.744-.642-2.034-4.5-2.034h-4.5v-29h-6.5c-5.111 0-6.5.321-6.5 1.5m492 0c0 .833.889 1.5 2 1.5 1.897 0 2 .667 2 13s-.103 13-2 13c-1.349 0-2 .667-2 2.048 0 1.877.521 2.023 6.25 1.75 6.361-.303 9.208-2.878 4-3.618-4.564-.648-2.43-14.595 2.419-15.812 4.566-1.146 5.331-.001 5.331 7.984 0 6.697-.204 7.468-2.105 7.965-4.366 1.142-1.36 3.183 4.688 3.183 6.043 0 8.89-2.578 3.667-3.32-2.117-.3-2.25-.787-2.25-8.25 0-10.865-3.315-14.042-11.435-10.955-2.56.974-2.565.964-2.565-4.5V148h-4c-2.889 0-4 .417-4 1.5m58 0c0 1.111 1.167 1.5 4.5 1.5h4.5V176.885l-4.25.308c-2.974.215-4.25.757-4.25 1.807 0 1.223 1.987 1.552 10.75 1.784 10.236.27 10.75.186 10.75-1.75 0-1.744-.642-2.034-4.5-2.034h-4.5v-29h-6.5c-5.111 0-6.5.321-6.5 1.5m29 0c0 1.111 1.167 1.5 4.5 1.5h4.5V176.885l-4.25.308c-2.974.215-4.25.757-4.25 1.807 0 1.223 1.987 1.552 10.75 1.784 10.236.27 10.75.186 10.75-1.75 0-1.744-.642-2.034-4.5-2.034h-4.5v-29h-6.5c-5.111 0-6.5.321-6.5 1.5m520 0c0 .833.889 1.5 2 1.5 1.897 0 2 .667 2 13s-.103 13-2 13c-1.349 0-2 .667-2 2.048 0 1.877.521 2.023 6.25 1.75 6.361-.303 9.208-2.878 4-3.618-4.564-.648-2.43-14.595 2.419-15.812 4.566-1.146 5.331-.001 5.331 7.984 0 6.574-.227 7.474-2 7.938-1.1.287-2 1.261-2 2.164 0 1.379 1.001 1.594 6.25 1.344 6.361-.303 9.208-2.878 4-3.618-2.117-.3-2.25-.787-2.25-8.25 0-10.865-3.315-14.042-11.435-10.955-2.56.974-2.565.964-2.565-4.5V148h-4c-2.889 0-4 .417-4 1.5m59 0c0 1.111 1.167 1.5 4.5 1.5h4.5V176.885l-4.25.308c-2.974.215-4.25.757-4.25 1.807 0 1.223 1.987 1.552 10.75 1.784 10.236.27 10.75.186 10.75-1.75 0-1.744-.642-2.034-4.5-2.034h-4.5v-29h-6.5c-5.111 0-6.5.321-6.5 1.5m28 0c0 1.111 1.167 1.5 4.5 1.5h4.5V176.885l-4.25.308c-2.974.215-4.25.757-4.25 1.807 0 1.223 1.987 1.552 10.75 1.784 10.236.27 10.75.186 10.75-1.75 0-1.744-.642-2.034-4.5-2.034h-4.5v-29h-6.5c-5.111 0-6.5.321-6.5 1.5m-1543.015 4.79c-11.863 6.273-11.816 28.322.073 34.529 9.711 5.069 20.139.361 23.404-10.569 1.215-4.066-4.102-3.048-5.843 1.119-2.462 5.894-7.79 8.037-14.053 5.656-8.143-3.096-9.059-21.064-1.349-26.464 4.427-3.101 13.881-.98 15.28 3.428.789 2.488 5.503 2.843 5.503.415 0-8.109-13.814-12.98-23.015-8.114m538.646 15.408c-7.624 20.376-7.391 19.302-4.201 19.302 2.016 0 2.764-.894 4.389-5.25l1.958-5.25h14.55l1.667 5c1.385 4.157 2.116 5.053 4.336 5.316 3.564.423 3.568.444-3.713-19.316-6.114-16.593-6.336-17.007-9.294-17.302l-3.031-.303-6.661 17.803M1654 170.5c0 17.565.097 18.5 1.917 18.5 1.054 0 2.106-.562 2.337-1.25.328-.975.785-.949 2.078.118 4.162 3.435 12.587.93 15.168-4.51 5.701-12.013-3.245-26.124-13.361-21.077l-3.139 1.566v-5.924c0-5.651-.115-5.923-2.5-5.923h-2.5v18.5m28 0V189h5v-37h-5v18.5m-589-15c0 2 .5 2.5 2.5 2.5s2.5-.5 2.5-2.5-.5-2.5-2.5-2.5-2.5.5-2.5 2.5m12 16V190h5v-37h-5v18.5m1033 1V191h23v-2.5c0-2.481-.067-2.5-9-2.5h-9v-32h-5v18.5m27-16c0 2 .5 2.5 2.5 2.5s2.5-.5 2.5-2.5-.5-2.5-2.5-2.5-2.5.5-2.5 2.5m40 16V191h2.5c2.362 0 2.5-.302 2.5-5.465 0-8.96 2.761-9.33 7.62-1.023 3.287 5.619 4.184 6.488 6.695 6.488 3.485 0 3.405-.296-2.63-9.711l-4.491-7.007 5.141-5.141 5.141-5.141h-3.456c-2.826 0-4.422.953-8.739 5.216l-5.281 5.216V154h-5v18.5M156.256 158.029c-7.884 3.17-8.076 17.427-.289 21.454 6.307 3.261 16.033.498 16.033-4.556 0-2.319-2.257-2.527-4.045-.372-3.392 4.086-10.343 3.325-12.877-1.41-1.503-2.807-.284-3.304 7.684-3.136 9.46.2 9.238.262 9.238-2.559 0-7.93-7.817-12.608-15.744-9.421m83.961.532c-9.467 6.631-5.166 22.439 6.106 22.439 6.135 0 10.677-5.104 10.677-12 0-9.385-9.686-15.41-16.783-10.439m58.546.004c-7.634 4.142-7.509 16.929.204 20.918 6.045 3.126 15.033.402 15.033-4.556 0-2.526-2.635-2.478-4 .073-2.74 5.12-13 .527-13-5.82 0-6.087 8.606-11.807 11.601-7.71 1.337 1.828 4.489 1.764 5.111-.104 1.304-3.917-9.248-5.894-14.949-2.801m414.454-.004c-7.123 4.988-6.689 17.075.75 20.922 6.307 3.261 16.033.498 16.033-4.556 0-2.455-1.795-2.461-4.436-.014-3.517 3.26-7.637 3.104-11.163-.421-3.646-3.646-2.298-4.492 7.158-4.492 8.381 0 8.441-.018 8.441-2.55 0-8.296-10.039-13.613-16.783-8.889m85 0c-9.467 6.631-5.166 22.439 6.106 22.439 6.135 0 10.677-5.104 10.677-12 0-9.385-9.686-15.41-16.783-10.439m53.783.389c0 1.725.634 2.05 4 2.05h4v15.885l-4.25.308c-2.974.215-4.25.757-4.25 1.807 0 1.233 1.778 1.5 10 1.5s10-.267 10-1.5c0-1.009-1.216-1.601-3.714-1.808l-3.715-.308-.285-9.692-.286-9.692-5.75-.3c-5.228-.273-5.75-.114-5.75 1.75m418.217-.389c-7.123 4.988-6.689 17.075.75 20.922 6.307 3.261 16.033.498 16.033-4.556 0-2.455-1.795-2.461-4.436-.014-3.517 3.26-7.637 3.104-11.163-.421-3.646-3.646-2.298-4.492 7.158-4.492 8.381 0 8.441-.018 8.441-2.55 0-8.296-10.039-13.613-16.783-8.889m86 0c-9.467 6.631-5.166 22.439 6.106 22.439 6.135 0 10.677-5.104 10.677-12 0-9.385-9.686-15.41-16.783-10.439m54.783-.28c-6.033 3.052-2.971 9.895 5.052 11.289 9.131 1.586 12.215 5.503 5.698 7.238-4.227 1.125-8.178-.258-9.591-3.358-1.964-4.31-4.159-3.078-4.159 2.334v4.784l8.028.233c8.909.259 12.972-1.966 12.972-7.101 0-4.07-2.436-5.458-14.25-8.119-3.521-.793-3.542-3.329-.039-4.661 3.469-1.319 6.938-.444 8.295 2.092 1.848 3.451 3.994 2.438 3.994-1.885v-3.874l-6.75-.118c-3.713-.066-7.875.45-9.25 1.146m438.217.28c-7.123 4.988-6.689 17.075.75 20.922 6.307 3.261 16.033.498 16.033-4.556 0-2.455-1.795-2.461-4.436-.014-3.517 3.26-7.637 3.104-11.163-.421-3.646-3.646-2.298-4.492 7.158-4.492 8.381 0 8.441-.018 8.441-2.55 0-8.296-10.039-13.613-16.783-8.889m85 0c-9.467 6.631-5.166 22.439 6.106 22.439 6.135 0 10.677-5.104 10.677-12 0-9.385-9.686-15.41-16.783-10.439m57 0c-9.467 6.631-5.166 22.439 6.106 22.439 6.135 0 10.677-5.104 10.677-12 0-9.385-9.686-15.41-16.783-10.439m466 0c-7.123 4.988-6.689 17.075.75 20.922 6.307 3.261 16.033.498 16.033-4.556 0-2.455-1.795-2.461-4.436-.014-3.517 3.26-7.637 3.104-11.163-.421-3.646-3.646-2.298-4.492 7.158-4.492 8.381 0 8.441-.018 8.441-2.55 0-8.296-10.039-13.613-16.783-8.889m85 0c-9.467 6.631-5.166 22.439 6.106 22.439 6.135 0 10.677-5.104 10.677-12 0-9.385-9.686-15.41-16.783-10.439M1512.63 159.79c-.903 1.461-4.63 12.221-4.63 13.367 0 .463 2.25.843 5 .843s5-.362 5-.805c0-2.523-4.757-14.397-5.37-13.405M160 160.709c-7.208 2.651-6.34 6.291 1.5 6.291 7.153 0 7.83-.761 4.045-4.545-2.532-2.533-3.002-2.681-5.545-1.746m84.357.34c-5.193 1.957-6.87 8.758-3.284 13.316 5.396 6.86 14.629-1.159 11.306-9.82-.939-2.447-5.515-4.441-8.022-3.496m472.751.216c-1.316.679-3.058 2.247-3.872 3.485l-1.48 2.25h7.122c7.795 0 8.513-.7 4.667-4.545-2.807-2.808-3.173-2.876-6.437-1.19m85.249-.216c-5.193 1.957-6.87 8.758-3.284 13.316 5.396 6.86 14.629-1.159 11.306-9.82-.939-2.447-5.515-4.441-8.022-3.496m472.643-.34c-7.208 2.651-6.34 6.291 1.5 6.291 7.153 0 7.83-.761 4.045-4.545-2.532-2.533-3.002-2.681-5.545-1.746m85.357.34c-5.193 1.957-6.87 8.758-3.284 13.316 5.396 6.86 14.629-1.159 11.306-9.82-.939-2.447-5.515-4.441-8.022-3.496m492.751.216c-1.316.679-3.058 2.247-3.872 3.485l-1.48 2.25h7.122c7.795 0 8.513-.7 4.667-4.545-2.807-2.808-3.173-2.876-6.437-1.19m85.249-.216c-5.193 1.957-6.87 8.758-3.284 13.316 5.396 6.86 14.629-1.159 11.306-9.82-.939-2.447-5.515-4.441-8.022-3.496m57 0c-5.193 1.957-6.87 8.758-3.284 13.316 5.446 6.924 14.66-1.079 11.306-9.82-.939-2.447-5.515-4.441-8.022-3.496m465.751.216c-1.316.679-3.058 2.247-3.872 3.485l-1.48 2.25h7.122c7.795 0 8.513-.7 4.667-4.545-2.807-2.808-3.173-2.876-6.437-1.19m85.249-.216c-5.193 1.957-6.87 8.758-3.284 13.316 5.396 6.86 14.629-1.159 11.306-9.82-.939-2.447-5.515-4.441-8.022-3.496m-1010.297 1.649c-8.152 4.27-6.218 11.277 3.948 14.304 7.287 2.171 9.145 3.903 6.981 6.511-2.553 3.076-11.989 1.043-11.989-2.584 0-.511-.93-.929-2.066-.929-1.649 0-2.003.536-1.75 2.651.83 6.958 13.784 9.307 19.018 3.449 5.027-5.626 2.879-10.17-5.999-12.691-6.487-1.843-8.544-3.356-7.667-5.641 1.339-3.491 10.464-2.397 10.464 1.255 0 .537 1.125.977 2.5.977 3.141 0 3.233-2.037.248-5.506-2.992-3.479-8.977-4.265-13.688-1.796m26 0c-8.152 4.27-6.218 11.277 3.948 14.304 7.287 2.171 9.145 3.903 6.981 6.511-2.553 3.076-11.989 1.043-11.989-2.584 0-.511-.9-.929-2-.929-2.838 0-2.618 4.071.372 6.879 3.268 3.071 11.559 3.307 15.41.44 6.84-5.092 4.834-11.236-4.538-13.898-6.527-1.855-8.586-3.365-7.708-5.653 1.339-3.491 10.464-2.397 10.464 1.255 0 .537 1.125.977 2.5.977 3.141 0 3.233-2.037.248-5.506-2.992-3.479-8.977-4.265-13.688-1.796m26.94.054c-10.047 5.018-9.107 22.546 1.394 26.008 6.736 2.22 15.574-2.317 15.602-8.01.009-1.778-4.377-.535-6.175 1.75-3.166 4.025-9.254 3.407-11.671-1.184-2.116-4.021-1.545-4.316 8.35-4.316h9.5v-3.032c0-10.082-8.304-15.561-17-11.216m31.25-.261c-1.787.777-3.25.984-3.25.461 0-.524-1.125-.952-2.5-.952h-2.5v27h2.406c2.36 0 2.413-.194 2.75-10.082.368-10.791 1.411-12.918 6.335-12.918 3.85 0 4.509 1.865 4.509 12.77 0 10.181.041 10.363 2.25 10.05 2.128-.303 2.266-.833 2.54-9.786.334-10.868 1.603-13.33 6.62-12.833 3.756.373 4.356 2.251 4.49 14.049.092 8.05.26 8.75 2.1 8.75 2.67 0 3.071-21.026.471-24.738-2.308-3.295-7.68-3.926-11.955-1.404-1.934 1.141-3.516 1.712-3.516 1.269 0-2.624-6.28-3.579-10.75-1.636m78.94.535c-9.318 5.68-7.885 22.408 2.204 25.734 6.736 2.22 15.574-2.317 15.602-8.01.009-1.778-4.377-.535-6.175 1.75-3.166 4.025-9.254 3.407-11.671-1.184-2.116-4.021-1.545-4.316 8.35-4.316h9.5v-3.032c0-10.324-9.376-16.085-17.81-10.942m32.81-1.317c-.825.304-2.287 1.238-3.25 2.076-1.576 1.373-1.75 1.36-1.75-.13 0-.988-.806-1.655-2-1.655-1.902 0-2 .667-2 13.57 0 13.5.012 13.567 2.25 13.25 2.094-.298 2.267-.874 2.502-8.32.352-11.178.698-12.172 4.751-13.637 2.615-.946 3.497-1.844 3.497-3.564 0-2.263-1.042-2.677-4-1.59m-731.97 1.57c-6.859 3.471-9.358 14.966-4.743 21.823 5.977 8.883 19.322 6.001 21.734-4.694 2.711-12.023-7.245-22.06-16.991-17.129m30.72.293c-1.593.864-2.75 1.058-2.75.46 0-.568-1.125-1.032-2.5-1.032h-2.5v27h2.406c2.36 0 2.413-.194 2.75-10.082.368-10.791 1.411-12.918 6.335-12.918 3.85 0 4.509 1.865 4.509 12.77 0 10.181.041 10.363 2.25 10.05 2.128-.303 2.266-.833 2.54-9.786.334-10.868 1.603-13.33 6.62-12.833 3.756.373 4.356 2.251 4.49 14.049.092 8.05.26 8.75 2.1 8.75 2.67 0 3.071-21.026.471-24.738-2.308-3.295-7.68-3.926-11.955-1.404-1.934 1.141-3.516 1.712-3.516 1.269 0-2.714-7.263-3.718-11.25-1.555m41.77-.006c-1.923 1.003-3.105 1.178-3.333.494-.195-.583-1.216-1.06-2.27-1.06-1.82 0-1.917.935-1.917 18.5V200h2.5c2.385 0 2.5-.272 2.5-5.923v-5.924l2.859 1.427c7.953 3.967 15.145-2.636 15.137-13.895-.007-10.632-7.331-16.366-15.476-12.119m49.48.186c-10.047 5.018-9.107 22.546 1.394 26.008 6.736 2.22 15.574-2.317 15.602-8.01.009-1.778-4.377-.535-6.175 1.75-3.166 4.025-9.254 3.407-11.671-1.184-2.116-4.021-1.545-4.316 8.35-4.316h9.5v-3.032c0-10.082-8.304-15.561-17-11.216m32-1.043c-.825.304-2.287 1.238-3.25 2.076-1.576 1.373-1.75 1.36-1.75-.13 0-.988-.806-1.655-2-1.655-1.902 0-2 .667-2 13.57 0 13.5.012 13.567 2.25 13.25 2.094-.298 2.267-.874 2.502-8.32.352-11.178.698-12.172 4.751-13.637 2.615-.946 3.497-1.844 3.497-3.564 0-2.263-1.042-2.677-4-1.59m-61 13.791V190h5v-27h-5v13.5m1090.75-11.928c-1.593.864-2.75 1.058-2.75.46 0-.568-1.125-1.032-2.5-1.032h-2.5v27h2.5c2.472 0 2.5-.096 2.5-8.566 0-11.09 1.612-14.386 7.05-14.419 4.318-.026 4.95 1.594 4.95 12.685V191h5l-.032-11.25c-.034-12.152-.635-13.913-5.365-15.711-3.621-1.376-5.547-1.261-8.853.533m52.25.18c-10.047 5.018-9.107 22.546 1.394 26.008 6.736 2.22 15.574-2.317 15.602-8.01.009-1.778-4.377-.535-6.175 1.75-2.759 3.509-7.934 3.444-10.748-.135-3.784-4.81-3.016-5.365 7.427-5.365h9.5v-3.032c0-10.082-8.304-15.561-17-11.216m32-1.043c-.825.304-2.287 1.238-3.25 2.076-1.576 1.373-1.75 1.36-1.75-.13 0-.988-.806-1.655-2-1.655-1.902 0-2 .667-2 13.57 0 13.5.012 13.567 2.25 13.25 2.094-.298 2.267-.874 2.502-8.32.352-11.178.698-12.172 4.751-13.637 2.615-.946 3.497-1.844 3.497-3.564 0-2.263-1.042-2.677-4-1.59M2165 177.5V191h5v-27h-5v13.5m-1162.056-10.848c-4.667 1.26-6.524 12.069-2.871 16.713 6.057 7.701 15.619-1.988 11.556-11.71-1.214-2.906-5.584-6.392-6.944-5.539-.102.064-.885.305-1.741.536m586.129 1.983c-3.121 3.967-2.672 4.365 4.927 4.365 7.532 0 8.311-.684 5.443-4.777-2.278-3.253-7.656-3.039-10.37.412m71.569-.385c-4.821 7.726-1.713 16.75 5.769 16.75 5.229 0 8.177-12.482 4.031-17.065-2.503-2.765-7.988-2.588-9.8.315m39.431.385c-3.121 3.967-2.672 4.365 4.927 4.365 7.532 0 8.311-.684 5.443-4.777-2.278-3.253-7.656-3.039-10.37.412m-628.742.983c-2.651 4.045-2.322 12.161.587 14.517 5.863 4.747 11.313.806 11.313-8.179 0-8.569-7.738-12.69-11.9-6.338m50.742.017c-3.121 3.967-2.672 4.365 4.927 4.365 7.532 0 8.311-.684 5.443-4.777-2.278-3.253-7.656-3.039-10.37.412m1114 1c-3.121 3.967-2.672 4.365 4.927 4.365 7.532 0 8.311-.684 5.443-4.777-2.278-3.253-7.656-3.039-10.37.412m-1964.364 3.989c-1.549 1.549-.67 5.254 1.403 5.911 2.945.935 5.769-1.911 4.269-4.304-1.154-1.841-4.492-2.787-5.672-1.607m558 0c-1.549 1.549-.67 5.254 1.403 5.911 2.945.935 5.769-1.911 4.269-4.304-1.154-1.841-4.492-2.787-5.672-1.607m558 0c-1.549 1.549-.67 5.254 1.403 5.911 2.945.935 5.769-1.911 4.269-4.304-1.154-1.841-4.492-2.787-5.672-1.607m579 0c-1.549 1.549-.67 5.254 1.403 5.911 2.945.935 5.769-1.911 4.269-4.304-1.154-1.841-4.492-2.787-5.672-1.607M405.52 191.566c-1.923 1.003-3.105 1.178-3.333.494-.195-.583-1.216-1.06-2.27-1.06-1.82 0-1.917.935-1.917 18.5V228h2.5c2.385 0 2.5-.272 2.5-5.923v-5.924l2.859 1.427c7.953 3.967 15.145-2.636 15.137-13.895-.007-10.632-7.331-16.366-15.476-12.119m30.48-.857c-.825.304-2.288 1.238-3.25 2.076-1.576 1.373-1.75 1.36-1.75-.13 0-.988-.806-1.655-2-1.655-1.902 0-2 .667-2 13.57 0 13.5.012 13.567 2.25 13.25 2.094-.298 2.267-.874 2.502-8.32.352-11.178.698-12.172 4.751-13.637 2.615-.946 3.497-1.844 3.497-3.564 0-2.263-1.042-2.677-4-1.59m13.03.57c-8.783 4.445-9.455 21.212-1.031 25.721 8.719 4.666 18.287-1.845 18.287-12.443 0-10.895-8.714-17.6-17.256-13.278m27.285.132c-8.19 3.697-8.938 21.509-1.081 25.714 6.406 3.428 16.766-.984 16.766-7.141 0-2.771-3.614-2.583-5.115.266-4.04 7.672-12.052 3.849-12.052-5.75 0-8.817 7.603-13.343 11.759-7 1.978 3.018 5.408 3.371 5.408.556 0-5.819-9.035-9.646-15.685-6.645m26.685.341c-10.047 5.018-9.107 22.546 1.394 26.008 6.736 2.22 15.574-2.317 15.602-8.01.009-1.778-4.377-.535-6.175 1.75-2.759 3.509-7.934 3.444-10.748-.135-3.784-4.81-3.016-5.365 7.427-5.365h9.5v-3.032c0-10.082-8.304-15.561-17-11.216m26.06-.054c-8.152 4.27-6.218 11.277 3.948 14.304 7.287 2.171 9.145 3.903 6.981 6.511-2.553 3.076-11.989 1.043-11.989-2.584 0-.511-.9-.929-2-.929-2.838 0-2.618 4.071.372 6.879 3.268 3.071 11.559 3.307 15.41.44 6.84-5.092 4.834-11.236-4.538-13.898-6.527-1.855-8.586-3.365-7.708-5.653 1.339-3.491 10.464-2.397 10.464 1.255 0 .537 1.125.977 2.5.977 3.141 0 3.233-2.037.248-5.506-2.992-3.479-8.977-4.265-13.688-1.796m25 0c-8.152 4.27-6.218 11.277 3.948 14.304 7.287 2.171 9.145 3.903 6.981 6.511-2.553 3.076-11.989 1.043-11.989-2.584 0-.511-.9-.929-2-.929-1.427 0-2 .667-2 2.326 0 7.126 13.775 9.848 19.186 3.791 5.043-5.643 2.906-10.184-5.983-12.708-6.487-1.843-8.544-3.356-7.667-5.641 1.304-3.399 10.464-2.617 10.464.893 0 .762 1.078 1.339 2.5 1.339 3.141 0 3.233-2.037.248-5.506-2.992-3.479-8.977-4.265-13.688-1.796m27.97-.419c-6.859 3.471-9.358 14.966-4.743 21.823 5.977 8.883 19.322 6.001 21.734-4.694 2.711-12.023-7.245-22.06-16.991-17.129m31.97-.57c-.825.304-2.288 1.238-3.25 2.076-1.576 1.373-1.75 1.36-1.75-.13 0-.988-.806-1.655-2-1.655-1.901 0-2 .667-2 13.5 0 12.579.129 13.5 1.893 13.5 2.582 0 3.107-1.86 3.107-11.01 0-8.449.956-10.439 5.57-11.597 1.726-.433 2.43-1.303 2.43-3.001 0-2.349-1.02-2.778-4-1.683m-264.035 5.225c.569 1.064 1.035 2.189 1.035 2.5 0 .311-62.325.566-138.5.566-122.444 0-138.5.174-138.5 1.5s16.056 1.5 138.5 1.5c76.175 0 138.5.255 138.5.566 0 .311-.466 1.436-1.035 2.5-1.282 2.395-1.204 2.393 5.138-.107 2.847-1.122 7.476-2.544 10.287-3.161l5.11-1.12-6.5-1.692c-3.575-.931-8.242-2.433-10.372-3.339-4.851-2.063-4.918-2.058-3.663.287m99.958.989c-5.619 5.619-2.861 17.077 4.111 17.077 8.461 0 10.515-15.94 2.449-19.006-3.482-1.324-3.233-1.398-6.56 1.929m135.021-2.271c-4.667 1.26-6.524 12.069-2.871 16.713 6.057 7.701 15.619-1.988 11.556-11.71-1.214-2.906-5.584-6.392-6.944-5.539-.102.064-.885.305-1.741.536m1468.648 1.848 1.638 2.5h-144.615c-127.88 0-144.615.174-144.615 1.5s16.735 1.5 144.615 1.5h144.615l-1.638 2.5c-1.869 2.852-1.758 2.924 2.093 1.348 1.548-.634 6.415-2.145 10.815-3.358l8-2.206-4.5-.759c-2.475-.418-7.366-1.832-10.869-3.142-7.795-2.916-7.53-2.922-5.539.117m-1649.261 1.118c-4.353 6.643-1.201 16.382 5.301 16.382 4.414 0 6.599-3.326 6.599-10.044 0-8.569-7.738-12.69-11.9-6.338m98.742.017C499.952 201.602 500.401 202 508 202c7.532 0 8.311-.684 5.443-4.777-2.278-3.253-7.656-3.039-10.37.412m1072.74 14.115c-7.031 7.339-9.094 15.332-6.373 24.693 1.812 6.232 8.058 13.557 11.56 13.557 2.8 0 2.579-.563-2.399-6.099-8.779-9.764-8.108-23.663 1.505-31.187 1.783-1.395 2.859-2.962 2.468-3.594-1.206-1.952-3.063-1.23-6.761 2.63m73.187-2.437c0 .722 1.407 2.635 3.126 4.25 8.997 8.453 8.63 25.78-.674 31.876-2.673 1.752-3.307 4.561-1.029 4.561 2.606 0 7.833-5.355 10.21-10.459 3.256-6.992 3.182-14.514-.211-21.321-3.607-7.239-11.422-13.333-11.422-8.907m-647.187 3.437c-7.723 8.062-9.588 18.885-4.917 28.536 2.382 4.919 7.539 9.714 10.448 9.714 2.43 0 2.115-.695-2.781-6.141-8.692-9.668-7.998-23.678 1.543-31.145 1.783-1.395 2.859-2.962 2.468-3.594-1.206-1.952-3.063-1.23-6.761 2.63M1104 210.313c0 .722 1.407 2.635 3.126 4.25 8.997 8.453 8.63 25.78-.674 31.876-2.673 1.752-3.307 4.561-1.029 4.561 2.606 0 7.833-5.355 10.21-10.459 3.256-6.992 3.182-14.514-.211-21.321-3.607-7.239-11.422-13.333-11.422-8.907m1058.813 3.437c-7.723 8.062-9.588 18.885-4.917 28.536 2.382 4.919 7.539 9.714 10.448 9.714 2.426 0 2.114-.697-2.717-6.07-8.727-9.706-8.061-23.749 1.479-31.216 1.783-1.395 2.859-2.962 2.468-3.594-1.206-1.952-3.063-1.23-6.761 2.63m73.187-2.437c0 .722 1.407 2.635 3.126 4.25 8.997 8.453 8.63 25.78-.674 31.876-2.673 1.752-3.307 4.561-1.029 4.561 2.606 0 7.833-5.355 10.21-10.459 4.504-9.671 2.04-22.431-5.567-28.832-3.463-2.914-6.066-3.513-6.066-1.396m-1153.438 4.233c-.917 1.4-2.769 3.047-4.115 3.66-3.921 1.787-3.179 4.154 1.053 3.36l3.5-.657v20.964l-3.242.314c-2.166.209-3.354.907-3.581 2.103-.308 1.628.462 1.764 8.492 1.5 7.054-.232 8.831-.592 8.831-1.79 0-.961-1.167-1.613-3.25-1.813l-3.25-.314v-14.936c0-15.906-.755-18.013-4.438-12.391M2178 216.5c0 1.111 1.167 1.5 4.5 1.5h4.5V243.885l-4.25.308c-2.974.215-4.25.757-4.25 1.807 0 1.223 1.987 1.552 10.75 1.784 10.236.27 10.75.186 10.75-1.75 0-1.744-.642-2.034-4.5-2.034h-4.5v-29h-6.5c-5.111 0-6.5.321-6.5 1.5m40 0c0 .833.889 1.5 2 1.5 1.659 0 2 .667 2 3.913 0 3.899-.01 3.909-2.888 2.823-10.974-4.142-19.242 12.398-10.225 20.455 3.238 2.893 8.138 3.712 11.079 1.851.92-.582 1.921-.55 2.685.083 1.842 1.529 7.849.668 7.849-1.125 0-.825-1.012-1.644-2.25-1.82-2.215-.314-2.25-.546-2.25-14.75V215h-4c-2.889 0-4 .417-4 1.5m-625.471 6.855c-1.135.83-1.609 1.993-1.223 3 .808 2.105 3.627 2.119 5.157.027 1.548-2.118 7.135-1.003 8.588 1.714 1.17 2.185.806 2.402-5.528 3.293-8.446 1.187-12.417 8.19-7.042 12.418 3.694 2.905 22.519 2.914 22.519.011 0-1.273-.75-1.818-2.5-1.818-2.426 0-2.5-.205-2.5-6.918 0-3.805-.28-7.647-.621-8.537-1.536-4.002-12.819-6.137-16.85-3.19m29.717.185c-5.121 3.587-1.908 9.69 5.806 11.03 9.131 1.586 12.215 5.503 5.698 7.238-4.227 1.125-8.178-.258-9.591-3.358-1.964-4.31-4.159-3.078-4.159 2.334v4.784l8.028.233c8.909.259 12.972-1.966 12.972-7.101 0-4.07-2.436-5.458-14.25-8.119-3.521-.793-3.542-3.329-.039-4.661 3.469-1.319 6.938-.444 8.295 2.092 1.848 3.452 3.994 2.438 3.994-1.888v-3.876l-7.254-.141c-5.163-.1-7.901.313-9.5 1.433m-598.483 1.025c-7.634 4.142-7.509 16.929.204 20.918 6.045 3.126 15.033.402 15.033-4.556 0-2.526-2.635-2.478-4 .073-2.74 5.12-13 .527-13-5.82 0-6.087 8.606-11.807 11.601-7.71 1.337 1.828 4.489 1.764 5.111-.104 1.304-3.917-9.248-5.894-14.949-2.801m28.493-.536c-7.884 3.17-8.076 17.427-.289 21.454 6.045 3.126 15.033.402 15.033-4.556 0-2.526-2.635-2.478-4 .073-2.74 5.12-13 .527-13-5.82 0-6.087 8.606-11.807 11.601-7.71 1.337 1.828 4.489 1.764 5.111-.104 1.191-3.577-8.369-5.784-14.456-3.337m1158.817 6.606c-4.075 5.179-1.047 13.365 4.943 13.365 3.733 0 5.984-3.223 5.984-8.568 0-7.217-6.707-10.162-10.927-4.797M1598 235.752c-4.208 2.102-4.475 4.254-.75 6.039 4.092 1.961 8.142-.19 8.563-4.548.376-3.888-2.078-4.356-7.813-1.491m-1145.524 4.403c-7.177 6.302-9.813 15.733-7.052 25.23 1.847 6.353 7.938 13.615 11.421 13.615 2.968 0 2.78-.511-2.244-6.099-8.779-9.764-8.108-23.663 1.505-31.187 1.783-1.395 2.859-2.962 2.468-3.594-1.079-1.747-2.227-1.364-6.098 2.035M554 238.313c0 .722 1.407 2.635 3.126 4.25 8.939 8.398 8.675 25.751-.483 31.752-2.829 1.853-3.566 4.685-1.22 4.685 2.606 0 7.833-5.355 10.21-10.459 3.256-6.992 3.182-14.514-.211-21.321-3.607-7.239-11.422-13.333-11.422-8.907m-80.237 14.252c-7.634 4.142-7.509 16.929.204 20.918 6.045 3.126 15.033.402 15.033-4.556 0-2.526-2.635-2.478-4 .073-2.74 5.12-13 .527-13-5.82 0-6.087 8.606-11.807 11.601-7.71 1.337 1.828 4.489 1.764 5.111-.104 1.304-3.917-9.248-5.894-14.949-2.801M493 253c0 1.333.667 2 2 2 1.905 0 2 .667 2 14s-.095 14-2 14c-1.349 0-2 .667-2 2.048 0 1.877.521 2.023 6.25 1.75 6.361-.303 9.208-2.878 4-3.618-1.988-.282-2.25-.897-2.25-5.285 0-4.599.143-4.889 1.934-3.93 6.663 3.565 15.066-2.19 15.066-10.318 0-9.104-5.345-14.036-12.997-11.993-2.232.596-4.29.691-4.585.213-1.186-1.919-7.418-.968-7.418 1.133m29 0c0 1.333.667 2 2 2 1.905 0 2 .667 2 14s-.095 14-2 14c-1.349 0-2 .667-2 2.048 0 1.877.521 2.023 6.25 1.75 6.361-.303 9.208-2.878 4-3.618-1.988-.282-2.25-.897-2.25-5.285 0-4.599.143-4.889 1.934-3.93 5.484 2.934 14.886-2.092 15.181-8.115.518-10.563-4.87-16.396-13.112-14.196-2.232.596-4.29.691-4.585.213-1.186-1.919-7.418-.968-7.418 1.133m-19.117 4.117c-2.351 2.351-2.284 9.49.117 12.382 3.664 4.416 11 .082 11-6.499 0-7.106-6.47-10.53-11.117-5.883M532 257c-4.173 4.173-1.348 14 4.026 14 4.248 0 6.974-3.127 6.974-8 0-4.683-2.695-8-6.5-8-1.375 0-3.4.9-4.5 2m-382.612 8.98c-3.691 1.491-6.388 5.925-6.388 10.5 0 5.463 1.96 7.195 10.683 9.438 11.742 3.021 14.48 6.009 9.798 10.692-4.582 4.582-15.095 2.332-16.989-3.636-.899-2.832-5.863-2.807-5.059.026l1.126 3.974c2.839 10.022 25.724 8.362 27.8-2.017 1.453-7.265-2.04-10.912-12.852-13.419-9.649-2.238-12.323-5.679-7.678-9.883 4.045-3.661 15.171-.507 15.171 4.3 0 .575 1.134 1.045 2.519 1.045 2.24 0 2.447-.305 1.866-2.75-1.71-7.197-12.059-11.477-19.997-8.27M1784 285.416V304h6v-16h6.809c9.191 0 10.546 1.111 11.187 9.167.501 6.294.524 6.335 3.754 6.646 3.103.3 4.37-1.003 2.25-2.313-.55-.34-1-3.006-1-5.924 0-3.766-.572-6.034-1.971-7.812-1.962-2.494-1.962-2.515 0-4.29 3.079-2.787 2.738-10.404-.607-13.55-2.379-2.237-3.494-2.45-14.5-2.758l-11.922-.333v18.583m64 .084V304h5v-37h-5v18.5m136 0c0 17.565.097 18.5 1.917 18.5 1.054 0 2.106-.562 2.337-1.25.33-.979.775-.958 2.054.098 4.204 3.47 12.566 1.044 15.147-4.394 5.742-12.101-3.153-26.243-13.316-21.173l-3.139 1.566v-5.924c0-5.651-.115-5.923-2.5-5.923h-2.5v18.5m28 0V304h5v-37h-5v18.5m358 0V304h27v-5h-22.1l.3-5.75.3-5.75 9.75-.286c8.862-.26 9.75-.462 9.75-2.214s-.888-1.954-9.75-2.214l-9.75-.286-.302-5.25-.303-5.25H2397v-5h-27v18.5m183 0c0 17.565.097 18.5 1.917 18.5 1.054 0 2.106-.562 2.337-1.25.33-.979.775-.958 2.054.098 4.204 3.47 12.566 1.044 15.147-4.394 5.742-12.101-3.153-26.243-13.316-21.173l-3.139 1.566v-5.924c0-5.651-.115-5.923-2.5-5.923h-2.5v18.5m28 0V304h5v-37h-5v18.5m-1898 1V305h5l.069-13.75.069-13.75 4.681 13.5c4.319 12.457 4.886 13.524 7.329 13.807 2.567.297 2.797-.133 7.5-14L712.5 276.5l.277 14.25.278 14.25H718v-37h-7.548l-5.033 15.206-5.033 15.207-3.746-10.957C689.677 267.088 690.158 268 686.364 268H683v18.5m87-12.5c0 3.3-.156 6-.346 6-.191 0-1.828-.739-3.639-1.642-12.394-6.183-21.34 15.185-10.367 24.764 3.595 3.139 11.454 2.887 13.566-.435.5-.785.761-.571.771.633.011 1.311.643 1.73 2.265 1.5 2.228-.317 2.253-.499 2.523-18.57l.272-18.25h-2.522c-2.417 0-2.523.252-2.523 6m11-3.5c0 2 .5 2.5 2.5 2.5s2.5-.5 2.5-2.5-.5-2.5-2.5-2.5-2.5.5-2.5 2.5m13.557-.277c-.856 1.222-1.557 3.472-1.557 5 0 1.802-.527 2.777-1.5 2.777-.833 0-1.5.889-1.5 2s.667 2 1.5 2c1.246 0 1.5 1.944 1.5 11.5V305h5v-11.5c0-10.833.116-11.5 2-11.5 1.333 0 2-.667 2-2s-.667-2-2-2c-1.486 0-2-.667-2-2.594 0-1.752.649-2.763 2-3.116 1.107-.29 2-1.364 2-2.407 0-2.805-5.414-2.558-7.443.34M806 270.5c0 2 .5 2.5 2.5 2.5s2.5-.5 2.5-2.5-.5-2.5-2.5-2.5-2.5.5-2.5 2.5m58 3.43c0 3.339-.156 6.07-.346 6.07-.191 0-1.828-.739-3.639-1.642-12.394-6.183-21.34 15.185-10.367 24.764 3.595 3.139 11.454 2.887 13.566-.435.5-.785.761-.571.771.633.011 1.311.643 1.73 2.265 1.5 2.238-.318 2.25-.415 2.25-18.32s-.012-18.002-2.25-18.32c-2.121-.301-2.25.028-2.25 5.75m363.631 12.768c-7.624 20.376-7.391 19.302-4.201 19.302 2.016 0 2.764-.894 4.389-5.25l1.958-5.25h14.55l1.667 5c1.385 4.157 2.116 5.053 4.336 5.316 3.564.423 3.568.444-3.713-19.316-6.114-16.593-6.336-17.007-9.294-17.302l-3.031-.303-6.661 17.803M1378 287.5c0 17.565.097 18.5 1.917 18.5 1.054 0 2.106-.562 2.337-1.25.33-.979.775-.958 2.054.098 4.204 3.47 12.566 1.044 15.147-4.394 5.742-12.101-3.153-26.243-13.316-21.173l-3.139 1.566v-5.924c0-5.651-.115-5.923-2.5-5.923h-2.5v18.5m29 0V306h5v-37h-5v18.5m536-14c0 2.444-.452 3.5-1.5 3.5-.833 0-1.5.889-1.5 2s.667 2 1.5 2c1.229 0 1.5 1.73 1.5 9.566 0 11.488.802 13.434 5.535 13.434 3.95 0 5.091-3.341 1.465-4.29-1.815-.474-2-1.364-2-9.616 0-8.427.147-9.094 2-9.094 1.333 0 2-.667 2-2s-.667-2-2-2c-1.619 0-2-.667-2-3.5 0-3.067-.31-3.5-2.5-3.5s-2.5.433-2.5 3.5m568 0c0 2.444-.452 3.5-1.5 3.5-.833 0-1.5.889-1.5 2s.667 2 1.5 2c1.229 0 1.5 1.73 1.5 9.566 0 11.488.802 13.434 5.535 13.434 3.95 0 5.091-3.341 1.465-4.29-1.815-.474-2-1.364-2-9.616 0-8.427.147-9.094 2-9.094 1.333 0 2-.667 2-2s-.667-2-2-2c-1.619 0-2-.667-2-3.5 0-3.067-.31-3.5-2.5-3.5s-2.5.433-2.5 3.5m-720.25-1.939c-.412.425-.75 3.447-.75 6.715v5.943l7.598-.384c9.644-.487 13.247-4.562 9.077-10.265-1.409-1.927-14.411-3.567-15.925-2.009m-1608.72 4.718c-8.783 4.445-9.455 21.212-1.031 25.721 8.719 4.666 18.287-1.845 18.287-12.443 0-10.895-8.714-17.6-17.256-13.278m60.97-.57c-.825.304-2.287 1.238-3.25 2.076-1.576 1.373-1.75 1.36-1.75-.13 0-.988-.806-1.655-2-1.655-1.902 0-2 .667-2 13.57 0 13.5.012 13.567 2.25 13.25 2.094-.298 2.267-.874 2.502-8.32.352-11.178.698-12.172 4.751-13.637 2.615-.946 3.497-1.844 3.497-3.564 0-2.263-1.042-2.677-4-1.59m12.315.702c-8.204 3.703-8.937 21.51-1.059 25.726 6.492 3.475 16.744-.905 16.744-7.153 0-2.771-3.614-2.583-5.115.266-4.087 7.761-11.885 3.988-11.885-5.75 0-6.599 1.995-9.5 6.534-9.5 2.544 0 3.839.64 5.058 2.5 1.978 3.018 5.408 3.371 5.408.556 0-5.819-9.035-9.646-15.685-6.645m25.685.341c-10.047 5.018-9.107 22.546 1.394 26.008 6.736 2.22 15.574-2.317 15.602-8.01.009-1.778-4.377-.535-6.175 1.75-3.166 4.025-9.254 3.407-11.671-1.184-2.116-4.021-1.545-4.316 8.35-4.316h9.5v-3.032c0-10.082-8.304-15.561-17-11.216m-75.836 10.723c.298 10.179.58 11.719 2.5 13.636 2.666 2.662 9.12 2.915 12.803.502 2.209-1.447 2.533-1.464 2.533-.136 0 .856.875 1.523 2 1.523 1.901 0 2-.667 2-13.5V276h-2.5c-2.491 0-2.5.033-2.5 9.5 0 10.73-1.429 13.5-6.965 13.5-4.174 0-5.035-2.296-5.035-13.434V276h-5.172l.336 11.475M1236.63 276.79c-.903 1.461-4.63 12.221-4.63 13.367 0 .463 2.25.843 5 .843s5-.362 5-.805c0-2.523-4.757-14.397-5.37-13.405m589.37.962c-10.047 5.018-9.107 22.546 1.394 26.008 6.736 2.22 15.574-2.317 15.602-8.01.009-1.778-4.377-.535-6.175 1.75-3.166 4.025-9.254 3.407-11.671-1.184-2.116-4.021-1.545-4.316 8.35-4.316h9.5v-3.032c0-10.082-8.304-15.561-17-11.216m40.03-.473c-8.783 4.445-9.455 21.212-1.031 25.721 8.719 4.666 18.287-1.845 18.287-12.443 0-10.895-8.714-17.6-17.256-13.278m27.285.132c-8.115 3.663-8.948 21.504-1.199 25.651 4.509 2.413 10.964 1.532 14.046-1.917 1.561-1.747 2.838-4.069 2.838-5.161 0-2.771-3.614-2.583-5.115.266-4.04 7.672-12.052 3.849-12.052-5.75 0-8.817 7.603-13.343 11.759-7 1.978 3.018 5.408 3.371 5.408.556 0-5.819-9.035-9.646-15.685-6.645m24.927.083c-2.639 1.147-5.242 4.658-5.242 7.071 0 1.533 4.844.138 5.278-1.519 1.198-4.581 10.722-3.349 10.722 1.387 0 2.091-.584 2.568-3.75 3.062-10.825 1.691-13.25 3.398-13.25 9.328 0 6.774 8.701 10.04 15.274 5.733 2.215-1.451 2.549-1.461 3.074-.092.936 2.44 6.652 2.041 6.652-.464 0-1.111-.667-2-1.5-2-1.223 0-1.5-1.674-1.5-9.066 0-10.368-.712-12.29-5.128-13.829-4.124-1.437-6.639-1.345-10.63.389m43-.052c-2.632 1.186-5.242 4.732-5.242 7.123 0 1.533 4.844.138 5.278-1.519 1.198-4.581 10.722-3.349 10.722 1.387 0 2.091-.584 2.568-3.75 3.062-10.825 1.691-13.25 3.398-13.25 9.328 0 6.774 8.701 10.04 15.274 5.733 2.215-1.451 2.549-1.461 3.074-.092.936 2.44 6.652 2.041 6.652-.464 0-1.111-.667-2-1.5-2-1.233 0-1.5-1.775-1.5-9.977 0-9.497-.118-10.054-2.462-11.59-3.473-2.275-9.456-2.721-13.296-.991m67.948.584c-9.318 5.68-7.885 22.408 2.204 25.734 6.736 2.22 15.574-2.317 15.602-8.01.009-1.778-4.377-.535-6.175 1.75-2.759 3.509-7.934 3.444-10.748-.135-3.784-4.81-3.016-5.365 7.427-5.365h9.5v-3.032c0-10.324-9.376-16.085-17.81-10.942m404.81-.274c-10.047 5.018-9.107 22.546 1.394 26.008 6.736 2.22 15.574-2.317 15.602-8.01.009-1.778-4.377-.535-6.175 1.75-3.166 4.025-9.254 3.407-11.671-1.184-2.116-4.021-1.545-4.316 8.35-4.316h9.5v-3.032c0-10.082-8.304-15.561-17-11.216m27.315-.341c-8.115 3.663-8.948 21.504-1.199 25.651 4.509 2.413 10.964 1.532 14.046-1.917 1.561-1.747 2.838-4.069 2.838-5.161 0-2.771-3.614-2.583-5.115.266-4.087 7.761-11.885 3.988-11.885-5.75 0-6.599 1.995-9.5 6.534-9.5 2.544 0 3.839.64 5.058 2.5 1.978 3.018 5.408 3.371 5.408.556 0-5.819-9.035-9.646-15.685-6.645m67.927.031c-2.632 1.186-5.242 4.732-5.242 7.123 0 1.533 4.844.138 5.278-1.519 1.198-4.581 10.722-3.349 10.722 1.387 0 2.091-.584 2.568-3.75 3.062-10.825 1.691-13.25 3.398-13.25 9.328 0 6.774 8.701 10.04 15.274 5.733 2.215-1.451 2.549-1.461 3.074-.092.936 2.44 6.652 2.041 6.652-.464 0-1.111-.667-2-1.5-2-1.233 0-1.5-1.775-1.5-9.977 0-9.497-.118-10.054-2.462-11.59-3.473-2.275-9.456-2.721-13.296-.991m67.948.584c-9.318 5.68-7.885 22.408 2.204 25.734 6.736 2.22 15.574-2.317 15.602-8.01.009-1.778-4.377-.535-6.175 1.75-2.759 3.509-7.934 3.444-10.748-.135-3.784-4.81-3.016-5.365 7.427-5.365h9.5v-3.032c0-10.324-9.376-16.085-17.81-10.942m-1867.16.253c-8.783 4.445-9.455 21.212-1.031 25.721 8.719 4.666 18.287-1.845 18.287-12.443 0-10.895-8.714-17.6-17.256-13.278m93.97.473c-12.3 6.144-7.942 26.7 5.618 26.495 5.961-.09 11.382-4.232 11.382-8.697 0-1.616-4.488-.199-6.179 1.95-3.166 4.025-9.254 3.407-11.671-1.184-2.116-4.021-1.545-4.316 8.35-4.316h9.5v-3.032c0-10.082-8.304-15.561-17-11.216m1577.6-.502c.395.688 2.221 3.335 4.059 5.884 4.181 5.799 4.178 5.851-.659 12.606-4.745 6.625-4.853 7.26-1.243 7.26 2.199 0 3.308-.912 5.476-4.5 1.495-2.475 3.07-4.5 3.5-4.5.43 0 2.005 2.025 3.5 4.5 2.279 3.773 3.216 4.5 5.801 4.5 3.458 0 3.569.405-2.27-8.286l-3.888-5.787 4.613-6.463 4.612-6.464h-3.036c-2.435 0-3.561.793-5.684 4-1.456 2.2-2.977 4-3.381 4-.404 0-1.925-1.8-3.381-4-2.125-3.211-3.248-4-5.692-4-2.152 0-2.835.366-2.327 1.25m80.564 10.225c.298 10.179.58 11.719 2.5 13.636 2.666 2.662 9.12 2.915 12.803.502 2.209-1.447 2.533-1.464 2.533-.136 0 .856.875 1.523 2 1.523 1.901 0 2-.667 2-13.5V277h-2.5c-2.491 0-2.5.033-2.5 9.5 0 10.73-1.429 13.5-6.965 13.5-4.174 0-5.035-2.296-5.035-13.434V277h-5.172l.336 11.475M781 291.5V305h5v-27h-5v13.5m25 0V305h5v-27h-5v13.5m455.06-11.802c-8.152 4.27-6.218 11.277 3.948 14.304 7.287 2.171 9.145 3.903 6.981 6.511-2.553 3.076-11.989 1.043-11.989-2.584 0-.511-.93-.929-2.066-.929-1.649 0-2.003.536-1.75 2.651.72 6.034 11.822 8.968 17.614 4.656 6.821-5.077 4.809-11.217-4.554-13.901-8.75-2.509-10.093-4.148-5.738-7.002 2.847-1.865 8.494-.391 8.494 2.217 0 .804 1.042 1.379 2.5 1.379 3.141 0 3.233-2.037.248-5.506-2.992-3.479-8.977-4.265-13.688-1.796m25 0c-8.152 4.27-6.218 11.277 3.948 14.304 7.287 2.171 9.145 3.903 6.981 6.511-2.553 3.076-11.989 1.043-11.989-2.584 0-.511-.9-.929-2-.929-2.838 0-2.618 4.071.372 6.879 3.268 3.071 11.559 3.307 15.41.44 6.84-5.092 4.834-11.236-4.538-13.898-6.527-1.855-8.586-3.365-7.708-5.653 1.304-3.399 10.464-2.617 10.464.893 0 .762 1.078 1.339 2.5 1.339 3.141 0 3.233-2.037.248-5.506-2.992-3.479-8.977-4.265-13.688-1.796m27.13.328c-9.318 5.68-7.885 22.408 2.204 25.734 6.736 2.22 15.574-2.317 15.602-8.01.009-1.778-4.377-.535-6.175 1.75-3.166 4.025-9.254 3.407-11.671-1.184-2.116-4.021-1.545-4.316 8.35-4.316h9.5v-3.032c0-10.324-9.376-16.085-17.81-10.942m31.06-.535c-1.787.777-3.25.984-3.25.461 0-.524-1.125-.952-2.5-.952h-2.5v27h2.406c2.36 0 2.413-.194 2.75-10.082.368-10.791 1.411-12.918 6.335-12.918 3.85 0 4.509 1.865 4.509 12.77 0 10.181.041 10.363 2.25 10.05 2.128-.303 2.266-.833 2.54-9.786.334-10.868 1.603-13.33 6.62-12.833 3.756.373 4.356 2.251 4.49 14.049.092 8.05.26 8.75 2.1 8.75 2.67 0 3.071-21.026.471-24.738-2.308-3.295-7.68-3.926-11.955-1.404-1.934 1.141-3.516 1.712-3.516 1.269 0-2.624-6.28-3.579-10.75-1.636m-1159.306.161c-4.667 1.26-6.524 12.069-2.871 16.713 6.057 7.701 15.619-1.988 11.556-11.71-1.214-2.906-5.584-6.392-6.944-5.539-.102.064-.885.305-1.741.536m1231.056.311c0 .529 2.061 6.649 4.581 13.598 5.088 14.036 5.04 18.439-.202 18.439-2.773 0-3.414 3.666-.815 4.663 4.92 1.888 7.372-1.773 15.092-22.539 6.273-16.873 5.997-15.334 2.672-14.94-2.41.285-2.974 1.217-5.75 9.496-1.693 5.049-3.325 9.421-3.627 9.716-.301.294-2.018-3.95-3.815-9.431-2.949-8.997-3.503-9.965-5.701-9.965-1.339 0-2.435.433-2.435.963m-1134.927 2.672C277.952 286.602 278.401 287 286 287c7.532 0 8.311-.684 5.443-4.777-2.278-3.253-7.656-3.039-10.37.412m1587.871-1.983c-4.667 1.26-6.524 12.069-2.871 16.713 6.057 7.701 15.619-1.988 11.556-11.71-1.214-2.906-5.584-6.392-6.944-5.539-.102.064-.885.305-1.741.536m-1136 1c-4.667 1.26-6.524 12.069-2.871 16.713 6.057 7.701 15.619-1.988 11.556-11.71-1.214-2.906-5.584-6.392-6.944-5.539-.102.064-.885.305-1.741.536m1093.129 1.983c-3.121 3.967-2.672 4.365 4.927 4.365 7.532 0 8.311-.684 5.443-4.777-2.278-3.253-7.656-3.039-10.37.412m164.258-.017c-2.363 3.606-2.289 11.666.132 14.341 2.565 2.835 7.936 2.737 9.98-.182 2.279-3.253 2.104-12.972-.272-15.122-2.888-2.614-7.812-2.132-9.84.963m39.742.017c-3.121 3.967-2.672 4.365 4.927 4.365 7.532 0 8.311-.684 5.443-4.777-2.278-3.253-7.656-3.039-10.37.412m404 0c-3.121 3.967-2.672 4.365 4.927 4.365 7.532 0 8.311-.684 5.443-4.777-2.278-3.253-7.656-3.039-10.37.412m125.258-.017c-4.353 6.643-1.201 16.382 5.301 16.382 4.391 0 6.468-3.177 6.521-9.975.067-8.646-7.624-12.814-11.822-6.407m38.742.017c-3.121 3.967-2.672 4.365 4.927 4.365 7.532 0 8.311-.684 5.443-4.777-2.278-3.253-7.656-3.039-10.37.412m-1840.673.877c-2.244 3.425-1.511 13.203 1.136 15.138 7.57 5.535 14.852-6.305 9.191-14.944-2.437-3.72-7.949-3.823-10.327-.194m66.673.123C820.952 288.602 821.401 289 829 289c7.532 0 8.311-.684 5.443-4.777-2.278-3.253-7.656-3.039-10.37.412m27.327-.123c-2.244 3.425-1.511 13.203 1.136 15.138 2.723 1.991 6.889 1.643 9.059-.757 2.606-2.883 2.574-11.943-.052-14.845-2.714-2.999-8.033-2.755-10.143.464m462.673 1.123c-3.121 3.967-2.672 4.365 4.927 4.365 7.532 0 8.311-.684 5.443-4.777-2.278-3.253-7.656-3.039-10.37.412m70.258-.017c-2.363 3.606-2.289 11.666.132 14.341 2.565 2.835 7.936 2.737 9.98-.182 2.279-3.253 2.104-12.972-.272-15.122-2.888-2.614-7.812-2.132-9.84.963m537.826 6.377c-4.229 1-5.413 2.193-4.992 5.031.853 5.751 11.061 3.318 11.648-2.776.344-3.564-.258-3.768-6.656-2.255m43 0c-4.229 1-5.413 2.193-4.992 5.031.853 5.751 11.061 3.318 11.648-2.776.344-3.564-.258-3.768-6.656-2.255m568 0c-4.229 1-5.413 2.193-4.992 5.031.853 5.751 11.061 3.318 11.648-2.776.344-3.564-.258-3.768-6.656-2.255M1878 342.5c0 17.565.097 18.5 1.917 18.5 1.054 0 2.106-.562 2.337-1.25.33-.979.775-.958 2.054.098 4.204 3.47 12.566 1.044 15.147-4.394 5.742-12.101-3.153-26.243-13.316-21.173l-3.139 1.566v-5.924c0-5.651-.115-5.923-2.5-5.923h-2.5v18.5m28-16c0 2 .5 2.5 2.5 2.5s2.5-.5 2.5-2.5-.5-2.5-2.5-2.5-2.5.5-2.5 2.5m549 17c0 17.565.097 18.5 1.917 18.5 1.054 0 2.106-.562 2.337-1.25.33-.979.775-.958 2.054.098 4.204 3.47 12.566 1.044 15.147-4.394 5.742-12.101-3.153-26.243-13.316-21.173l-3.139 1.566v-5.924c0-5.651-.115-5.923-2.5-5.923h-2.5v18.5m28-16c0 2 .5 2.5 2.5 2.5s2.5-.5 2.5-2.5-.5-2.5-2.5-2.5-2.5.5-2.5 2.5m-511 3c0 2.444-.452 3.5-1.5 3.5-.833 0-1.5.889-1.5 2s.667 2 1.5 2c1.229 0 1.5 1.73 1.5 9.566 0 11.488.802 13.434 5.535 13.434 3.95 0 5.091-3.341 1.465-4.29-1.815-.474-2-1.364-2-9.616 0-8.427.147-9.094 2-9.094 1.333 0 2-.667 2-2s-.667-2-2-2c-1.619 0-2-.667-2-3.5 0-3.067-.31-3.5-2.5-3.5s-2.5.433-2.5 3.5m577 1c0 2.444-.452 3.5-1.5 3.5-.833 0-1.5.889-1.5 2s.667 2 1.5 2c1.229 0 1.5 1.73 1.5 9.566 0 11.488.802 13.434 5.535 13.434 3.95 0 5.091-3.341 1.465-4.29-1.815-.474-2-1.364-2-9.616 0-8.427.147-9.094 2-9.094 1.333 0 2-.667 2-2s-.667-2-2-2c-1.619 0-2-.667-2-3.5 0-3.067-.31-3.5-2.5-3.5s-2.5.433-2.5 3.5m-2413.48 2.066c-1.923 1.003-3.105 1.178-3.333.494-.195-.583-1.216-1.06-2.27-1.06-1.82 0-1.917.935-1.917 18.5V370h2.5c2.385 0 2.5-.272 2.5-5.923v-5.924l2.859 1.427c7.953 3.967 15.145-2.636 15.137-13.895-.007-10.632-7.331-16.366-15.476-12.119m31.48-.857c-.825.304-2.287 1.238-3.25 2.076-1.576 1.373-1.75 1.36-1.75-.13 0-.988-.806-1.655-2-1.655-1.902 0-2 .667-2 13.57 0 13.5.012 13.567 2.25 13.25 2.094-.298 2.267-.874 2.502-8.32.352-11.178.698-12.172 4.751-13.637 2.615-.946 3.497-1.844 3.497-3.564 0-2.263-1.042-2.677-4-1.59m13.03.57c-6.859 3.471-9.358 14.966-4.743 21.823 5.977 8.883 19.322 6.001 21.734-4.694 2.711-12.023-7.245-22.06-16.991-17.129m26.323.647c-3.899 2.378-5.753 7.555-5.109 14.265.882 9.18 8.004 14.403 15.415 11.307l3.555-1.485-.65 2.743c-1.362 5.755-7.72 8.088-11.564 4.244-2.036-2.036-6-2.75-6-1.082 0 8.174 16.901 9.628 21.163 1.822.749-1.371 1.39-8.159 1.652-17.49l.428-15.25h-2.538c-1.396 0-2.697.477-2.892 1.06-.228.684-1.41.509-3.333-.494-3.928-2.048-6.317-1.963-10.127.36m31.282.147c-2.184 1.718-2.635 1.803-2.635.5 0-.906-.848-1.573-2-1.573-1.901 0-2 .667-2 13.5 0 12.579.129 13.5 1.893 13.5 2.582 0 3.107-1.86 3.107-11.01 0-8.449.956-10.439 5.57-11.597 1.726-.433 2.43-1.303 2.43-3.001 0-3.041-2.731-3.178-6.365-.319m14.607-.631c-2.632 1.186-5.242 4.732-5.242 7.123 0 1.533 4.844.138 5.278-1.519 1.198-4.581 10.722-3.349 10.722 1.387 0 2.091-.584 2.568-3.75 3.062-10.825 1.691-13.25 3.398-13.25 9.328 0 6.774 8.701 10.04 15.274 5.733 2.215-1.451 2.549-1.461 3.074-.092.936 2.44 6.652 2.041 6.652-.464 0-1.111-.667-2-1.5-2-1.233 0-1.5-1.775-1.5-9.977 0-9.497-.118-10.054-2.462-11.59-3.473-2.275-9.456-2.721-13.296-.991m31.008.049c-1.788.777-3.25.984-3.25.461 0-.524-1.125-.952-2.5-.952H275v27h2.5c2.469 0 2.5-.103 2.5-8.453 0-9.618 1.258-13.323 4.826-14.218 4.834-1.213 5.649.431 5.958 12.027.282 10.571.301 10.644 2.75 10.644 2.454 0 2.466-.046 2.466-9.845 0-11.081 1.285-13.6 6.622-12.98 3.515.408 4.146 2.485 4.278 14.075.092 8.05.26 8.75 2.1 8.75 2.67 0 3.071-21.026.471-24.738-2.308-3.295-7.68-3.926-11.955-1.404-1.934 1.141-3.516 1.712-3.516 1.269 0-2.624-6.28-3.579-10.75-1.636m1572.78.788c-8.783 4.445-9.455 21.212-1.031 25.721 8.719 4.666 18.287-1.845 18.287-12.443 0-10.895-8.714-17.6-17.256-13.278m67.97.473c-10.047 5.018-9.107 22.546 1.394 26.008 6.736 2.22 15.574-2.317 15.602-8.01.009-1.778-4.377-.535-6.175 1.75-2.759 3.509-7.934 3.444-10.748-.135-3.784-4.81-3.016-5.365 7.427-5.365h9.5v-3.032c0-10.082-8.304-15.561-17-11.216m27.315-.341c-8.506 3.839-8.878 22.376-.517 25.773 7.116 2.891 16.202-1.146 16.202-7.2 0-2.771-3.614-2.583-5.115.266-4.04 7.672-12.052 3.849-12.052-5.75 0-8.817 7.603-13.343 11.759-7 1.978 3.018 5.408 3.371 5.408.556 0-5.819-9.035-9.646-15.685-6.645M706.06 335.698c-8.152 4.27-6.218 11.277 3.948 14.304 7.287 2.171 9.145 3.903 6.981 6.511-2.553 3.076-11.989 1.043-11.989-2.584 0-.511-.9-.929-2-.929-1.427 0-2 .667-2 2.326 0 7.126 13.775 9.848 19.186 3.791 5.043-5.643 2.906-10.184-5.983-12.708-6.487-1.843-8.544-3.356-7.667-5.641 1.304-3.399 10.464-2.617 10.464.893 0 .762 1.078 1.339 2.5 1.339 3.141 0 3.233-2.037.248-5.506-2.992-3.479-8.977-4.265-13.688-1.796m26.97-.419c-8.783 4.445-9.455 21.212-1.031 25.721 8.753 4.684 18.287-1.844 18.287-12.522 0-10.725-8.817-17.469-17.256-13.199m60.97-.57c-.825.304-2.288 1.238-3.25 2.076-1.576 1.373-1.75 1.36-1.75-.13 0-.988-.806-1.655-2-1.655-1.902 0-2 .667-2 13.57 0 13.5.012 13.567 2.25 13.25 2.094-.298 2.267-.874 2.502-8.32.352-11.178.698-12.172 4.751-13.637 2.615-.946 3.497-1.844 3.497-3.564 0-2.263-1.042-2.677-4-1.59m12.315.702c-8.19 3.697-8.938 21.509-1.081 25.714 6.406 3.428 16.766-.984 16.766-7.141 0-2.771-3.614-2.583-5.115.266-4.04 7.672-12.052 3.849-12.052-5.75 0-8.817 7.603-13.343 11.759-7 1.978 3.018 5.408 3.371 5.408.556 0-5.819-9.035-9.646-15.685-6.645m26.01.048c-8.791 3.824-9.897 19.844-1.739 25.189 6.531 4.279 18.414-.301 18.414-7.098 0-1.616-4.488-.199-6.179 1.95-3.166 4.025-9.254 3.407-11.671-1.184-2.116-4.021-1.545-4.316 8.35-4.316h9.5v-3.032c0-9.834-7.935-15.311-16.675-11.509M1906 350.5c0 15.833-.081 16.5-2 16.5-1.333 0-2 .667-2 2 0 2.819 6.463 2.872 7.965.066.594-1.11 1.035-8.993 1.035-18.5V334h-5v16.5m527.03-15.221c-8.783 4.445-9.455 21.212-1.031 25.721 8.719 4.666 18.287-1.845 18.287-12.443 0-10.895-8.714-17.6-17.256-13.278m67.97.473c-10.047 5.018-9.107 22.546 1.394 26.008 6.736 2.22 15.574-2.317 15.602-8.01.009-1.778-4.377-.535-6.175 1.75-2.759 3.509-7.934 3.444-10.748-.135-3.784-4.81-3.016-5.365 7.427-5.365h9.5v-3.032c0-10.082-8.304-15.561-17-11.216m27.315-.341c-8.204 3.703-8.937 21.51-1.059 25.726 6.492 3.475 16.744-.905 16.744-7.153 0-2.771-3.614-2.583-5.115.266-4.04 7.672-12.052 3.849-12.052-5.75 0-8.817 7.603-13.343 11.759-7 1.978 3.018 5.408 3.371 5.408.556 0-5.819-9.035-9.646-15.685-6.645M755.164 346.475c.298 10.179.58 11.719 2.5 13.636 2.666 2.662 9.12 2.915 12.803.502 2.209-1.447 2.533-1.464 2.533-.136 0 .856.875 1.523 2 1.523 1.901 0 2-.667 2-13.5V335h-2.5c-2.491 0-2.5.033-2.5 9.5 0 10.73-1.429 13.5-6.965 13.5-4.174 0-5.035-2.296-5.035-13.434V335h-5.172l.336 11.475m490.356-9.909c-1.923 1.003-3.105 1.178-3.333.494-.195-.583-1.216-1.06-2.27-1.06-1.82 0-1.917.935-1.917 18.5V373h2.5c2.385 0 2.5-.272 2.5-5.923v-5.924l2.859 1.427c7.953 3.967 15.145-2.636 15.137-13.895-.007-10.632-7.331-16.366-15.476-12.119m31.48-.857c-.825.304-2.287 1.238-3.25 2.076-1.576 1.373-1.75 1.36-1.75-.13 0-.988-.806-1.655-2-1.655-1.901 0-2 .667-2 13.5 0 12.579.129 13.5 1.893 13.5 2.582 0 3.107-1.86 3.107-11.01 0-8.449.956-10.439 5.57-11.597 1.726-.433 2.43-1.303 2.43-3.001 0-2.349-1.02-2.778-4-1.683m13.03.57c-8.783 4.445-9.455 21.212-1.031 25.721 8.719 4.666 18.287-1.845 18.287-12.443 0-10.895-8.714-17.6-17.256-13.278m26.323.647c-3.899 2.378-5.753 7.555-5.109 14.265.882 9.18 8.004 14.403 15.415 11.307l3.555-1.485-.65 2.743c-1.362 5.755-7.72 8.088-11.564 4.244-2.036-2.036-6-2.75-6-1.082 0 8.177 16.842 9.625 21.188 1.822.787-1.413 1.391-7.871 1.636-17.49l.39-15.25h-2.524c-1.388 0-2.682.477-2.877 1.06-.228.684-1.41.509-3.333-.494-3.928-2.048-6.317-1.963-10.127.36m33.647-1.217c-.825.304-2.287 1.238-3.25 2.076-1.576 1.373-1.75 1.36-1.75-.13 0-.988-.806-1.655-2-1.655-1.902 0-2 .667-2 13.57 0 13.5.012 13.567 2.25 13.25 2.094-.298 2.267-.874 2.502-8.32.352-11.178.698-12.172 4.751-13.637 2.615-.946 3.497-1.844 3.497-3.564 0-2.263-1.042-2.677-4-1.59m12.242.785c-2.639 1.147-5.242 4.658-5.242 7.071 0 1.533 4.844.138 5.278-1.519 1.198-4.581 10.722-3.349 10.722 1.387 0 2.091-.584 2.568-3.75 3.062-10.825 1.691-13.25 3.398-13.25 9.328 0 6.774 8.701 10.04 15.274 5.733 2.215-1.451 2.549-1.461 3.074-.092.936 2.44 6.652 2.041 6.652-.464 0-1.111-.667-2-1.5-2-1.223 0-1.5-1.674-1.5-9.066 0-10.368-.712-12.29-5.128-13.829-4.124-1.437-6.639-1.345-10.63.389m31.508.078c-1.593.864-2.75 1.058-2.75.46 0-.568-1.125-1.032-2.5-1.032h-2.5v27h2.406c2.36 0 2.413-.194 2.75-10.082.368-10.791 1.411-12.918 6.335-12.918 3.85 0 4.509 1.865 4.509 12.77 0 10.181.041 10.363 2.25 10.05 2.128-.303 2.266-.833 2.54-9.786.334-10.868 1.603-13.33 6.62-12.833 3.756.373 4.356 2.251 4.49 14.049.092 8.05.26 8.75 2.1 8.75 2.67 0 3.071-21.026.471-24.738-2.308-3.295-7.68-3.926-11.955-1.404-1.934 1.141-3.516 1.712-3.516 1.269 0-2.714-7.263-3.718-11.25-1.555M2483 351.5c0 15.833-.081 16.5-2 16.5-2.218 0-2.932 3.914-.75 4.115 7.223.666 7.75-.715 7.75-20.306V335h-5v16.5M182.944 336.652c-4.667 1.26-6.524 12.069-2.871 16.713 6.057 7.701 15.619-1.988 11.556-11.71-1.214-2.906-5.584-6.392-6.944-5.539-.102.064-.885.305-1.741.536m-48.613 2.966c-4.353 6.643-1.201 16.382 5.301 16.382 4.414 0 6.599-3.326 6.599-10.044 0-8.569-7.738-12.69-11.9-6.338m73.619-1.057C203.431 344.005 206.905 356 213 356c6.405 0 9.45-11.531 4.491-17.01-2.178-2.406-7.695-2.654-9.541-.429m1650.994-.909c-4.667 1.26-6.524 12.069-2.871 16.713 6.057 7.701 15.619-1.988 11.556-11.71-1.214-2.906-5.584-6.392-6.944-5.539-.102.064-.885.305-1.741.536m-1123 1c-4.667 1.26-6.524 12.069-2.871 16.713 6.057 7.701 15.619-1.988 11.556-11.71-1.214-2.906-5.584-6.392-6.944-5.539-.102.064-.885.305-1.741.536m1148.387 1.966c-2.363 3.606-2.289 11.666.132 14.341 2.565 2.835 7.936 2.737 9.98-.182 2.279-3.253 2.104-12.972-.272-15.122-2.888-2.614-7.812-2.132-9.84.963m39.742.017c-3.121 3.967-2.672 4.365 4.927 4.365 7.532 0 8.311-.684 5.443-4.777-2.278-3.253-7.656-3.039-10.37.412m509.85.288c-5.619 5.619-2.861 17.077 4.111 17.077 8.461 0 10.515-15.94 2.449-19.006-3.482-1.324-3.233-1.398-6.56 1.929m-1601.85.712C828.952 345.602 829.401 346 837 346c7.532 0 8.311-.684 5.443-4.777-2.278-3.253-7.656-3.039-10.37.412m460.871-1.983c-4.667 1.26-6.524 12.069-2.871 16.713 6.057 7.701 15.619-1.988 11.556-11.71-1.214-2.906-5.584-6.392-6.944-5.539-.102.064-.885.305-1.741.536m1168.387 1.966c-2.363 3.606-2.289 11.666.132 14.341 2.565 2.835 7.936 2.737 9.98-.182 2.279-3.253 2.104-12.972-.272-15.122-2.888-2.614-7.812-2.132-9.84.963m39.742.017c-3.121 3.967-2.672 4.365 4.927 4.365 7.532 0 8.311-.684 5.443-4.777-2.278-3.253-7.656-3.039-10.37.412m-1256.742.983c-4.353 6.643-1.201 16.382 5.301 16.382 4.391 0 6.468-3.177 6.521-9.975.067-8.646-7.624-12.814-11.822-6.407m73.619-1.057c-4.519 5.444-1.045 17.439 5.05 17.439 6.405 0 9.45-11.531 4.491-17.01-2.178-2.406-7.695-2.654-9.541-.429m-1061.793 6.434c-4.229 1-5.413 2.193-4.992 5.031.853 5.751 11.061 3.318 11.648-2.776.344-3.564-.258-3.768-6.656-2.255m1110 3c-4.229 1-5.413 2.193-4.992 5.031.853 5.751 11.061 3.318 11.648-2.776.344-3.564-.258-3.768-6.656-2.255M173.241 380.25c-5.391 6.713-8.651 19.568-7.214 28.447 1.247 7.701 6.593 18.303 9.23 18.303 1.192 0 1.742-.488 1.407-1.25-5.411-12.285-5.968-14.424-5.933-22.75.035-8.4.251-9.223 5.956-22.75.29-.687-.141-1.25-.958-1.25-.816 0-1.936.563-2.488 1.25m89.759-.793c0 .332 1.16 3.359 2.577 6.727 5.041 11.976 5.012 24.773-.078 34.818-2.991 5.903-3.002 5.998-.638 5.998 2.619 0 7.791-10.101 8.978-17.534 1.305-8.169-.179-16.577-4.229-23.966-2.703-4.933-6.61-8.505-6.61-6.043m-80 7.043c0 2.444-.452 3.5-1.5 3.5-.833 0-1.5.889-1.5 2s.667 2 1.5 2c1.229 0 1.5 1.73 1.5 9.566 0 11.488.802 13.434 5.535 13.434 3.95 0 5.091-3.341 1.465-4.29-1.815-.474-2-1.364-2-9.616 0-8.427.147-9.094 2-9.094 1.333 0 2-.667 2-2s-.667-2-2-2c-1.619 0-2-.667-2-3.5 0-3.067-.31-3.5-2.5-3.5s-2.5.433-2.5 3.5m68 0c0 2.444-.452 3.5-1.5 3.5-.833 0-1.5.889-1.5 2s.667 2 1.5 2c1.229 0 1.5 1.73 1.5 9.566 0 11.488.802 13.434 5.535 13.434 3.95 0 5.091-3.341 1.465-4.29-1.815-.474-2-1.364-2-9.616 0-8.427.147-9.094 2-9.094 1.333 0 2-.667 2-2s-.667-2-2-2c-1.619 0-2-.667-2-3.5 0-3.067-.31-3.5-2.5-3.5s-2.5.433-2.5 3.5m1032.241-2.25c-5.391 6.713-8.651 19.568-7.214 28.447 1.247 7.701 6.593 18.303 9.23 18.303 1.192 0 1.742-.488 1.407-1.25-5.411-12.285-5.968-14.424-5.933-22.75.035-8.4.251-9.223 5.956-22.75.29-.687-.141-1.25-.958-1.25-.816 0-1.936.563-2.488 1.25m90.291.908c.398 1.288 1.548 3.975 2.555 5.971 4.392 8.708 4.19 23.218-.466 33.387-3.131 6.839-3.093 6.484-.684 6.484 1.383 0 2.822-1.796 5.024-6.27 5.889-11.961 5.767-24.042-.356-35.23-3.338-6.101-7.55-9.112-6.073-4.342M1293 390.5c0 2.444-.452 3.5-1.5 3.5-.833 0-1.5.889-1.5 2s.667 2 1.5 2c1.229 0 1.5 1.73 1.5 9.566 0 11.488.802 13.434 5.535 13.434 3.95 0 5.091-3.341 1.465-4.29-1.815-.474-2-1.364-2-9.616 0-8.427.147-9.094 2-9.094 1.333 0 2-.667 2-2s-.667-2-2-2c-1.619 0-2-.667-2-3.5 0-3.067-.31-3.5-2.5-3.5s-2.5.433-2.5 3.5m68 0c0 2.444-.452 3.5-1.5 3.5-.833 0-1.5.889-1.5 2s.667 2 1.5 2c1.229 0 1.5 1.73 1.5 9.566 0 11.488.802 13.434 5.535 13.434 3.95 0 5.091-3.341 1.465-4.29-1.815-.474-2-1.364-2-9.616 0-8.427.147-9.094 2-9.094 1.333 0 2-.667 2-2s-.667-2-2-2c-1.619 0-2-.667-2-3.5 0-3.067-.31-3.5-2.5-3.5s-2.5.433-2.5 3.5m-1159 .252c-12.3 6.144-7.942 26.7 5.618 26.495 5.961-.09 11.382-4.232 11.382-8.697 0-1.616-4.488-.199-6.179 1.95-3.166 4.025-9.254 3.407-11.671-1.184-2.116-4.021-1.545-4.316 8.35-4.316h9.5v-3.032c0-10.082-8.304-15.561-17-11.216m22.517 1.998c.961 1.512 2.813 4.182 4.115 5.933 3.103 4.172 3.052 4.524-1.632 11.201-4.751 6.773-4.811 7.116-1.243 7.116 2.199 0 3.308-.912 5.476-4.5 1.495-2.475 3.07-4.5 3.5-4.5.43 0 2.005 2.025 3.5 4.5 2.279 3.773 3.216 4.5 5.801 4.5 3.458 0 3.569.405-2.27-8.286l-3.888-5.787 4.613-6.463 4.612-6.464h-3.036c-2.435 0-3.561.793-5.684 4-1.456 2.2-2.977 4-3.381 4-.404 0-1.925-1.8-3.381-4-2.143-3.238-3.238-4-5.748-4h-3.101l1.747 2.75m1593.003-1.184c-1.923 1.003-3.105 1.178-3.333.494-.195-.583-1.216-1.06-2.27-1.06-1.82 0-1.917.935-1.917 18.5V428h2.5c2.385 0 2.5-.272 2.5-5.923v-5.924l2.859 1.427c7.953 3.967 15.145-2.636 15.137-13.895-.007-10.632-7.331-16.366-15.476-12.119m31.48-.857c-.825.304-2.287 1.238-3.25 2.076-1.576 1.373-1.75 1.36-1.75-.13 0-.988-.806-1.655-2-1.655-1.902 0-2 .667-2 13.57 0 13.5.012 13.567 2.25 13.25 2.094-.298 2.267-.874 2.502-8.32.352-11.178.698-12.172 4.751-13.637 2.615-.946 3.497-1.844 3.497-3.564 0-2.263-1.042-2.677-4-1.59m12.03.57c-8.783 4.445-9.455 21.212-1.031 25.721 8.753 4.684 18.287-1.844 18.287-12.522 0-10.725-8.817-17.469-17.256-13.199m27.323.647c-3.899 2.378-5.753 7.555-5.109 14.265.882 9.18 8.004 14.403 15.415 11.307l3.555-1.485-.65 2.743c-1.362 5.755-7.72 8.088-11.564 4.244-2.036-2.036-6-2.75-6-1.082 0 8.174 16.901 9.628 21.163 1.822.749-1.371 1.39-8.159 1.652-17.49l.428-15.25h-2.538c-1.396 0-2.697.477-2.892 1.06-.228.684-1.41.509-3.333-.494-3.928-2.048-6.317-1.963-10.127.36m33.647-1.217c-.825.304-2.287 1.238-3.25 2.076-1.576 1.373-1.75 1.36-1.75-.13 0-.988-.806-1.655-2-1.655-1.902 0-2 .667-2 13.57 0 13.5.012 13.567 2.25 13.25 2.094-.298 2.267-.874 2.502-8.32.352-11.178.698-12.172 4.751-13.637 2.615-.946 3.497-1.844 3.497-3.564 0-2.263-1.042-2.677-4-1.59m12.242.785c-2.639 1.147-5.242 4.658-5.242 7.071 0 1.533 4.844.138 5.278-1.519 1.198-4.581 10.722-3.349 10.722 1.387 0 2.091-.584 2.568-3.75 3.062-10.825 1.691-13.25 3.398-13.25 9.328 0 6.774 8.701 10.04 15.274 5.733 2.215-1.451 2.549-1.461 3.074-.092.936 2.44 6.652 2.041 6.652-.464 0-1.111-.667-2-1.5-2-1.223 0-1.5-1.674-1.5-9.066 0-10.368-.712-12.29-5.128-13.829-4.124-1.437-6.639-1.345-10.63.389m31.008-.003c-1.787.777-3.25.984-3.25.461 0-.524-1.125-.952-2.5-.952h-2.5v27h2.406c2.36 0 2.413-.194 2.75-10.082.368-10.791 1.411-12.918 6.335-12.918 3.85 0 4.509 1.865 4.509 12.77 0 10.181.041 10.363 2.25 10.05 2.128-.303 2.266-.833 2.54-9.786.334-10.868 1.603-13.33 6.62-12.833 3.756.373 4.356 2.251 4.49 14.049.092 8.05.26 8.75 2.1 8.75 2.67 0 3.071-21.026.471-24.738-2.308-3.295-7.68-3.926-11.955-1.404-1.934 1.141-3.516 1.712-3.516 1.269 0-2.624-6.28-3.579-10.75-1.636m38.81.207c-8.152 4.27-6.218 11.277 3.948 14.304 7.287 2.171 9.145 3.903 6.981 6.511-2.553 3.076-11.989 1.043-11.989-2.584 0-.511-.93-.929-2.066-.929-1.649 0-2.003.536-1.75 2.651.83 6.958 13.784 9.307 19.018 3.449 5.027-5.626 2.879-10.17-5.999-12.691-7.813-2.22-9.469-3.91-6.342-6.474 3.121-2.558 4.724-2.441 7.73.565 4.92 4.92 8.653 2.221 4.157-3.006-2.992-3.479-8.977-4.265-13.688-1.796m-1313.54.868c-1.923 1.003-3.105 1.178-3.333.494-.195-.583-1.216-1.06-2.27-1.06-1.82 0-1.917.935-1.917 18.5V429h2.5c2.385 0 2.5-.272 2.5-5.923v-5.924l2.859 1.427c7.953 3.967 15.145-2.636 15.137-13.895-.007-10.632-7.331-16.366-15.476-12.119m30.48-.857c-.825.304-2.288 1.238-3.25 2.076-1.576 1.373-1.75 1.36-1.75-.13 0-.988-.806-1.655-2-1.655-1.902 0-2 .667-2 13.57 0 13.5.012 13.567 2.25 13.25 2.094-.298 2.267-.874 2.502-8.32.352-11.178.698-12.172 4.751-13.637 2.615-.946 3.497-1.844 3.497-3.564 0-2.263-1.042-2.677-4-1.59m13.03.57c-8.783 4.445-9.455 21.212-1.031 25.721 8.719 4.666 18.287-1.845 18.287-12.443 0-10.895-8.714-17.6-17.256-13.278m27.323.647c-3.899 2.378-5.753 7.555-5.109 14.265.882 9.18 8.004 14.403 15.415 11.307l3.555-1.485-.65 2.743c-1.362 5.755-7.72 8.088-11.564 4.244-2.294-2.294-6-2.671-6-.611 0 7.754 17.073 8.843 21.163 1.351.749-1.371 1.39-8.159 1.652-17.49l.428-15.25h-2.538c-1.396 0-2.697.477-2.892 1.06-.228.684-1.41.509-3.333-.494-3.928-2.048-6.317-1.963-10.127.36m31.282.147c-2.184 1.718-2.635 1.803-2.635.5 0-.906-.848-1.573-2-1.573-1.902 0-2 .667-2 13.57 0 13.5.012 13.567 2.25 13.25 2.094-.298 2.267-.874 2.502-8.32.352-11.178.698-12.172 4.751-13.637 2.615-.946 3.497-1.844 3.497-3.564 0-2.946-2.782-3.045-6.365-.226m14.607-.579c-2.639 1.147-5.242 4.658-5.242 7.071 0 1.533 4.844.138 5.278-1.519 1.198-4.581 10.722-3.349 10.722 1.387 0 2.091-.584 2.568-3.75 3.062-10.825 1.691-13.25 3.398-13.25 9.328 0 6.774 8.701 10.04 15.274 5.733 2.215-1.451 2.549-1.461 3.074-.092.936 2.44 6.652 2.041 6.652-.464 0-1.111-.667-2-1.5-2-1.223 0-1.5-1.674-1.5-9.066 0-10.368-.712-12.29-5.128-13.829-4.124-1.437-6.639-1.345-10.63.389m30.508.078c-1.593.864-2.75 1.058-2.75.46 0-.568-1.125-1.032-2.5-1.032H830v27h2.5c2.469 0 2.5-.103 2.5-8.453 0-9.618 1.258-13.323 4.826-14.218 4.84-1.215 5.649.426 5.958 12.093.277 10.412.346 10.699 2.5 10.393 2.085-.296 2.233-.873 2.506-9.781.334-10.868 1.603-13.33 6.62-12.833 3.756.373 4.356 2.251 4.49 14.049.092 8.05.26 8.75 2.1 8.75 2.67 0 3.071-21.026.471-24.738-2.308-3.295-7.68-3.926-11.955-1.404-1.934 1.141-3.516 1.712-3.516 1.269 0-2.714-7.263-3.718-11.25-1.555m1569.77-.006c-1.923 1.003-3.105 1.178-3.333.494-.195-.583-1.216-1.06-2.27-1.06-1.82 0-1.917.935-1.917 18.5V429h2.5c2.394 0 2.5-.259 2.5-6.122 0-5.275.204-5.954 1.471-4.902 4.041 3.354 12.451.816 14.984-4.522 5.988-12.62-3.246-26.462-13.935-20.888m30.48-.857c-.825.304-2.287 1.238-3.25 2.076-1.576 1.373-1.75 1.36-1.75-.13 0-.988-.806-1.655-2-1.655-1.902 0-2 .667-2 13.57 0 13.5.012 13.567 2.25 13.25 2.094-.298 2.267-.874 2.502-8.32.352-11.178.698-12.172 4.751-13.637 2.615-.946 3.497-1.844 3.497-3.564 0-2.263-1.042-2.677-4-1.59m13.03.57c-8.783 4.445-9.455 21.212-1.031 25.721 8.719 4.666 18.287-1.845 18.287-12.443 0-10.895-8.714-17.6-17.256-13.278m26.851.224c-5.963 3.241-7.807 16.08-3.2 22.288 2.98 4.017 8.479 5.587 12.978 3.707l3.555-1.485-.65 2.743c-1.352 5.714-9.13 8.512-11.796 4.244-1.242-1.988-5.768-2.837-5.768-1.082 0 8.174 16.901 9.628 21.163 1.822.749-1.371 1.39-8.159 1.652-17.49l.428-15.25h-2.538c-1.396 0-2.697.477-2.892 1.06-.228.684-1.41.509-3.333-.494-3.653-1.904-6.179-1.921-9.599-.063m31.754.57c-2.184 1.718-2.635 1.803-2.635.5 0-.906-.848-1.573-2-1.573-1.901 0-2 .667-2 13.5 0 12.579.129 13.5 1.893 13.5 2.582 0 3.107-1.86 3.107-11.01 0-8.449.956-10.439 5.57-11.597 1.726-.433 2.43-1.303 2.43-3.001 0-3.041-2.731-3.178-6.365-.319m14.607-.579c-2.639 1.147-5.242 4.658-5.242 7.071 0 1.533 4.844.138 5.278-1.519 1.198-4.581 10.722-3.349 10.722 1.387 0 2.091-.584 2.568-3.75 3.062-10.825 1.691-13.25 3.398-13.25 9.328 0 6.774 8.701 10.04 15.274 5.733 2.215-1.451 2.549-1.461 3.074-.092.936 2.44 6.652 2.041 6.652-.464 0-1.111-.667-2-1.5-2-1.223 0-1.5-1.674-1.5-9.066 0-10.368-.712-12.29-5.128-13.829-4.124-1.437-6.639-1.345-10.63.389m30.508.078c-1.593.864-2.75 1.058-2.75.46 0-.568-1.125-1.032-2.5-1.032h-2.5v27h2.5c2.469 0 2.5-.103 2.5-8.453 0-9.618 1.258-13.323 4.826-14.218 4.834-1.213 5.649.431 5.958 12.027.282 10.571.301 10.644 2.75 10.644 2.454 0 2.466-.046 2.466-9.845 0-11.081 1.285-13.6 6.622-12.98 3.515.408 4.146 2.485 4.278 14.075.092 8.05.26 8.75 2.1 8.75 2.67 0 3.071-21.026.471-24.738-2.308-3.295-7.68-3.926-11.955-1.404-1.934 1.141-3.516 1.712-3.516 1.269 0-2.714-7.263-3.718-11.25-1.555M1312 394.752c-12.3 6.144-7.942 26.7 5.618 26.495 5.961-.09 11.382-4.232 11.382-8.697 0-1.616-4.488-.199-6.179 1.95-3.166 4.025-9.254 3.407-11.671-1.184-2.116-4.021-1.545-4.316 8.35-4.316h9.5v-3.032c0-10.082-8.304-15.561-17-11.216m-1109.927 1.883C198.952 400.602 199.401 401 207 401c7.532 0 8.311-.684 5.443-4.777-2.278-3.253-7.656-3.039-10.37.412M1333.6 395.25c.395.688 2.221 3.335 4.059 5.884 4.181 5.799 4.178 5.851-.659 12.606-4.745 6.625-4.853 7.26-1.243 7.26 2.199 0 3.308-.912 5.476-4.5 3.355-5.555 3.598-5.555 7.109.002 2.326 3.682 3.38 4.498 5.809 4.498 3.328 0 3.439.385-2.387-8.286l-3.888-5.787 4.613-6.463 4.612-6.464h-3.036c-2.435 0-3.561.793-5.684 4-1.456 2.2-2.977 4-3.381 4-.404 0-1.925-1.8-3.381-4-2.125-3.211-3.248-4-5.692-4-2.152 0-2.835.366-2.327 1.25m530.344-.598c-4.667 1.26-6.524 12.069-2.871 16.713 6.057 7.701 15.619-1.988 11.556-11.71-1.214-2.906-5.584-6.392-6.944-5.539-.102.064-.885.305-1.741.536m-1127.208 1.04c-4.574 1.193-6.307 12.041-2.663 16.673 6.057 7.701 15.619-1.988 11.556-11.71-1.214-2.906-5.584-6.392-6.944-5.539-.102.064-.979.323-1.949.576m1079.595 1.926c-4.353 6.643-1.201 16.382 5.301 16.382 4.414 0 6.599-3.326 6.599-10.044 0-8.569-7.738-12.69-11.9-6.338m73.619-1.057c-4.519 5.444-1.045 17.439 5.05 17.439 6.405 0 9.45-11.531 4.491-17.01-2.178-2.406-7.695-2.654-9.541-.429m563.786-.869c-4.574 1.193-6.307 12.041-2.663 16.673 6.057 7.701 15.619-1.988 11.556-11.71-1.214-2.906-5.584-6.392-6.944-5.539-.102.064-.979.323-1.949.576m-1764.405 2.926c-4.353 6.643-1.201 16.382 5.301 16.382 4.414 0 6.599-3.326 6.599-10.044 0-8.569-7.738-12.69-11.9-6.338m73.226-.395C758.484 404.038 762.04 415 768 415c6.405 0 9.45-11.531 4.491-17.01-2.52-2.785-7.909-2.659-9.934.233m1643.774.395c-4.353 6.643-1.201 16.382 5.301 16.382 4.414 0 6.599-3.326 6.599-10.044 0-8.569-7.738-12.69-11.9-6.338m72.619-1.057c-4.519 5.444-1.045 17.439 5.05 17.439 6.405 0 9.45-11.531 4.491-17.01-2.178-2.406-7.695-2.654-9.541-.429m-1166.877 3.074c-3.121 3.967-2.672 4.365 4.927 4.365 7.532 0 8.311-.684 5.443-4.777-2.278-3.253-7.656-3.039-10.37.412m626.084 5.36c-4.229 1-5.413 2.193-4.992 5.031.853 5.751 11.061 3.318 11.648-2.776.344-3.564-.258-3.768-6.656-2.255m-1127 1c-4.229 1-5.413 2.193-4.992 5.031.853 5.751 11.061 3.318 11.648-2.776.344-3.564-.258-3.768-6.656-2.255m1717 0c-4.229 1-5.413 2.193-4.992 5.031.853 5.751 11.061 3.318 11.648-2.776.344-3.564-.258-3.768-6.656-2.255m-688.916 32.255c-5.391 6.713-8.651 19.568-7.214 28.447 1.247 7.701 6.593 18.303 9.23 18.303 1.192 0 1.742-.488 1.407-1.25-5.411-12.285-5.968-14.424-5.933-22.75.035-8.4.251-9.223 5.956-22.75.29-.687-.141-1.25-.958-1.25-.816 0-1.936.563-2.488 1.25m146.759-.852c0 .3 1.124 3.086 2.497 6.192 5.098 11.526 5.126 24 .08 35.022-3.082 6.732-3.047 6.388-.64 6.388 1.383 0 2.822-1.796 5.024-6.27 5.889-11.961 5.767-24.042-.356-35.23-2.668-4.876-6.605-8.513-6.605-6.102m430.241.852c-5.391 6.713-8.651 19.568-7.214 28.447 1.247 7.701 6.593 18.303 9.23 18.303 1.192 0 1.742-.488 1.407-1.25-5.411-12.285-5.968-14.424-5.933-22.75.035-8.4.251-9.223 5.956-22.75.29-.687-.141-1.25-.958-1.25-.816 0-1.936.563-2.488 1.25m147.291.908c.398 1.288 1.548 3.975 2.555 5.971 4.492 8.906 4.277 23.028-.51 33.483-3.082 6.732-3.047 6.388-.64 6.388 1.383 0 2.822-1.796 5.024-6.27 5.889-11.961 5.767-24.042-.356-35.23-3.338-6.101-7.55-9.112-6.073-4.342m-1835.291.092c-5.391 6.713-8.651 19.568-7.214 28.447 1.247 7.701 6.593 18.303 9.23 18.303 1.192 0 1.742-.488 1.407-1.25-5.411-12.285-5.968-14.424-5.933-22.75.035-8.4.251-9.223 5.956-22.75.29-.687-.141-1.25-.958-1.25-.816 0-1.936.563-2.488 1.25m90.215.399c8.078 20.002 8.061 26.525-.12 45.101-.336.763.217 1.25 1.418 1.25 1.374 0 2.896-1.743 5.05-5.784 6.03-11.313 5.959-24.491-.194-35.716-3.047-5.559-8.025-9.484-6.154-4.851M1848 457.5c0 17.565.097 18.5 1.917 18.5 1.054 0 2.106-.562 2.337-1.25.33-.979.775-.958 2.054.098 4.204 3.47 12.566 1.044 15.147-4.394 5.742-12.101-3.153-26.243-13.316-21.173l-3.139 1.566v-5.924c0-5.651-.115-5.923-2.5-5.923h-2.5v18.5m29-16c0 2 .5 2.5 2.5 2.5s2.5-.5 2.5-2.5-.5-2.5-2.5-2.5-2.5.5-2.5 2.5m548 16c0 17.565.097 18.5 1.917 18.5 1.054 0 2.106-.562 2.337-1.25.33-.979.775-.958 2.054.098 4.204 3.47 12.566 1.044 15.147-4.394 5.742-12.101-3.153-26.243-13.316-21.173l-3.139 1.566v-5.924c0-5.651-.115-5.923-2.5-5.923h-2.5v18.5m29-16c0 2 .5 2.5 2.5 2.5s2.5-.5 2.5-2.5-.5-2.5-2.5-2.5-2.5.5-2.5 2.5m-1716 5c0 2.444-.452 3.5-1.5 3.5-.833 0-1.5.889-1.5 2s.667 2 1.5 2c1.229 0 1.5 1.73 1.5 9.566 0 11.488.802 13.434 5.535 13.434 3.95 0 5.091-3.341 1.465-4.29-1.815-.474-2-1.364-2-9.616 0-8.427.147-9.094 2-9.094 1.333 0 2-.667 2-2s-.667-2-2-2c-1.619 0-2-.667-2-3.5 0-3.067-.31-3.5-2.5-3.5s-2.5.433-2.5 3.5m68 0c0 2.444-.452 3.5-1.5 3.5-.833 0-1.5.889-1.5 2s.667 2 1.5 2c1.229 0 1.5 1.73 1.5 9.566 0 11.488.802 13.434 5.535 13.434 3.95 0 5.091-3.341 1.465-4.29-1.815-.474-2-1.364-2-9.616 0-8.427.147-9.094 2-9.094 1.333 0 2-.667 2-2s-.667-2-2-2c-1.619 0-2-.667-2-3.5 0-3.067-.31-3.5-2.5-3.5s-2.5.433-2.5 3.5m1089.75 3.072c-1.593.864-2.75 1.058-2.75.46 0-.568-1.125-1.032-2.5-1.032h-2.5v27h2.406c2.36 0 2.413-.194 2.75-10.082.376-11.024 1.378-12.918 6.835-12.918 4.385 0 5.009 1.582 5.009 12.7V476h5v-11.066c0-12.406-.597-14.249-5.128-15.829-4.113-1.434-5.775-1.349-9.122.467m25.492-.078c-2.639 1.147-5.242 4.658-5.242 7.071 0 1.533 4.844.138 5.278-1.519 1.198-4.581 10.722-3.349 10.722 1.387 0 2.091-.584 2.568-3.75 3.062-10.825 1.691-13.25 3.398-13.25 9.328 0 6.774 8.701 10.04 15.274 5.733 2.215-1.451 2.549-1.461 3.074-.092.936 2.44 6.652 2.041 6.652-.464 0-1.111-.667-2-1.5-2-1.223 0-1.5-1.674-1.5-9.066 0-10.368-.712-12.29-5.128-13.829-4.124-1.437-6.639-1.345-10.63.389m31.393.579c-2.184 1.718-2.635 1.803-2.635.5 0-.906-.848-1.573-2-1.573-1.902 0-2 .667-2 13.57 0 13.5.012 13.567 2.25 13.25 2.094-.298 2.267-.874 2.502-8.32.352-11.178.698-12.172 4.751-13.637 2.615-.946 3.497-1.844 3.497-3.564 0-2.946-2.782-3.045-6.365-.226m520.615-.582c-1.787.777-3.25.984-3.25.461 0-.524-1.125-.952-2.5-.952h-2.5v27h2.5c2.472 0 2.5-.096 2.5-8.566 0-11.09 1.612-14.386 7.05-14.419 4.318-.026 4.95 1.594 4.95 12.685V476h5v-10.918c0-12.632-.266-13.651-4.072-15.619-3.478-1.799-5.489-1.793-9.678.028m24.992.003c-2.639 1.147-5.242 4.658-5.242 7.071 0 1.533 4.844.138 5.278-1.519 1.198-4.581 10.722-3.349 10.722 1.387 0 2.091-.584 2.568-3.75 3.062-10.825 1.691-13.25 3.398-13.25 9.328 0 6.774 8.701 10.04 15.274 5.733 2.215-1.451 2.549-1.461 3.074-.092.936 2.44 6.652 2.041 6.652-.464 0-1.111-.667-2-1.5-2-1.223 0-1.5-1.674-1.5-9.066 0-10.368-.712-12.29-5.128-13.829-4.124-1.437-6.639-1.345-10.63.389m31.492.5c-2.241 1.764-2.734 1.868-2.734.579 0-.906-.848-1.573-2-1.573-1.902 0-2 .667-2 13.57 0 13.5.012 13.567 2.25 13.25 2.094-.298 2.267-.874 2.502-8.32.332-10.545.727-11.942 3.771-13.329 4.568-2.081 5.08-1.515 9.425 10.42 4.711 12.943 4.565 17.409-.569 17.409-2.773 0-3.414 3.666-.815 4.663 4.92 1.888 7.372-1.773 15.092-22.539 6.273-16.873 5.997-15.334 2.672-14.94-2.41.285-2.974 1.217-5.75 9.496-1.693 5.049-3.325 9.421-3.627 9.716-.301.294-2.018-3.95-3.815-9.431-1.929-5.886-3.802-9.965-4.576-9.965-.721 0-2.611-.26-4.201-.578-2.075-.415-3.662.028-5.625 1.572M757 450.752c-10.047 5.018-9.107 22.546 1.394 26.008 6.736 2.22 15.574-2.317 15.602-8.01.009-1.778-4.377-.535-6.175 1.75-3.166 4.025-9.254 3.407-11.671-1.184-2.116-4.021-1.545-4.316 8.35-4.316h9.5v-3.032c0-10.082-8.304-15.561-17-11.216M1877 462.5V476h5v-27h-5v13.5m83-12.537c0 .529 2.061 6.649 4.581 13.598 5.088 14.036 5.04 18.439-.202 18.439-2.773 0-3.414 3.666-.815 4.663 4.92 1.888 7.372-1.773 15.092-22.539 6.273-16.873 5.997-15.334 2.672-14.94-2.41.285-2.974 1.217-5.75 9.496-1.693 5.049-3.325 9.421-3.627 9.716-.301.294-2.018-3.95-3.815-9.431-2.949-8.997-3.503-9.965-5.701-9.965-1.339 0-2.435.433-2.435.963m494 12.537V476h5v-27h-5v13.5M777.6 451.25c.395.688 2.221 3.335 4.059 5.884 4.181 5.799 4.178 5.851-.659 12.606-4.745 6.625-4.853 7.26-1.243 7.26 2.199 0 3.308-.912 5.476-4.5 1.495-2.475 3.07-4.5 3.5-4.5.43 0 2.005 2.025 3.5 4.5 2.279 3.773 3.216 4.5 5.801 4.5 3.458 0 3.569.405-2.27-8.286l-3.888-5.787 4.613-6.463 4.612-6.464-3.3.008c-2.799.006-3.648.614-5.581 4-2.83 4.956-3.317 4.955-6.601-.008-2.125-3.211-3.248-4-5.692-4-2.152 0-2.835.366-2.327 1.25m1076.731 4.368c-4.353 6.643-1.201 16.382 5.301 16.382 4.391 0 6.468-3.177 6.521-9.975.067-8.646-7.624-12.814-11.822-6.407m577.036-.056c-2.263 3.455-2.311 10.348-.094 13.732 2.325 3.548 7.84 3.811 10.17.483 2.279-3.253 2.104-12.972-.272-15.122-2.862-2.591-7.812-2.133-9.804.907m-1674.294 1.073C753.952 460.602 754.401 461 762 461c7.532 0 8.311-.684 5.443-4.777-2.278-3.253-7.656-3.039-10.37.412m1168.084 7.36c-4.229 1-5.413 2.193-4.992 5.031.853 5.751 11.061 3.318 11.648-2.776.344-3.564-.258-3.768-6.656-2.255m577 0c-4.229 1-5.413 2.193-4.992 5.031.853 5.751 11.061 3.318 11.648-2.776.344-3.564-.258-3.768-6.656-2.255" fill-rule="evenodd"/>
</svg>