<svg xmlns="http://www.w3.org/2000/svg" width="3328" height="725.333" viewBox="0 0 3328 725.333"><path d="M896.288 647.989c-5.583-9.758-7.692-21.831-5.498-31.464 1.926-8.45 6.722-18.349 9.846-20.32 3.814-2.405 3.85-.183.13 7.942-2.553 5.578-3.758 10.747-4.172 17.895-.56 9.667 1.033 16.69 7.032 31.001.685 1.633.365 2.334-1.066 2.334-1.125 0-3.947-3.325-6.272-7.388m114.698 6.215c0-.644 1.546-4.55 3.437-8.68 2.232-4.875 3.692-10.892 4.165-17.16.703-9.337-.835-16.163-6.91-30.654-.689-1.645-.362-2.333 1.109-2.333 3.07 0 9.176 11.325 11.105 20.594 2.55 12.258.01 24.37-7.641 36.406-1.874 2.949-5.265 4.126-5.265 1.827m1977.467-5.926c-4.996-8.734-7.371-19.22-6.334-27.974 1.345-11.36 10.433-27.806 13.61-24.628.346.345-.994 4.17-2.978 8.498-2.684 5.857-3.744 10.597-4.145 18.536-.527 10.432.613 15.369 7.002 30.333.7 1.641.39 2.334-1.048 2.334-1.125 0-3.873-3.195-6.107-7.1m154.533 4.525c0-1.646 1.072-2.728 2.973-3 6.047-.867 5.962-6.05-.395-23.96-3.214-9.057-6.053-15.416-6.308-14.133-.256 1.283-1.622 2.333-3.035 2.333-1.412 0-3.768 1.2-5.235 2.667-2.252 2.252-2.667 4.444-2.667 14.093 0 11.086-.089 11.413-3 11-2.905-.413-3.01-.941-3.301-16.76l-.302-16.333h3.302c1.816 0 3.301.614 3.301 1.364s1.399.448 3.108-.672c2.217-1.453 4.833-1.8 9.131-1.21l6.024.825 3.786 11.847c2.082 6.515 4.179 11.846 4.658 11.846s2.53-5.4 4.554-12c3.334-10.869 3.99-12 6.966-12 3.857 0 4.104-1.234-4.396 22-7.66 20.936-9.95 24.667-15.145 24.667-3.082 0-4.02-.6-4.02-2.574m29.333 1.5c0-.7 1.636-4.793 3.636-9.099 3.106-6.687 3.637-9.575 3.644-19.827.01-10.233-.539-13.249-3.713-20.478-2.047-4.663-3.413-8.787-3.035-9.165 1.702-1.702 4.785 1.345 7.97 7.878 4.717 9.674 6.338 19.174 4.841 28.37-1.44 8.85-8.033 22.548-11.147 23.159-1.208.237-2.196-.14-2.196-.839m-898.533-7.359c-4.996-8.733-7.37-19.22-6.334-27.973 1.345-11.361 10.433-27.806 13.61-24.629.346.346-.994 4.17-2.977 8.498-2.68 5.848-3.747 10.61-4.153 18.537-.545 10.646-.047 12.786 7.06 30.333.656 1.619.32 2.333-1.099 2.333-1.125 0-3.873-3.194-6.107-7.099m154.533 4.525c0-1.646 1.072-2.727 2.973-3 6.048-.866 5.962-6.048-.395-23.96-3.214-9.056-6.052-15.416-6.308-14.132-.256 1.283-1.621 2.333-3.034 2.333s-3.77 1.2-5.236 2.667c-2.252 2.251-2.667 4.444-2.667 14.092 0 11.087-.089 11.414-3 11-2.913-.413-3.005-.898-3.177-16.76l-.178-16.332h3.178c1.747 0 3.177.613 3.177 1.364 0 .75 1.399.448 3.108-.672 2.217-1.453 4.833-1.8 9.132-1.21l6.024.825 3.785 11.846c2.083 6.516 4.167 11.847 4.631 11.847s2.462-5.4 4.437-12c3.304-11.038 3.865-12 6.994-12 3.992 0 4.246-1.304-4.28 22-7.66 20.936-9.95 24.666-15.144 24.666-3.083 0-4.02-.6-4.02-2.574m29.333 1.402c0-.645 1.636-4.695 3.636-9 3.106-6.687 3.637-9.576 3.645-19.828.01-10.233-.54-13.248-3.714-20.478-2.047-4.662-3.413-8.786-3.035-9.164 2.944-2.944 10.504 10.048 12.73 21.875 2.077 11.038-.763 23.387-7.996 34.767-1.875 2.95-5.266 4.127-5.266 1.828m-1521.05-11.052c-8.477-2.342-12.615-16.775-7.594-26.486 3.707-7.168 13.032-9.893 20.549-6.006 4.255 2.2 5.38 4.271 6.73 12.383l.943 5.667H945.44c-10.754 0-11.789.225-11.789 2.571 0 6.965 9.542 9.428 15.42 3.98 2.915-2.702 7.247-3.443 7.247-1.24 0 .723-1.65 3.063-3.667 5.2-4.133 4.383-9.583 5.717-16.05 3.93m14.384-21.17c0-2.055-6.245-7.94-8.427-7.94-2.697 0-8.907 5.181-8.907 7.431 0 1.454 2.048 1.903 8.667 1.903 5.14 0 8.667-.567 8.667-1.394m2062 21.664c-1.467-.306-3.417-1.166-4.333-1.91-1.148-.931-1.667-.886-1.667.144 0 .823-1.2 1.496-2.667 1.496-2.562 0-2.667-.889-2.667-22.666s.105-22.667 2.667-22.667c2.347 0 2.667.889 2.667 7.409 0 7.39.01 7.404 2.963 5.333 3.711-2.6 8.075-2.641 12.941-.125 3.933 2.034 5.048 3.847 6.765 11.001 1.322 5.51-.805 15.488-3.898 18.287-2.928 2.65-9.156 4.453-12.771 3.698m9.647-9.742c2.808-5.446 2.095-12.907-1.587-16.588-3.894-3.894-6.091-4.088-10.045-.887-3.538 2.865-5.134 13.032-2.746 17.494 3.23 6.037 11.26 6.026 14.378-.02m68.353 9.827c-4.383-1.54-6.667-4.858-6.667-9.688 0-6.065 3.139-9.196 10.168-10.143 9.698-1.307 11.165-1.87 11.165-4.282 0-3.416-2.648-5.575-6.838-5.575-3.556 0-7.828 2.962-7.828 5.429 0 .68-1.2 1.238-2.667 1.238-2.892 0-3.46-2.694-1.384-6.572 3.071-5.739 16.062-6.911 21.55-1.945 2.062 1.866 2.5 4.2 2.5 13.295 0 8.028.545 11.576 2 13.031 1.1 1.1 2 2.643 2 3.429 0 2.009-7.656 1.79-8.337-.238-.436-1.3-1.266-1.324-3.777-.104-4.267 2.072-9.414 2.992-11.885 2.125m12.333-7.999c1.283-1.156 2.333-3.584 2.333-5.396 0-2.977-.4-3.213-4.166-2.46-2.292.459-4.949.834-5.905.834-1.95 0-5.929 3.578-5.929 5.333 0 .629.987 2.129 2.192 3.335 2.5 2.5 7.704 1.753 11.475-1.646m-2189.4 6.044c-1.015-1.015-1.6-6.133-1.6-14 0-10.133-.366-12.4-2-12.4-1.111 0-2-1.185-2-2.666 0-1.482.889-2.667 2-2.667 1.397 0 2-1.407 2-4.667 0-3.777.508-4.666 2.667-4.666 2.092 0 2.666.889 2.666 4.124 0 3.004.725 4.315 2.667 4.823 1.476.386 2.667 1.818 2.667 3.208 0 1.622-.944 2.511-2.667 2.511-2.447 0-2.667.89-2.667 10.792 0 9.67.277 10.864 2.667 11.489 1.476.386 2.667 1.818 2.667 3.208 0 1.862-.966 2.511-3.734 2.511-2.053 0-4.453-.72-5.333-1.6m46.4.488c0-.612 2.405-4.545 5.344-8.741l5.344-7.63-3.167-4.258c-1.743-2.342-4.216-5.909-5.498-7.925l-2.33-3.667h4.045c3.184 0 4.658.993 6.929 4.667 1.586 2.566 3.386 4.666 4 4.666s2.413-2.1 4-4.666c2.243-3.63 3.76-4.667 6.825-4.667h3.94l-5.503 8.104-5.503 8.104 5.454 7.775c3 4.276 5.453 8.129 5.453 8.562 0 .434-1.65.787-3.666.786-2.904 0-4.47-1.274-7.53-6.116l-3.862-6.114-3.806 6.116c-2.875 4.618-4.623 6.116-7.138 6.116-1.832 0-3.33-.5-3.33-1.112m37.6-.488c-1.015-1.015-1.6-6.133-1.6-14 0-10.133-.366-12.4-2-12.4-1.111 0-2-1.185-2-2.666 0-1.482.889-2.667 2-2.667 1.397 0 2-1.407 2-4.667 0-3.777.508-4.666 2.667-4.666 2.092 0 2.666.889 2.666 4.124 0 3.004.725 4.315 2.667 4.823 1.476.386 2.667 1.818 2.667 3.208 0 1.622-.944 2.511-2.667 2.511-2.447 0-2.667.89-2.667 10.792 0 9.67.277 10.864 2.667 11.489 1.476.386 2.667 1.818 2.667 3.208 0 1.862-.966 2.511-3.734 2.511-2.053 0-4.453-.72-5.333-1.6m1301.733.62c-1.466-.352-3.416-1.249-4.333-1.993-1.147-.931-1.666-.887-1.666.143 0 .824-1.2 1.497-2.667 1.497-2.562 0-2.667-.889-2.667-22.667 0-21.777.105-22.666 2.667-22.666 2.339 0 2.667.889 2.667 7.23v7.232l4.073-2.032c11.956-5.965 22.075 6.227 18.137 21.852-2.07 8.215-9.048 13.124-16.21 11.404m9.648-9.825c2.808-5.447 2.094-12.907-1.587-16.589-3.894-3.894-6.091-4.088-10.045-.886-3.538 2.865-5.134 13.032-2.746 17.494 3.23 6.036 11.26 6.026 14.378-.02m68.352 9.874c-4.436-1.663-6.666-4.92-6.666-9.735 0-6.065 3.139-9.197 10.168-10.144 9.698-1.307 11.165-1.87 11.165-4.282 0-3.416-2.648-5.574-6.838-5.574-3.556 0-7.828 2.962-7.828 5.428 0 .681-1.2 1.238-2.667 1.238-1.531 0-2.667-.889-2.667-2.087 0-8.77 15.496-13.069 22.913-6.357 1.967 1.78 2.42 4.258 2.42 13.222 0 8.028.545 11.576 2 13.032 1.1 1.1 2 2.643 2 3.428 0 1.959-5.755 1.807-7.766-.204-1.21-1.21-2.241-1.254-3.977-.17-3.112 1.944-9.762 3.14-12.257 2.205m12.334-8.046c1.283-1.156 2.333-3.585 2.333-5.396 0-2.977-.4-3.213-4.167-2.46-2.291.458-4.948.833-5.904.833-1.951 0-5.929 3.579-5.929 5.334 0 .628.986 2.129 2.192 3.334 2.5 2.5 7.703 1.754 11.475-1.645m647.667-7.69c0-15.777.142-16.666 2.666-16.666s2.667.889 2.667 16.667c0 15.777-.142 16.666-2.667 16.666s-2.666-.889-2.666-16.666m13.333 0c0-15.777.142-16.666 2.667-16.666 1.466 0 2.666.615 2.666 1.368 0 .783 1.68.499 3.934-.667 5.376-2.78 9.715-2.552 13.886.729 3.413 2.684 3.513 3.181 3.513 17.333 0 13.681-.162 14.57-2.666 14.57-2.467 0-2.667-.889-2.667-11.852 0-14.092-2.24-18.547-8.53-16.968-4.967 1.247-7.47 7.76-7.47 19.444 0 8.487-.253 9.376-2.667 9.376-2.524 0-2.666-.889-2.666-16.666m-728-1.333c0-15.777.142-16.666 2.667-16.666s2.666.889 2.666 16.666-.142 16.667-2.666 16.667-2.667-.889-2.667-16.667m13.333 0c0-15.777.142-16.666 2.667-16.666 1.467 0 2.667.615 2.667 1.367 0 .784 1.678.5 3.933-.666 5.376-2.78 9.715-2.553 13.887.729 3.412 2.684 3.513 3.181 3.513 17.333 0 13.681-.163 14.57-2.667 14.57-2.467 0-2.667-.889-2.667-11.852 0-14.092-2.239-18.547-8.53-16.968-4.967 1.247-7.47 7.76-7.47 19.444 0 8.487-.252 9.376-2.666 9.376-2.525 0-2.667-.889-2.667-16.667m701.333-24c0-2.444.712-3.333 2.667-3.333 1.956 0 2.667.889 2.667 3.333s-.711 3.334-2.667 3.334-2.667-.89-2.667-3.334m-714.666-1.333c0-2.444.71-3.333 2.666-3.333s2.667.889 2.667 3.333-.711 3.333-2.667 3.333-2.666-.889-2.666-3.333m-738.613-19.667c-4.885-8.548-7.286-19.36-6.248-28.126 1.34-11.315 10.435-27.744 13.604-24.575.346.346-.994 4.17-2.978 8.498-2.68 5.848-3.746 10.61-4.152 18.537-.545 10.646-.047 12.786 7.06 30.333.664 1.639.316 2.333-1.17 2.333-1.164 0-3.916-3.15-6.116-7m114.613 5.828c0-.645 1.636-4.695 3.635-9 3.106-6.687 3.637-9.576 3.645-19.828.01-10.173-.546-13.262-3.636-20.293-4.232-9.63-4.245-9.707-1.742-9.707 2.976 0 9.73 13.157 11.337 22.082 2.12 11.782-.467 23.106-7.974 34.918-1.874 2.95-5.265 4.127-5.265 1.828m-854.667-23.494c0-22.445.102-23.334 2.667-23.334 1.466 0 2.666.565 2.666 1.255s1.65.393 3.667-.659c4.654-2.427 7.512-2.422 12.238.022 5.778 2.988 8.577 11.98 6.544 21.027-1.542 6.863-4.016 9.786-9.936 11.74-3.584 1.183-5.313 1.078-8.506-.514l-4.007-2v7.899c0 7.009-.3 7.897-2.666 7.897-2.565 0-2.667-.888-2.667-23.333zm20.72.563c3.04-5.877 2.486-12.812-1.326-16.624-3.894-3.894-6.091-4.088-10.045-.887-3.538 2.865-5.134 13.032-2.747 17.494 3.3 6.164 10.935 6.173 14.118.017zm72.865 20.051c-1.605-1.495-2.918-3.595-2.918-4.666 0-2.546 4.54-2.51 6.666.052 2.178 2.623 9.912 2.565 12.572-.095 1.152-1.153 2.095-3.293 2.095-4.757 0-2.175-.547-2.473-3-1.633-11.667 4-19.667-3.433-19.667-18.272 0-6.004.556-7.399 4.534-11.376 5.131-5.132 10.267-5.892 15.42-2.283 2.278 1.596 3.366 1.79 3.74.667.291-.872 1.679-1.584 3.084-1.584 2.386 0 2.556 1.137 2.556 17.134 0 19.406-1.31 24.762-6.745 27.573-5.628 2.91-14.806 2.53-18.337-.76zm14.902-17.378c2.977-2.341 3.513-3.804 3.513-9.58 0-10.942-6.565-16.071-13.443-10.502-2.545 2.06-3.053 3.708-2.964 9.606.09 5.988.673 7.606 3.665 10.18 4.351 3.743 4.828 3.758 9.229.296m1287.513-4.57c0-22.444.102-23.333 2.667-23.333 1.466 0 2.666.564 2.666 1.254s1.65.394 3.667-.658c4.654-2.428 7.512-2.423 12.238.022 8.222 4.252 9.769 21.922 2.587 29.568-3.609 3.842-9.93 4.957-14.679 2.587l-3.813-1.902v7.898c0 7.01-.3 7.898-2.666 7.898-2.565 0-2.667-.889-2.667-23.333zm20.72.564c3.04-5.877 2.486-12.812-1.326-16.624-3.894-3.894-6.091-4.088-10.045-.887-3.538 2.865-5.134 13.032-2.746 17.494 3.298 6.164 10.934 6.173 14.117.017zm72.865 20.051c-1.605-1.495-2.918-3.595-2.918-4.667 0-2.546 4.54-2.51 6.666.052 2.178 2.624 9.912 2.565 12.572-.095 1.152-1.152 2.095-3.292 2.095-4.756 0-2.176-.547-2.474-3-1.633-11.667 3.999-19.667-3.433-19.667-18.273 0-6.004.556-7.398 4.534-11.376 5.131-5.131 10.267-5.892 15.42-2.282 2.278 1.596 3.366 1.79 3.74.666.291-.871 1.679-1.584 3.084-1.584 2.386 0 2.556 1.137 2.556 17.135 0 19.406-1.31 24.762-6.745 27.572-5.628 2.91-14.806 2.53-18.337-.759zm14.902-17.378c2.977-2.342 3.513-3.804 3.513-9.58 0-10.943-6.565-16.072-13.443-10.503-2.545 2.061-3.053 3.708-2.964 9.607.09 5.988.673 7.605 3.665 10.18 4.351 3.742 4.828 3.758 9.229.296m622.18-3.237c0-22.444.101-23.333 2.666-23.333 1.467 0 2.667.564 2.667 1.254s1.65.394 3.667-.658c4.647-2.425 7.511-2.423 12.211.01 3.363 1.739 4.833 4.108 7.306 11.776 1.267 3.927-1.796 15.109-4.927 17.982-4.074 3.739-10.143 4.735-14.59 2.393l-3.667-1.93v7.92c0 7.033-.3 7.922-2.667 7.922-2.565 0-2.666-.89-2.666-23.334zm20.72.564c3.039-5.877 2.486-12.812-1.326-16.624-3.894-3.894-6.092-4.088-10.045-.887-3.539 2.865-5.135 13.032-2.747 17.494 3.3 6.164 10.934 6.173 14.118.017zm72.864 20.051c-1.604-1.495-2.918-3.595-2.918-4.667 0-2.546 4.54-2.51 6.667.052 2.178 2.624 9.911 2.565 12.572-.095 1.152-1.152 2.095-3.292 2.095-4.756 0-2.176-.548-2.474-3-1.633-11.442 3.922-19.667-3.44-19.667-17.6 0-13.062 10.746-20.78 19.953-14.331 2.279 1.596 3.367 1.79 3.741.666.29-.871 1.678-1.584 3.084-1.584 2.386 0 2.555 1.137 2.555 17.135 0 19.406-1.31 24.762-6.745 27.572-5.628 2.91-14.806 2.53-18.337-.759zm14.903-17.378c2.977-2.342 3.513-3.804 3.513-9.58 0-10.942-6.566-16.072-13.442-10.503-2.503 2.026-3.071 3.786-3.071 9.514 0 6.013.53 7.484 3.664 10.18 4.466 3.842 4.921 3.861 9.336.389M209.706 575.043c-4.884-8.548-7.286-19.36-6.248-28.126 1.34-11.315 10.435-27.744 13.604-24.575.346.346-.994 4.17-2.977 8.498-2.68 5.848-3.747 10.61-4.153 18.537-.545 10.646-.047 12.786 7.06 30.333.664 1.639.316 2.333-1.17 2.333-1.164 0-3.916-3.15-6.116-7m114.613 5.926c0-.699 1.636-4.793 3.636-9.098 3.106-6.687 3.637-9.576 3.644-19.828.008-10.173-.545-13.262-3.635-20.293-4.246-9.662-4.254-9.707-1.672-9.707 3.081 0 9.675 12.882 11.264 22.006.984 5.656 1.018 10.469.106 15.279-1.65 8.699-8.196 21.9-11.147 22.48-1.208.237-2.196-.14-2.196-.84m1300.283-8.417c-8.49-2.475-12.605-16.862-7.594-26.552 3.707-7.168 13.032-9.893 20.55-6.006 4.254 2.2 5.379 4.27 6.729 12.383l.943 5.666h-11.789c-10.346 0-11.786.286-11.768 2.334.029 3.37 1.58 5.328 5.34 6.746 3.856 1.454 9.012-.095 10.145-3.048.85-2.216 7.161-2.85 7.161-.72 0 2.706-7.482 9.187-11.333 9.819-2.2.36-5.973.08-8.384-.622m14.384-21.236c0-2.056-6.245-7.94-8.426-7.94-2.698 0-8.908 5.18-8.908 7.43 0 1.454 2.048 1.904 8.667 1.904 5.14 0 8.667-.567 8.667-1.394m-726 20.639c-.734-.19-3.002-.714-5.042-1.164-5.236-1.157-8.948-7.827-8.948-16.081 0-11.923 7.057-19.109 17.18-17.494 16.047 2.56 17.756 29.667 2.143 33.979-2.2.607-4.6.95-5.333.76m7.058-8.38c4.406-5.618 3.445-16.267-1.778-19.689-10.68-6.998-19.248 12.745-9.021 20.79 3.825 3.008 7.902 2.593 10.799-1.1m78.275 8.16c-4.766-1.133-7.333-4.526-7.333-9.692 0-6.065 3.138-9.196 10.168-10.143 9.698-1.307 11.165-1.87 11.165-4.282 0-3.416-2.648-5.575-6.838-5.575-3.557 0-7.829 2.963-7.829 5.429 0 .68-1.2 1.238-2.666 1.238-1.532 0-2.667-.889-2.667-2.088 0-8.77 15.496-13.068 22.913-6.356 1.967 1.78 2.42 4.257 2.42 13.222 0 8.028.545 11.576 2 13.032 1.1 1.1 2 2.642 2 3.428 0 1.928-5.741 1.82-7.706-.144-1.176-1.176-2.338-1.197-4.6-.084q-6.356 3.128-11.027 2.015zm11.667-8.002c1.283-1.157 2.333-3.585 2.333-5.396 0-2.978-.4-3.214-4.167-2.46-2.291.458-4.948.833-5.904.833-1.951 0-5.929 3.578-5.929 5.333 0 .629.986 2.13 2.192 3.335 2.5 2.5 7.703 1.753 11.475-1.645m591.933 7.377c-1.015-1.015-1.6-6.133-1.6-14 0-10.133-.366-12.4-2-12.4-1.111 0-2-1.185-2-2.667s.889-2.666 2-2.666c1.397 0 2-1.408 2-4.667 0-3.778.508-4.667 2.667-4.667 2.092 0 2.666.89 2.666 4.125 0 3.004.725 4.315 2.667 4.822 1.476.386 2.667 1.819 2.667 3.209 0 1.622-.944 2.51-2.667 2.51-2.447 0-2.667.89-2.667 10.792 0 9.67.278 10.864 2.667 11.49 1.476.385 2.667 1.818 2.667 3.208 0 1.861-.966 2.51-3.734 2.51-2.053 0-4.453-.72-5.333-1.6m46.4.488c0-.612 2.405-4.546 5.344-8.742l5.344-7.629-3.167-4.258c-1.743-2.343-4.216-5.91-5.498-7.926l-2.33-3.666h4.045c3.184 0 4.658.992 6.929 4.666 1.586 2.567 3.386 4.667 4 4.667s2.413-2.1 4-4.667c2.243-3.63 3.76-4.666 6.825-4.666h3.94l-5.432 8-5.433 8 5.383 7.926c2.961 4.36 5.383 8.26 5.383 8.667s-1.65.739-3.666.738c-2.904 0-4.47-1.274-7.53-6.116l-3.862-6.114-3.806 6.116c-2.875 4.618-4.623 6.116-7.138 6.116-1.832 0-3.33-.5-3.33-1.112m37.6-.488c-1.012-1.012-1.6-6.099-1.6-13.845 0-11.131-.243-12.308-2.672-12.943-3.01-.787-2.326-4.945.815-4.945 1.234 0 1.857-1.567 1.857-4.667 0-3.778.508-4.667 2.667-4.667 2.092 0 2.666.89 2.666 4.125 0 3.004.725 4.315 2.667 4.822 1.476.386 2.667 1.819 2.667 3.209 0 1.622-.944 2.51-2.667 2.51-2.447 0-2.667.89-2.667 10.792 0 9.67.278 10.864 2.667 11.49 1.476.385 2.667 1.818 2.667 3.208 0 1.861-.966 2.51-3.734 2.51-2.053 0-4.453-.72-5.333-1.6m-806.098-.793c-.36-.583-.63-8.083-.6-16.667.056-15.553.067-15.607 3.244-15.607 1.753 0 3.187.634 3.187 1.41 0 .789 1.303.496 2.964-.667 4.542-3.182 7.703-2.666 7.703 1.257 0 2.445-.711 3.334-2.667 3.334-1.466 0-3.866 1.2-5.333 2.666-2.248 2.249-2.667 4.445-2.667 14 0 10.33-.229 11.334-2.588 11.334-1.423 0-2.882-.477-3.243-1.06m91.742-.693c-.37-.964-.501-8.314-.292-16.333.366-13.973.507-14.599 3.381-15.007 1.65-.234 3 .25 3 1.076 0 .94 1.106.726 2.964-.574 4.542-3.182 7.703-2.666 7.703 1.257 0 2.445-.711 3.334-2.667 3.334-1.466 0-3.866 1.2-5.333 2.666-2.248 2.249-2.667 4.445-2.667 14 0 10.503-.198 11.334-2.708 11.334-1.49 0-3.011-.789-3.381-1.753m55.423-14.914c0-15.778.142-16.667 2.666-16.667 1.467 0 2.667.616 2.667 1.368 0 .784 1.679.5 3.934-.667 4.98-2.575 8.04-2.57 11.735.018 2.637 1.847 3.326 1.847 6.897 0 4.752-2.457 6.878-2.551 11.367-.506 4.395 2.002 6.05 8.045 6.06 22.121.01 10.847-.04 11-3.326 11-3.32 0-3.334-.051-3.334-12.571 0-9.651-.486-13.059-2.095-14.667-2.716-2.716-3.51-2.648-7.725.668-3.33 2.62-3.513 3.388-3.513 14.76 0 11.677-.08 11.984-3 11.57-2.844-.404-3.02-1.098-3.38-13.302-.409-13.851-1.764-16.772-7.011-15.106-4.131 1.31-6.609 8.537-6.609 19.272 0 8.487-.253 9.376-2.667 9.376-2.524 0-2.666-.889-2.666-16.667zm1282 15.911c-.734-.19-3.002-.713-5.042-1.164-5.236-1.156-8.948-7.827-8.948-16.08 0-11.924 7.057-19.11 17.181-17.494 16.046 2.559 17.755 29.667 2.142 33.979-2.2.607-4.6.949-5.333.76m7.058-8.379c4.406-5.618 3.445-16.267-1.778-19.69-10.794-7.072-19.357 12.66-9.021 20.79 3.825 3.009 7.902 2.593 10.799-1.1m76.275 8.156c-4.383-1.54-6.667-4.858-6.667-9.688 0-6.065 3.14-9.196 10.168-10.143 9.699-1.307 11.166-1.87 11.166-4.282 0-3.416-2.648-5.575-6.838-5.575-3.557 0-7.829 2.962-7.829 5.429 0 .68-1.2 1.238-2.667 1.238-2.892 0-3.46-2.694-1.384-6.572 3.071-5.739 16.062-6.911 21.55-1.945 2.062 1.866 2.501 4.2 2.501 13.295 0 8.028.545 11.576 2 13.031 1.1 1.1 2 2.643 2 3.429 0 1.928-5.742 1.82-7.706-.145-1.168-1.167-2.354-1.194-4.6-.103-4.093 1.986-9.263 2.884-11.694 2.03m12.333-7.999c1.284-1.156 2.334-3.584 2.334-5.396 0-2.977-.4-3.213-4.167-2.46-2.292.459-4.949.834-5.905.834-1.95 0-5.928 3.578-5.928 5.333 0 .629.986 2.129 2.191 3.335 2.5 2.5 7.704 1.753 11.475-1.646m77.342 7.675c-5.56-1.316-7.892-3.307-8.676-7.405-.85-4.451 3.075-4.43 7.547.041 3.71 3.712 7.08 4.21 10.678 1.579 4.401-3.219 2.079-6.589-5.893-8.552-11.612-2.86-14.9-8.836-8.78-15.952 2.755-3.203 4.211-3.741 10.118-3.741 5.643 0 7.364.573 9.449 3.147 1.402 1.732 2.549 3.982 2.549 5 0 2.753-4.408 2.242-7.024-.814-3.813-4.453-12.395-2.892-11.438 2.081.32 1.662 2.905 3.152 8.181 4.718 9.588 2.847 11.614 4.49 11.614 9.425 0 4.167-5.106 10.443-8.497 10.443-1.073 0-2.75.237-3.727.527s-3.722.067-6.101-.496zm553.274-.235c-12.499-3.51-12.962-28.529-.615-33.27 13.01-4.996 24.916 8.874 20.065 23.375-2.788 8.333-10.693 12.354-19.45 9.895m11.442-7.597c4.407-5.618 3.446-16.267-1.777-19.69-10.794-7.072-19.357 12.66-9.022 20.79 3.825 3.009 7.902 2.593 10.8-1.1m76.276 8.203c-4.437-1.663-6.667-4.919-6.667-9.735 0-6.02 2.799-8.808 10-9.964 10.27-1.649 11.333-2.068 11.333-4.461 0-3.416-2.648-5.575-6.838-5.575-3.556 0-7.828 2.962-7.828 5.429 0 .68-1.2 1.238-2.667 1.238-4.898 0-2.947-7.097 2.762-10.05 5.366-2.775 12.265-2.433 16.392.813 3.294 2.592 3.513 3.457 3.513 13.905 0 8.125.541 11.683 2 13.141 1.1 1.1 2 2.643 2 3.429 0 1.958-5.756 1.806-7.767-.205-1.21-1.21-2.241-1.254-3.977-.17-3.112 1.944-9.762 3.14-12.256 2.205m12.333-8.046c1.283-1.156 2.333-3.584 2.333-5.396 0-2.977-.4-3.213-4.166-2.46-2.292.459-4.949.834-5.905.834-1.95 0-5.929 3.578-5.929 5.333 0 .629.987 2.129 2.192 3.335 2.5 2.5 7.704 1.753 11.475-1.646m-2885.384 6.153c-8.49-2.475-12.604-16.862-7.593-26.552 3.706-7.168 13.031-9.893 20.548-6.006 4.255 2.2 5.38 4.27 6.73 12.383l.943 5.666h-11.789c-10.754 0-11.788.226-11.788 2.572 0 6.965 9.541 9.427 15.419 3.98 2.915-2.703 7.247-3.443 7.247-1.24 0 2.706-7.481 9.187-11.333 9.819-2.2.36-5.973.08-8.384-.622m14.384-21.236c0-2.056-6.245-7.94-8.426-7.94-2.697 0-8.907 5.18-8.907 7.43 0 1.454 2.047 1.904 8.666 1.904 5.14 0 8.667-.567 8.667-1.394m2011.469 20.6c-.965-2.515-.854-26.852.134-29.428.806-2.1 5.73-2.417 5.73-.37 0 .79 1.303.498 2.964-.666 4.542-3.181 7.703-2.665 7.703 1.258 0 2.444-.711 3.333-2.667 3.333-1.466 0-3.866 1.2-5.333 2.667-2.248 2.248-2.667 4.444-2.667 14 0 10.23-.245 11.333-2.524 11.333-1.388 0-2.89-.957-3.34-2.127m92.176.458c-.353-.918-.705-8.418-.784-16.667l-.144-14.997h3.308c1.82 0 3.308.634 3.308 1.409 0 .79 1.303.497 2.964-.667 4.542-3.181 7.703-2.665 7.703 1.258 0 2.444-.711 3.333-2.667 3.333-1.466 0-3.866 1.2-5.333 2.667-2.248 2.248-2.667 4.444-2.667 14 0 10.23-.245 11.333-2.524 11.333-1.388 0-2.812-.75-3.164-1.67m55.022-14.997c0-15.778.142-16.667 2.666-16.667 1.467 0 2.667.615 2.667 1.368 0 .783 1.68.499 3.934-.667 4.964-2.567 8.04-2.571 11.687-.016 2.584 1.81 3.355 1.792 7.49-.18 4.447-2.12 8.774-1.908 12.652.622 2.558 1.668 4.169 10.048 4.205 21.873.031 10.142-.03 10.334-3.301 10.334-3.32 0-3.334-.051-3.334-12.572 0-9.65-.486-13.058-2.095-14.666-2.876-2.876-4.936-2.631-8.339.99-2.517 2.68-2.899 4.612-2.899 14.667 0 11.464-.034 11.58-3.333 11.58-3.33 0-3.334-.01-3.334-13.17 0-14.25-1.283-17.205-6.724-15.478-4.13 1.312-6.609 8.537-6.609 19.273 0 8.487-.253 9.376-2.667 9.376-2.524 0-2.666-.89-2.666-16.667zm583.647 13.666c-.542-2.528-.406-26.235.168-29.333.289-1.561 5.518-1.173 5.518.409 0 .79 1.302.497 2.963-.667 4.543-3.181 7.704-2.665 7.704 1.258 0 2.444-.711 3.333-2.667 3.333-1.467 0-3.867 1.2-5.333 2.667-2.249 2.248-2.667 4.444-2.667 14 0 10.228-.246 11.333-2.522 11.333-1.536 0-2.773-1.172-3.164-3m90.322 0c-.412-1.65-.573-9-.359-16.333.37-12.675.538-13.354 3.39-13.76 1.65-.234 3 .25 3 1.076 0 .941 1.106.727 2.963-.574 4.542-3.181 7.703-2.665 7.703 1.258 0 2.444-.71 3.333-2.666 3.333-1.467 0-3.867 1.2-5.334 2.667-2.248 2.248-2.666 4.444-2.666 14 0 10.408-.216 11.333-2.642 11.333-1.628 0-2.928-1.15-3.39-3m55.364-13.666c0-15.778.142-16.667 2.667-16.667 1.466 0 2.666.615 2.666 1.368 0 .783 1.68.499 3.934-.667 4.964-2.567 8.04-2.571 11.687-.016 2.585 1.81 3.355 1.792 7.49-.18 4.447-2.12 8.774-1.908 12.653.622 2.557 1.668 4.168 10.048 4.205 21.873.03 10.142-.03 10.334-3.302 10.334-3.32 0-3.333-.051-3.333-12.572 0-9.65-.487-13.058-2.095-14.666-2.717-2.716-3.51-2.648-7.725.668-3.327 2.617-3.514 3.395-3.514 14.667 0 11.807-.027 11.903-3.333 11.903-3.33 0-3.333-.011-3.333-13.17 0-14.252-1.283-17.206-6.725-15.479-4.13 1.312-6.609 8.537-6.609 19.273 0 8.487-.252 9.376-2.666 9.376-2.525 0-2.667-.89-2.667-16.667zM227.252 567.11c-1.012-1.012-1.6-6.099-1.6-13.845 0-11.131-.242-12.308-2.672-12.943-3.01-.787-2.325-4.945.815-4.945 1.234 0 1.857-1.567 1.857-4.667 0-3.778.508-4.667 2.667-4.667 2.092 0 2.667.89 2.667 4.125 0 3.004.725 4.315 2.666 4.822 1.476.386 2.667 1.819 2.667 3.209 0 1.622-.944 2.51-2.667 2.51-2.447 0-2.666.89-2.666 10.792 0 9.67.277 10.864 2.666 11.49 1.476.385 2.667 1.818 2.667 3.208 0 1.861-.966 2.51-3.733 2.51-2.054 0-4.454-.72-5.334-1.6m46.4.484c0-.614 2.432-4.513 5.404-8.663l5.404-7.547-3.227-4.337c-1.775-2.385-4.276-5.987-5.557-8.004l-2.33-3.666h4.044c3.184 0 4.658.992 6.93 4.666 1.585 2.567 3.385 4.667 4 4.667.613 0 2.413-2.1 4-4.667 2.243-3.63 3.758-4.666 6.824-4.666h3.941l-5.433 8-5.432 8 5.383 7.926c2.96 4.36 5.383 8.26 5.383 8.667s-1.65.739-3.667.738c-2.904 0-4.47-1.274-7.53-6.116l-3.862-6.114-3.806 6.116c-2.874 4.618-4.623 6.116-7.138 6.116-1.832 0-3.33-.502-3.33-1.116m37.6-.484c-1.015-1.015-1.6-6.133-1.6-14 0-10.133-.365-12.4-2-12.4-1.11 0-2-1.185-2-2.667s.89-2.666 2-2.666c1.397 0 2-1.408 2-4.667 0-3.778.508-4.667 2.667-4.667 2.092 0 2.667.89 2.667 4.125 0 3.004.725 4.315 2.666 4.822 1.476.386 2.667 1.819 2.667 3.209 0 1.622-.944 2.51-2.667 2.51-2.447 0-2.666.89-2.666 10.792 0 9.67.277 10.864 2.666 11.49 1.476.385 2.667 1.818 2.667 3.208 0 1.861-.966 2.51-3.733 2.51-2.054 0-4.454-.72-5.334-1.6m1221.067-75.067c0-22.444.102-23.333 2.667-23.333 1.466 0 2.666.564 2.666 1.254s1.65.394 3.667-.658c11.949-6.233 22.165 5.298 18.776 21.192-2.08 9.751-11.076 14.934-18.89 10.88l-3.553-1.843v7.92c0 7.033-.299 7.922-2.666 7.922-2.565 0-2.667-.89-2.667-23.334m21.055.528c2.555-4.74 1.205-14.553-2.404-17.475-1.62-1.312-3.713-2.386-4.65-2.386s-3.031 1.074-4.652 2.386c-3.538 2.865-5.134 13.032-2.746 17.494 3.23 6.035 11.194 6.025 14.452-.02zm72.53 20.087c-1.605-1.495-2.918-3.595-2.918-4.667 0-2.546 4.54-2.51 6.666.052 2.178 2.624 9.912 2.565 12.572-.095 1.152-1.152 2.095-3.292 2.095-4.756 0-2.176-.547-2.474-3-1.633-11.667 3.999-19.667-3.433-19.667-18.273 0-6.004.556-7.398 4.534-11.376 5.131-5.131 10.267-5.892 15.42-2.282 2.278 1.596 3.366 1.79 3.74.666.291-.871 1.679-1.584 3.084-1.584 2.386 0 2.556 1.137 2.556 17.135 0 19.406-1.31 24.762-6.745 27.572-5.628 2.91-14.806 2.53-18.337-.759zm14.902-17.378c2.977-2.342 3.513-3.804 3.513-9.58 0-10.943-6.565-16.072-13.443-10.503-2.545 2.061-3.053 3.708-2.964 9.607.09 5.988.673 7.605 3.665 10.18 4.351 3.742 4.828 3.758 9.229.296m712.846 14.919c0-1.39 1.191-2.823 2.667-3.209 2.518-.658 2.667-1.818 2.667-20.822 0-19.236.118-20.125 2.666-20.125 3.011 0 2.873-1.333 2.692 26-.096 14.49-.478 17.607-2.325 19-3.459 2.61-8.367 2.114-8.367-.844m714.667 0c0-1.39 1.19-2.823 2.667-3.209 2.518-.658 2.666-1.818 2.666-20.822 0-19.236.118-20.125 2.667-20.125 3.01 0 2.873-1.333 2.691 26-.096 14.49-.477 17.607-2.324 19-3.46 2.61-8.367 2.114-8.367-.844M157.652 488.043c0-22.444.102-23.333 2.667-23.333 1.467 0 2.667.564 2.667 1.254s1.65.394 3.666-.658c4.648-2.425 7.512-2.423 12.212.01 3.367 1.74 4.823 4.09 7.318 11.807 1.075 3.325-1.562 14.38-4.1 17.184-3.689 4.076-10.514 5.558-15.09 3.275l-4.006-1.999v7.898c0 7.009-.3 7.898-2.667 7.898-2.565 0-2.667-.89-2.667-23.334zm20.72.564c3.04-5.877 2.486-12.812-1.326-16.624-3.894-3.894-6.091-4.088-10.045-.887-3.538 2.865-5.134 13.032-2.746 17.494 3.299 6.164 10.934 6.173 14.117.017zm72.865 20.051c-1.605-1.495-2.918-3.595-2.918-4.667 0-2.546 4.54-2.51 6.667.052 2.177 2.624 9.91 2.565 12.571-.095 1.153-1.152 2.095-3.292 2.095-4.756 0-2.176-.547-2.474-3-1.633-11.667 3.999-19.666-3.433-19.666-18.273 0-6.004.555-7.398 4.533-11.376 5.132-5.131 10.267-5.892 15.42-2.282 2.279 1.596 3.367 1.79 3.741.666.29-.871 1.678-1.584 3.084-1.584 2.385 0 2.555 1.137 2.555 17.135 0 19.406-1.31 24.762-6.745 27.572-5.628 2.91-14.806 2.53-18.337-.759zm14.902-17.378c2.977-2.342 3.513-3.804 3.513-9.58 0-10.943-6.565-16.072-13.443-10.503-2.545 2.061-3.053 3.708-2.964 9.607.09 5.988.673 7.605 3.665 10.18 4.352 3.742 4.828 3.758 9.23.296m1330.463 10.559c-12.5-3.51-12.962-28.529-.616-33.27 13.01-4.996 24.917 8.874 20.065 23.375-2.787 8.333-10.692 12.354-19.45 9.895m11.442-7.597c4.406-5.618 3.445-16.267-1.777-19.69-10.682-6.998-19.25 12.746-9.022 20.79 3.825 3.009 7.902 2.593 10.799-1.1m76.275 8.203c-4.437-1.663-6.666-4.919-6.666-9.735 0-6.065 3.138-9.196 10.167-10.143 9.699-1.307 11.166-1.87 11.166-4.282 0-3.416-2.648-5.575-6.838-5.575-3.557 0-7.829 2.962-7.829 5.429 0 .68-1.2 1.238-2.666 1.238-1.532 0-2.667-.89-2.667-2.088 0-8.77 15.496-13.068 22.912-6.357 1.968 1.78 2.421 4.258 2.421 13.223 0 8.028.545 11.576 2 13.031 1.1 1.1 2 2.643 2 3.429 0 1.958-5.755 1.806-7.766-.205-1.21-1.21-2.242-1.254-3.978-.17-3.111 1.944-9.761 3.14-12.256 2.205m12.334-8.046c1.283-1.156 2.333-3.584 2.333-5.396 0-2.977-.4-3.213-4.167-2.46-2.291.459-4.949.834-5.905.834-1.95 0-5.928 3.578-5.928 5.333 0 .629.986 2.129 2.192 3.335 2.5 2.5 7.703 1.753 11.475-1.646m-128.943 6.405c-.421-.682-.647-8.182-.502-16.667.26-15.166.317-15.427 3.355-15.427 1.699 0 3.09.634 3.09 1.409 0 .79 1.302.497 2.963-.667 4.542-3.181 7.703-2.665 7.703 1.258 0 2.444-.711 3.333-2.667 3.333-1.466 0-3.866 1.2-5.333 2.667-2.248 2.248-2.667 4.444-2.667 14 0 10.33-.229 11.333-2.588 11.333-1.423 0-2.932-.558-3.354-1.24m92.212.24c-.305-.55-.685-8.05-.844-16.667l-.29-15.667h3.432c1.888 0 3.433.634 3.433 1.409 0 .79 1.302.497 2.963-.667 4.542-3.181 7.703-2.665 7.703 1.258 0 2.444-.711 3.333-2.667 3.333-1.466 0-3.866 1.2-5.333 2.667-2.248 2.248-2.667 4.444-2.667 14 0 10.33-.229 11.333-2.588 11.333-1.423 0-2.837-.45-3.142-1m55.064-15.667c0-15.778.142-16.667 2.667-16.667 1.466 0 2.666.615 2.666 1.368 0 .783 1.68.499 3.934-.667 4.98-2.576 8.04-2.571 11.736.018 2.636 1.847 3.325 1.847 6.897 0 4.75-2.457 6.877-2.552 11.366-.506 4.395 2.002 6.05 8.045 6.06 22.12.01 10.847-.04 11-3.326 11-3.32 0-3.333-.05-3.333-12.57 0-9.651-.487-13.059-2.096-14.667-2.876-2.876-4.936-2.631-8.339.99-2.52 2.684-2.899 4.61-2.899 14.76 0 11.343-.085 11.661-3 11.247-2.836-.403-3.022-1.117-3.413-13.093-.45-13.793-1.863-16.938-6.893-15.341-4.212 1.336-6.694 8.492-6.694 19.299 0 8.487-.253 9.376-2.666 9.376-2.525 0-2.667-.89-2.667-16.667zm-840.992 14.03c-5.56-1.316-7.892-3.307-8.676-7.404-.85-4.452 3.075-4.431 7.547.04 3.71 3.712 7.08 4.21 10.678 1.58 4.401-3.22 2.079-6.59-5.893-8.553-11.612-2.86-14.901-8.836-8.78-15.952 2.755-3.203 4.211-3.741 10.118-3.741 5.643 0 7.364.573 9.449 3.148 1.402 1.73 2.549 3.98 2.549 5 0 2.752-4.408 2.24-7.024-.815-3.813-4.453-12.395-2.891-11.438 2.082.32 1.66 2.905 3.151 8.181 4.718 9.588 2.846 11.614 4.49 11.614 9.424 0 4.167-5.106 10.443-8.497 10.443-1.073 0-2.75.237-3.727.528-.977.29-3.722.067-6.101-.497zm37.658.548c-.733-.19-3.002-.714-5.04-1.164-5.238-1.157-8.95-7.827-8.95-16.081 0-11.923 7.057-19.109 17.182-17.494 16.045 2.56 17.754 29.667 2.142 33.979-2.2.607-4.6.95-5.334.76m7.058-8.38c4.407-5.618 3.446-16.267-1.777-19.689-10.794-7.072-19.357 12.66-9.022 20.79 3.825 3.008 7.902 2.593 10.8-1.1m20.809 7.199c-2.274-.972-4.524-2.783-5-4.025-.477-1.241-.867-8.208-.867-15.481 0-13.217.002-13.225 3.334-13.225s3.333 0 3.333 13.287c0 11.532.324 13.46 2.451 14.598 1.348.721 3.772.966 5.387.544 4.625-1.21 6.829-7.136 6.829-18.362 0-9.178.235-10.067 2.666-10.067 2.525 0 2.667.89 2.667 16.667s-.142 16.667-2.667 16.667c-1.592 0-2.666-.89-2.666-2.207 0-1.985-.235-2.003-2.334-.18-3.532 3.07-8.534 3.75-13.133 1.784m58.99.532c-5.463-1.59-8.67-4.952-10.223-10.717-1.728-6.42.117-15.044 4.133-19.319 6.494-6.912 19.433-4.977 22.332 3.34 1.33 3.817 1.214 4.1-1.692 4.1-1.717 0-3.469-.905-3.893-2.012-.425-1.106-2.264-2.691-4.088-3.522-9.808-4.469-16.181 16.15-6.877 22.246 3.828 2.508 9.466.777 10.76-3.302.558-1.757 2.013-2.743 4.045-2.743 2.924 0 3.068.304 1.825 3.87-2.461 7.06-8.874 10.227-16.322 8.06m31.426-.087c-8.49-2.475-12.604-16.862-7.593-26.552 3.706-7.168 13.031-9.893 20.548-6.006 4.255 2.2 5.38 4.27 6.73 12.383l.943 5.666h-11.789c-10.346 0-11.786.286-11.768 2.334.03 3.37 1.58 5.328 5.34 6.746 3.857 1.454 9.012-.095 10.145-3.048.85-2.216 7.161-2.85 7.161-.72 0 2.706-7.481 9.187-11.333 9.82-2.2.36-5.973.08-8.384-.623m14.384-21.236c0-2.055-6.244-7.94-8.426-7.94-2.697 0-8.907 5.18-8.907 7.43 0 1.454 2.047 1.904 8.666 1.904 5.14 0 8.667-.567 8.667-1.394m1258 21.972c-.733-.19-3.002-.713-5.041-1.164-5.237-1.156-8.949-7.827-8.949-16.08 0-11.924 7.057-19.11 17.181-17.494 16.046 2.559 17.755 29.667 2.143 33.978-2.2.608-4.6.95-5.334.76m7.058-8.38c4.407-5.617 3.445-16.266-1.777-19.688-10.681-6.999-19.249 12.744-9.022 20.789 3.825 3.009 7.902 2.593 10.799-1.1m26.276 8.137c-1.467-.342-3.417-1.23-4.334-1.975-1.147-.931-1.666-.887-1.666.144 0 .823-1.2 1.496-2.667 1.496-2.562 0-2.667-.889-2.667-22.667 0-21.777.105-22.666 2.667-22.666 2.34 0 2.667.889 2.667 7.254v7.254l3.666-1.912c11.949-6.233 22.166 5.298 18.776 21.192-1.861 8.726-8.72 13.681-16.442 11.88m9.533-10.055c3.916-7.574-.299-19.613-6.867-19.613-3.921 0-7.604 4.826-8.283 10.857-.78 6.912 1.075 11.448 5.32 13.019 4.33 1.602 7.51.223 9.83-4.263m36.749 9.562c-8.49-2.475-12.604-16.862-7.593-26.552 3.706-7.168 13.031-9.893 20.548-6.006 4.255 2.2 5.38 4.27 6.73 12.383l.943 5.666h-11.789c-10.754 0-11.788.226-11.788 2.572 0 6.965 9.541 9.427 15.42 3.98 2.914-2.702 7.246-3.443 7.246-1.24 0 2.706-7.481 9.187-11.333 9.82-2.2.36-5.973.08-8.384-.623m14.384-21.236c0-2.055-6.244-7.94-8.426-7.94-2.697 0-8.907 5.18-8.907 7.43 0 1.454 2.048 1.904 8.667 1.904 5.14 0 8.666-.567 8.666-1.394m20.857 21.324c-5.464-1.59-8.67-4.952-10.223-10.718-1.728-6.42.116-15.043 4.133-19.318 6.494-6.913 19.432-4.978 22.332 3.339 1.33 3.818 1.214 4.1-1.692 4.1-1.717 0-3.469-.905-3.893-2.011-.425-1.106-2.265-2.692-4.089-3.523-9.807-4.468-16.18 16.15-6.876 22.247 3.827 2.507 9.465.777 10.76-3.303.558-1.756 2.012-2.743 4.045-2.743 2.924 0 3.068.305 1.825 3.87-2.462 7.061-8.874 10.227-16.322 8.06m599.81.648c-.733-.19-3.002-.713-5.042-1.164-5.236-1.156-8.948-7.827-8.948-16.08 0-11.924 7.057-19.11 17.181-17.494 16.046 2.559 17.755 29.667 2.142 33.978-2.2.608-4.6.95-5.333.76m7.058-8.38c4.406-5.617 3.445-16.266-1.777-19.688-10.682-6.999-19.25 12.744-9.022 20.789 3.825 3.009 7.902 2.593 10.799-1.1m26.275 8.137c-1.466-.342-3.416-1.23-4.333-1.975-1.147-.931-1.667-.886-1.667.144 0 .823-1.2 1.496-2.666 1.496-2.563 0-2.667-.889-2.667-22.667 0-21.777.104-22.666 2.667-22.666 2.34 0 2.666.889 2.666 7.254v7.254l3.667-1.912c11.949-6.233 22.165 5.298 18.775 21.192-1.86 8.726-8.719 13.681-16.442 11.88m9.533-10.055c3.917-7.574-.298-19.613-6.866-19.613-3.921 0-7.604 4.827-8.284 10.857-.779 6.912 1.075 11.448 5.321 13.019 4.33 1.602 7.51.223 9.83-4.263m36.75 9.562c-8.49-2.475-12.605-16.862-7.594-26.552 3.707-7.168 13.032-9.893 20.55-6.006 4.254 2.2 5.379 4.27 6.729 12.383l.943 5.666h-11.789c-10.754 0-11.788.226-11.788 2.572 0 6.965 9.54 9.427 15.419 3.98 2.915-2.702 7.247-3.443 7.247-1.24 0 2.706-7.482 9.187-11.333 9.82-2.2.36-5.973.08-8.384-.623m14.384-21.236c0-2.055-6.245-7.94-8.426-7.94-2.698 0-8.907 5.18-8.907 7.43 0 1.454 2.047 1.904 8.666 1.904 5.14 0 8.667-.567 8.667-1.394m20.857 21.324c-5.464-1.59-8.67-4.952-10.223-10.718-1.729-6.42.116-15.043 4.133-19.318 6.493-6.913 19.432-4.978 22.331 3.339 1.331 3.818 1.215 4.1-1.692 4.1-1.716 0-3.468-.905-3.893-2.011s-2.264-2.692-4.088-3.523c-9.808-4.468-16.18 16.15-6.876 22.247 3.827 2.507 9.465.777 10.76-3.303.557-1.756 2.012-2.743 4.045-2.743 2.924 0 3.068.305 1.825 3.87-2.462 7.061-8.874 10.227-16.322 8.06m-2905.524-.685c-.733-.19-3.002-.714-5.041-1.164-5.237-1.157-8.949-7.827-8.949-16.08 0-11.924 7.057-19.11 17.181-17.495 16.046 2.56 17.755 29.668 2.142 33.979-2.2.608-4.6.95-5.333.76m7.058-8.38c4.407-5.617 3.445-16.267-1.777-19.689-10.681-6.998-19.249 12.745-9.022 20.79 3.825 3.008 7.902 2.593 10.799-1.1m76.275 8.156c-4.383-1.539-6.666-4.857-6.666-9.688 0-6.065 3.138-9.196 10.168-10.143 9.698-1.307 11.165-1.87 11.165-4.282 0-3.416-2.648-5.575-6.838-5.575-3.557 0-7.829 2.963-7.829 5.429 0 .681-1.2 1.238-2.666 1.238-1.532 0-2.667-.889-2.667-2.088 0-8.769 15.496-13.068 22.913-6.356 1.967 1.78 2.42 4.258 2.42 13.222 0 8.028.545 11.576 2 13.032 1.1 1.1 2 2.643 2 3.428 0 1.928-5.741 1.82-7.706-.144-1.167-1.168-2.353-1.194-4.6-.104-4.092 1.987-9.263 2.885-11.694 2.031m12.334-7.998c1.283-1.157 2.333-3.585 2.333-5.396 0-2.978-.4-3.214-4.167-2.46-2.291.458-4.948.833-5.904.833-1.951 0-5.929 3.578-5.929 5.333 0 .629.986 2.13 2.192 3.335 2.5 2.5 7.703 1.754 11.475-1.645m647.106 4.644c-.374-2.384-.575-9.884-.447-16.667.225-11.898.34-12.333 3.287-12.333 1.68 0 3.054.634 3.054 1.409 0 .79 1.302.496 2.963-.667 4.542-3.181 7.703-2.665 7.703 1.258 0 2.444-.71 3.333-2.666 3.333-1.467 0-3.867 1.2-5.334 2.667-2.248 2.248-2.666 4.444-2.666 14 0 10.357-.225 11.333-2.607 11.333-1.911 0-2.787-1.154-3.287-4.333m1474.16 2.733c-1.015-1.015-1.6-6.133-1.6-14 0-10.133-.365-12.4-2-12.4-1.11 0-2-1.185-2-2.667s.89-2.666 2-2.666c1.397 0 2-1.408 2-4.667 0-3.778.508-4.667 2.667-4.667 2.092 0 2.667.89 2.667 4.125 0 3.004.725 4.315 2.667 4.822 1.475.386 2.666 1.82 2.666 3.209 0 1.622-.944 2.511-2.666 2.511-2.447 0-2.667.889-2.667 10.792 0 9.67.277 10.864 2.667 11.488 1.475.386 2.666 1.82 2.666 3.209 0 1.861-.966 2.511-3.733 2.511-2.053 0-4.453-.72-5.333-1.6m714.667 0c-1.015-1.015-1.6-6.133-1.6-14 0-10.133-.365-12.4-2-12.4-1.111 0-2-1.185-2-2.667s.889-2.666 2-2.666c1.397 0 2-1.408 2-4.667 0-3.778.508-4.667 2.667-4.667 2.092 0 2.667.89 2.667 4.125 0 3.004.724 4.315 2.666 4.822 1.476.386 2.667 1.82 2.667 3.209 0 1.622-.944 2.511-2.667 2.511-2.447 0-2.666.889-2.666 10.792 0 9.67.277 10.864 2.666 11.488 1.476.386 2.667 1.82 2.667 3.209 0 1.861-.966 2.511-3.733 2.511-2.054 0-4.454-.72-5.334-1.6m-2964.964-2.733c-.412-1.65-.573-9-.36-16.334.372-12.675.539-13.354 3.39-13.759 1.65-.234 3 .25 3 1.076 0 .94 1.107.727 2.964-.574 4.542-3.182 7.703-2.666 7.703 1.257 0 2.445-.71 3.334-2.666 3.334-1.467 0-3.867 1.2-5.334 2.666-2.248 2.249-2.666 4.445-2.666 14 0 10.409-.216 11.334-2.642 11.334-1.628 0-2.928-1.15-3.39-3m90.733 1.723c-.434-.702-.709-8.202-.61-16.666.178-15.303.198-15.39 3.377-15.39 1.759 0 3.197.634 3.197 1.408 0 .79 1.303.497 2.964-.666 4.542-3.182 7.703-2.666 7.703 1.257 0 2.445-.711 3.334-2.667 3.334-1.466 0-3.866 1.2-5.333 2.666-2.248 2.249-2.667 4.445-2.667 14 0 10.33-.229 11.334-2.588 11.334-1.423 0-2.943-.575-3.376-1.277m55.298-15.39c0-15.778.142-16.667 2.666-16.667 1.467 0 2.667.616 2.667 1.368 0 .784 1.679.5 3.934-.667 5.044-2.608 8.042-2.569 11.933.157 2.901 2.032 3.397 2.032 6.836 0 4.392-2.594 6.666-2.725 11.23-.645 4.395 2.002 6.05 8.045 6.06 22.12.007 10.847-.04 11-3.326 11-3.32 0-3.334-.05-3.334-12.57 0-9.651-.486-13.059-2.095-14.667-2.876-2.876-4.936-2.631-8.339.99-2.52 2.684-2.899 4.61-2.899 14.76 0 11.343-.085 11.661-3 11.247-2.843-.404-3.02-1.098-3.38-13.301-.409-13.852-1.764-16.772-7.011-15.107-4.131 1.312-6.609 8.537-6.609 19.273 0 8.487-.253 9.376-2.667 9.376-2.524 0-2.666-.89-2.666-16.667m2020-24c0-2.444.71-3.333 2.667-3.333 1.955 0 2.666.889 2.666 3.333s-.711 3.333-2.666 3.333-2.667-.888-2.667-3.333m714.667 0c0-2.444.71-3.333 2.666-3.333s2.667.889 2.667 3.333-.711 3.333-2.667 3.333-2.666-.888-2.666-3.333m-2591.719-8.839c-6.326-1.824-14.157-10.22-16.093-17.254-1.24-4.501-1.535-35.638-1.241-130.793l.386-124.886 4.018-5.78c2.348-3.38 6.481-7.028 9.949-8.782l5.931-3h276.349l5.876 3.103c3.232 1.706 7.677 5.657 9.877 8.78l4 5.677.384 61.22.384 61.22H952.37c105.721 0 170.616-.477 170.616-1.254 0-.69-.6-1.626-1.334-2.08-.733-.452-1.333-1.36-1.333-2.018s3.75.2 8.333 1.903 10.584 3.504 13.334 4l5 .903v-60.793c0-53.345.264-61.316 2.156-65.06 3.043-6.023 7.058-10.124 12.79-13.064 4.77-2.445 9.931-2.537 143.458-2.537h138.51l5.876 3.104c3.858 2.037 7.25 5.321 9.876 9.56l4 6.456.385 60.44.385 60.44h169.995c167.657 0 169.977-.035 168.616-2.579-2.15-4.016-1.766-4.157 4.286-1.576 3.117 1.33 8.912 3.191 12.879 4.137l7.212 1.72-10.546 3.202c-5.8 1.761-11.663 3.566-13.03 4.011-2.182.71-2.298.46-.953-2.053l1.532-2.862h-339.974l-.393 64.334-.393 64.333-3.236 5.648c-1.78 3.107-5.628 7.307-8.552 9.334l-5.317 3.685-138.114.396c-95.57.274-139.637-.045-143.055-1.036-6.656-1.929-12.918-7.437-15.887-13.972-2.265-4.987-2.45-10.193-2.477-69.839l-.029-64.45-5.667.946c-3.116.52-8.538 2.074-12.049 3.45-8.214 3.223-9.415 3.197-7.617-.162 1.423-2.66 1.014-2.667-169.239-2.667H781.75l-.382 65.22-.381 65.22-4 5.678c-2.2 3.123-6.645 7.074-9.877 8.78l-5.876 3.102-137.457-.12c-82.29-.072-139.217-.628-141.842-1.385m281.914-6.59c3.348-1.62 6.964-4.786 8.754-7.666l3.05-4.905V304.043c0-139.467.618-130.049-8.98-136.895l-4.353-3.105H622.75c-138.784 0-139.59.015-143.333 2.745-2.07 1.51-5.115 5.387-6.765 8.616l-3 5.871v245.537l3 5.949c2.192 4.346 4.604 6.757 8.95 8.949l5.949 3h135.296c134.117 0 135.347-.024 141-2.761m-154.825-35.844c-.475-.77.672-1.983 2.55-2.697 3.411-1.297 3.413-1.304 3.413-18.03s-.001-16.734-3.414-18.03c-6.012-2.287-2.27-3.677 9.995-3.716 10.917-.035 12.217.241 15.204 3.228 4.297 4.297 5.512 11.094 3.04 17.01-2.756 6.597-7.553 9.378-14.527 8.422l-5.632-.772.078 5.595c.065 4.757.527 5.661 3.076 6.032 1.65.24 2.768 1.14 2.485 2-.659 1.997-15.1 2.847-16.268.958m21.143-18.9c6.63-3.021 7.648-13.695 1.704-17.858-3.643-2.552-6.1-2.488-9.113.237-3.456 3.128-3.32 12.912.229 16.46 3.126 3.127 2.934 3.096 7.18 1.16m13.524 18.9c-.476-.77.671-1.983 2.549-2.697 3.412-1.297 3.413-1.304 3.413-18.03s0-16.734-3.413-18.03c-6.013-2.287-2.271-3.677 9.995-3.716 10.917-.035 12.217.241 15.204 3.228 9.809 9.81 2.171 27.27-11.147 25.483-5.501-.738-5.602-.636-5.602 5.701 0 4.858.275 5.334 3.075 5.334 1.626 0 2.55.69 2.228 1.666-.69 2.092-15.086 3.028-16.302 1.06m21.143-18.9c6.63-3.021 7.648-13.695 1.704-17.858-3.644-2.552-6.101-2.488-9.113.237-3.456 3.128-3.32 12.912.228 16.46 3.127 3.127 2.934 3.096 7.18 1.16m-105.641 7.475c-8.785-7.392-12.24-23.581-7.472-35.012 2.555-6.127 9.632-13.624 12.86-13.624 3.41 0 2.98 2.498-.965 5.601-5.188 4.08-9.01 12.743-9.01 20.417 0 7.677 2.75 13.842 8.434 18.907 7.268 6.475 3.62 9.994-3.847 3.71m124.707 2.5c-.476-.476 1.282-3.243 3.907-6.148s5.614-7.297 6.643-9.759c3.954-9.464.972-21.378-7.295-29.145-4.804-4.514-5.218-6.084-1.604-6.084 2.964 0 9.967 6.582 12.77 12.002 5.614 10.857 3.418 25.08-5.276 34.152-5.463 5.702-7.38 6.746-9.145 4.981m-98.913-6.017c-4.982-2.74-7.273-6.903-7.304-13.272-.037-7.783 3.536-12.601 10.795-14.556 6.727-1.811 14.509.336 14.509 4.003 0 3.176-3.374 4.4-5.4 1.96-1.836-2.213-7-2.514-10.548-.615-1.341.718-3.097 3.195-3.903 5.505-1.868 5.36.349 10.434 5.676 12.987 3.418 1.639 4.182 1.54 7.6-.988 4.728-3.495 6.575-3.557 6.575-.218 0 5.559-11.37 8.84-18 5.194m-94-79.119c0-22.444.101-23.333 2.666-23.333 1.467 0 2.667.564 2.667 1.254s1.65.394 3.667-.658c4.653-2.428 7.511-2.423 12.238.022 5.778 2.988 8.576 11.98 6.543 21.026-1.542 6.864-4.015 9.787-9.936 11.74-3.584 1.184-5.313 1.079-8.505-.514l-4.007-1.999v7.898c0 7.01-.3 7.898-2.667 7.898-2.565 0-2.666-.889-2.666-23.333zm20.866.28c3.917-7.573-.298-19.613-6.866-19.613-3.922 0-7.604 4.827-8.284 10.857-.779 6.912 1.075 11.448 5.321 13.02 4.33 1.6 7.51.222 9.83-4.263m47.8 10.298c-.733-.19-3.002-.713-5.041-1.164-5.237-1.156-8.949-7.827-8.949-16.08 0-11.924 7.057-19.11 17.182-17.494 16.045 2.559 17.754 29.667 2.142 33.979-2.2.607-4.6.949-5.334.76m7.058-8.379c4.407-5.618 3.446-16.267-1.777-19.69-10.794-7.072-19.357 12.66-9.022 20.79 3.825 3.009 7.902 2.593 10.8-1.1m22.97 7.675c-5.195-2.117-7.928-5.22-9.394-10.662-1.728-6.42.117-15.043 4.133-19.318 6.494-6.913 19.433-4.978 22.332 3.34 1.33 3.817 1.214 4.1-1.692 4.1-1.717 0-3.469-.906-3.893-2.012-.425-1.106-2.264-2.691-4.088-3.522-9.808-4.47-16.181 16.15-6.877 22.246 3.828 2.507 9.466.777 10.76-3.303.558-1.756 2.013-2.743 4.045-2.743 2.96 0 3.079.275 1.755 4.071-2.318 6.65-10.614 10.44-17.081 7.803m32.255-.099c-8.477-2.342-12.615-16.775-7.593-26.485 3.706-7.168 13.031-9.893 20.548-6.006 4.255 2.2 5.38 4.27 6.73 12.383l.943 5.666h-11.789c-10.754 0-11.788.226-11.788 2.572 0 6.965 9.541 9.427 15.419 3.98 2.915-2.703 7.247-3.443 7.247-1.24 0 .722-1.65 3.062-3.666 5.2-4.134 4.383-9.584 5.717-16.051 3.93m14.384-20.96c0-2.046-4.543-6.548-7.457-7.39-3.175-.916-9.876 3.61-9.876 6.672 0 1.453 2.047 1.903 8.666 1.903 4.767 0 8.667-.534 8.667-1.186m19.008 21.216c-5.56-1.317-7.892-3.307-8.675-7.405-.851-4.452 3.075-4.43 7.546.04 3.711 3.712 7.08 4.21 10.678 1.58 4.462-3.263 2.077-6.756-5.904-8.647-11.588-2.747-14.898-8.732-8.768-15.858 2.754-3.202 4.21-3.74 10.117-3.74 5.643 0 7.365.573 9.45 3.147 1.401 1.731 2.548 3.981 2.548 5 0 2.752-4.408 2.241-7.024-.814-3.813-4.454-12.395-2.892-11.437 2.08.32 1.662 2.904 3.153 8.18 4.719 9.589 2.846 11.614 4.49 11.614 9.424 0 4.167-5.106 10.443-8.497 10.443-1.073 0-2.75.238-3.727.528s-3.722.067-6.1-.497zm32 0c-5.56-1.317-7.892-3.307-8.675-7.405-.851-4.452 3.075-4.43 7.546.04 3.711 3.712 7.08 4.21 10.678 1.58 4.462-3.263 2.077-6.756-5.904-8.647-11.588-2.747-14.898-8.732-8.768-15.858 2.754-3.202 4.21-3.74 10.117-3.74 5.643 0 7.365.573 9.45 3.147 1.401 1.731 2.548 3.981 2.548 5 0 2.752-4.408 2.241-7.024-.814-3.813-4.454-12.395-2.892-11.437 2.08.32 1.662 2.904 3.153 8.18 4.719 9.589 2.846 11.614 4.49 11.614 9.424 0 4.167-5.106 10.443-8.497 10.443-1.073 0-2.75.238-3.727.528s-3.722.067-6.1-.497zm37.659.547c-.734-.19-3.002-.713-5.042-1.164-5.236-1.157-8.948-7.827-8.948-16.08 0-11.924 7.057-19.11 17.18-17.495 16.047 2.56 17.756 29.668 2.143 33.98-2.2.607-4.6.949-5.333.759m7.058-8.38c4.406-5.617 3.445-16.267-1.778-19.688-10.794-7.073-19.357 12.659-9.021 20.789 3.825 3.008 7.902 2.593 10.799-1.1m-205.35 6.135c-.317-.916-.531-8.266-.476-16.333.098-14.16.205-14.681 3.101-15.093 1.65-.234 3 .25 3 1.076 0 .94 1.106.727 2.963-.574 4.543-3.182 7.704-2.666 7.704 1.258 0 2.444-.711 3.333-2.667 3.333-1.467 0-3.867 1.2-5.333 2.667-2.249 2.248-2.667 4.444-2.667 14 0 10.23-.245 11.333-2.524 11.333-1.388 0-2.784-.75-3.1-1.667m221.121-.666c-.376-1.284-.566-8.634-.423-16.334.25-13.412.386-14.018 3.26-14.426 1.65-.234 3 .25 3 1.076 0 .94 1.106.727 2.964-.574 4.542-3.182 7.703-2.666 7.703 1.258 0 2.444-.711 3.333-2.667 3.333-1.466 0-3.866 1.2-5.333 2.667-2.248 2.248-2.667 4.444-2.667 14 0 10.312-.232 11.333-2.576 11.333-1.418 0-2.885-1.05-3.26-2.333m-107.213-69.825c-5.88-1.714-9.605-8.008-9.611-16.242-.008-10.834 6.176-18.267 15.2-18.267 7.974 0 12.677 4.76 14.16 14.334l.879 5.666H649.44c-10.346 0-11.786.286-11.768 2.334.03 3.37 1.58 5.328 5.34 6.746 3.856 1.454 9.012-.095 10.145-3.048.85-2.216 7.161-2.85 7.161-.72 0 2.706-7.482 9.187-11.333 9.819-2.2.36-5.973.08-8.384-.622m14.384-21.236c0-2.056-6.245-7.94-8.427-7.94-2.697 0-8.907 5.18-8.907 7.43 0 1.454 2.048 1.904 8.667 1.904 5.14 0 8.667-.567 8.667-1.394m-84-1.273V204.71h13.185c10.59 0 13.744.459 16.019 2.333 6.088 5.014 5.739 17.01-.616 21.174-1.915 1.254-7.304 2.472-12.63 2.853l-9.292.665v9.154c0 8.875-.101 9.154-3.333 9.154h-3.333zm24.087-4.047c1.78-.952 2.58-2.796 2.58-5.953 0-5.761-2.697-7.333-12.58-7.333h-7.42v14.667h7.42c4.082 0 8.582-.622 10-1.38m18.053 24.38c-.389-1.283-.64-8.783-.56-16.666.145-14.118.194-14.333 3.283-14.333 1.725 0 3.137.634 3.137 1.409 0 .79 1.302.496 2.963-.667 4.542-3.182 7.703-2.666 7.703 1.258 0 2.444-.71 3.333-2.666 3.333-1.467 0-3.867 1.2-5.334 2.667-2.248 2.248-2.666 4.444-2.666 14 0 10.312-.232 11.333-2.577 11.333-1.417 0-2.895-1.05-3.283-2.333m53.86-15.666c0-3.185.355-3.333 8-3.333s8 .148 8 3.333-.356 3.333-8 3.333-8-.148-8-3.333m780.903 209.21c2.07-1.533 5.114-4.772 6.764-7.197l3-4.407V304.38c0-140.783.674-131.486-9.99-137.735l-5.641-3.307-138.087.352c-137.114.35-138.114.371-141.77 3.1-2.024 1.513-4.918 4.407-6.43 6.432-2.732 3.659-2.75 4.492-2.75 130.82 0 126.235.02 127.164 2.745 130.902 1.51 2.07 5.41 5.125 8.665 6.789l5.92 3.024 136.905-.358c136.546-.356 136.914-.364 140.668-3.146m-207.364-82.575c-8.784-7.391-12.24-23.58-7.472-35.011 2.556-6.127 9.633-13.624 12.86-13.624 3.41 0 2.98 2.498-.964 5.6-3.85 3.029-7.868 10.418-9.055 16.656-1.244 6.532 2.436 16.909 7.785 21.955 7.66 7.225 4.854 11.162-3.154 4.424m124.707 2.5c-.476-.476 1.283-3.242 3.907-6.147s5.614-7.297 6.643-9.76c3.954-9.463.972-21.377-7.295-29.144-4.784-4.496-5.218-6.084-1.66-6.084 2.838 0 10.12 6.884 12.902 12.193 5.548 10.592 3.286 24.946-5.351 33.96-5.464 5.703-7.38 6.747-9.146 4.982m-98.913-6.016c-7.612-4.186-9.991-16.047-4.595-22.907 5.185-6.592 21.428-7.561 22.332-1.332.495 3.41-2.953 5.004-5.136 2.374-1.837-2.213-7-2.515-10.548-.616-1.342.718-3.098 3.196-3.903 5.505-1.869 5.361.348 10.434 5.675 12.988 3.419 1.638 4.182 1.539 7.6-.988 4.728-3.496 6.575-3.557 6.575-.219 0 5.56-11.37 8.84-18 5.195m34.667 0c-4.982-2.74-7.273-6.903-7.304-13.273-.038-7.782 3.536-12.6 10.795-14.555 6.794-1.83 14.509.333 14.509 4.067 0 3.578-2.46 4.576-5.19 2.106-4.841-4.382-12.335-1.99-14.66 4.68-1.87 5.36.348 10.433 5.675 12.987 3.418 1.638 4.182 1.539 7.6-.988 4.728-3.496 6.575-3.557 6.575-.219 0 5.56-11.37 8.84-18 5.195m30.9.67c-1.517-1.517 1.953-4.456 5.263-4.456 3.127 0 3.17-.18 3.17-13.38 0-13.135-.05-13.353-2.77-11.897-3.015 1.613-6.563.867-6.563-1.38 0-.775 1.416-1.947 3.146-2.605s4.34-2.835 5.798-4.837c4.622-6.345 5.722-3.252 5.722 16.09v17.832l3.656.422c2.204.254 3.83 1.348 4.097 2.755.392 2.063-.78 2.334-10.1 2.334-5.797 0-10.936-.395-11.419-.878m-14.234-79.79c0-22.444.102-23.332 2.667-23.332 1.467 0 2.667.564 2.667 1.254s1.65.393 3.666-.659c4.654-2.427 7.512-2.422 12.238.022 8.223 4.252 9.769 21.923 2.588 29.568-3.61 3.843-9.93 4.957-14.68 2.588l-3.812-1.902v7.898c0 7.009-.3 7.898-2.667 7.898-2.565 0-2.667-.89-2.667-23.334zm20.867.281c3.917-7.574-.298-19.613-6.866-19.613-3.922 0-7.604 4.826-8.284 10.857-.78 6.912 1.075 11.448 5.32 13.019 4.33 1.602 7.51.223 9.83-4.263m-142.867 9.171c-11.827-5.257-16.417-22.114-9.666-35.502 4.022-7.976 9.786-10.926 20.064-10.266 6.443.414 8.363 1.147 11.531 4.407 2.09 2.15 4.202 5.26 4.693 6.91.757 2.549.39 3-2.442 3-2.027 0-3.629-.932-4.088-2.378-.93-2.933-7.503-6.955-11.364-6.955-11.204 0-18.123 14.626-12.868 27.201 2.4 5.747 6.858 8.799 12.852 8.799 5.426 0 10.133-3.59 11.417-8.704.591-2.357 1.736-3.296 4.016-3.296 4.131 0 4.19 3.44.162 9.469-5.438 8.14-15.581 11.193-24.307 7.315m46.667 1.127c-.733-.19-3.002-.713-5.041-1.164-5.237-1.157-8.949-7.827-8.949-16.08 0-11.924 7.057-19.11 17.181-17.495 12.067 1.925 17.343 19.03 9.035 29.293-2.702 3.339-9.193 6.23-12.226 5.446m7.058-8.38c4.407-5.617 3.445-16.267-1.777-19.688-10.794-7.073-19.357 12.659-9.022 20.789 3.825 3.008 7.902 2.593 10.799-1.1m139.225 7.644c-8.49-2.475-12.605-16.862-7.594-26.552 3.707-7.168 13.032-9.893 20.55-6.006 4.254 2.2 5.379 4.27 6.729 12.383l.943 5.666h-11.789c-10.754 0-11.789.226-11.789 2.572 0 6.965 9.542 9.427 15.42 3.98 2.915-2.703 7.247-3.443 7.247-1.24 0 2.706-7.482 9.187-11.333 9.819-2.2.36-5.973.08-8.384-.622m14.384-21.236c0-2.056-6.245-7.94-8.426-7.94-2.698 0-8.908 5.18-8.908 7.43 0 1.454 2.048 1.904 8.667 1.904 5.14 0 8.667-.567 8.667-1.394m-138.667 4.727c0-15.778.142-16.666 2.667-16.666 1.466 0 2.666.615 2.666 1.367 0 .784 1.68.5 3.934-.667 4.964-2.566 8.04-2.57 11.687-.016 2.585 1.81 3.355 1.792 7.49-.18 4.447-2.12 8.774-1.908 12.653.623 2.557 1.668 4.168 10.047 4.205 21.873.03 10.142-.03 10.333-3.302 10.333-3.32 0-3.333-.05-3.333-12.571 0-9.65-.487-13.058-2.095-14.667-2.876-2.876-4.937-2.63-8.34.99-2.517 2.68-2.899 4.613-2.899 14.668 0 11.464-.034 11.58-3.333 11.58-3.33 0-3.333-.01-3.333-13.17 0-14.251-1.283-17.205-6.725-15.478-4.13 1.311-6.609 8.537-6.609 19.272 0 8.487-.252 9.376-2.666 9.376-2.525 0-2.667-.889-2.667-16.666zm88 0c0-15.778.142-16.666 2.667-16.666s2.666.888 2.666 16.666-.142 16.667-2.666 16.667-2.667-.889-2.667-16.667m14.667-6c0-21.778.104-22.666 2.666-22.666 2.563 0 2.667.888 2.667 22.666s-.104 22.667-2.667 22.667-2.666-.889-2.666-22.667m48.81 20.334c-.386-1.284-.674-8.784-.64-16.667.06-14.246.08-14.333 3.279-14.333 1.77 0 3.217.634 3.217 1.409 0 .79 1.303.496 2.964-.667 4.542-3.182 7.703-2.666 7.703 1.258 0 2.444-.711 3.333-2.667 3.333-1.466 0-3.866 1.2-5.333 2.667-2.248 2.248-2.667 4.444-2.667 14 0 10.312-.232 11.333-2.576 11.333-1.418 0-2.893-1.05-3.28-2.333m-63.477-39.667c0-2.445.711-3.333 2.667-3.333s2.666.888 2.666 3.333c0 2.444-.71 3.333-2.666 3.333s-2.667-.889-2.667-3.333m497.656 204.334c-5.835-1.87-14.485-11.508-16.265-18.122-1-3.715-1.334-43.395-1.084-129.121l.36-123.758 3.026-5.665c1.665-3.116 5.52-7.316 8.57-9.333l5.542-3.668 146.097-.385c80.354-.211 148.084-.028 150.511.409 4.938.887 14.087 8.495 17.007 14.143 1.623 3.139 1.914 22.919 1.914 130.346 0 86.24-.453 127.844-1.419 130.4-1.903 5.036-7.495 10.772-13.528 13.875-4.784 2.461-9.75 2.54-150.667 2.409-97.292-.091-147.164-.6-150.064-1.53m300.498-7.083c2.025-1.512 4.918-4.406 6.43-6.43 2.726-3.65 2.752-4.776 3.103-130.025l.353-126.343-3.02-4.437c-1.661-2.44-4.714-5.693-6.784-7.227-3.759-2.785-3.985-2.79-149.686-3.14-143.207-.344-146.018-.301-151.101 2.292-2.85 1.454-6.45 4.697-8.001 7.207l-2.82 4.564.352 127.39.353 127.39 4 4.25c7.83 8.317-1.455 7.872 157.57 7.551 144.716-.291 145.59-.31 149.25-3.042m-200.614-82.616c-8.785-7.391-12.24-23.58-7.472-35.011 2.555-6.127 9.632-13.624 12.86-13.624 3.41 0 2.98 2.498-.965 5.6-5.188 4.082-9.01 12.743-9.01 20.418 0 7.677 2.75 13.842 8.434 18.906 7.267 6.476 3.62 9.994-3.847 3.711m91.373 2.5c-.476-.476 1.283-3.242 3.907-6.147s5.614-7.297 6.643-9.76c3.954-9.463.972-21.377-7.295-29.144-4.804-4.514-5.218-6.084-1.604-6.084 2.964 0 9.968 6.582 12.77 12.001 5.615 10.858 3.418 25.08-5.275 34.153-5.464 5.702-7.38 6.746-9.146 4.98m-70.075-6.632c-1.954-1.369-2.838-3.408-2.838-6.548 0-5.607 4.01-8.65 12.686-9.628 6.41-.722 7.911-3.2 3.402-5.614-3.665-1.96-6.845-1.711-9.566.75-2.73 2.471-5.189 1.473-5.189-2.105 0-5.677 16.886-6.087 20.965-.51.982 1.343 1.702 6.13 1.702 11.314 0 8.29.231 9.019 2.986 9.412 1.643.234 3.168 1.379 3.39 2.544.344 1.807-1.442 2.137-12.149 2.245-9.13.092-13.325-.414-15.39-1.86m15.488-4.774c.92-.764 1.674-2.892 1.674-4.73 0-3.176-.274-3.296-5.6-2.444-6.105.976-9.067 2.786-9.067 5.542 0 4.243 8.553 5.317 12.993 1.632m16.996 5.815c-.913-.913-.82-6.232.154-8.768 1.151-3 2.445-2.65 6.986 1.89 4.608 4.609 7.976 5.026 12.3 1.524l3.059-2.476-3.244-2.062c-1.784-1.134-5.738-2.464-8.787-2.954-7.305-1.174-10.123-3.41-10.123-8.031 0-6.287 3.34-7.743 17.666-7.702 5.93.017 6.005.073 6.414 4.86.337 3.944-.036 4.842-2.012 4.842-1.335 0-3.176-1.2-4.092-2.667-1.945-3.114-9.794-3.698-12.115-.902-1.726 2.08.42 4.897 3.739 4.91 3.943.013 11.987 2.77 14.021 4.804 2.849 2.849 2.551 8.015-.645 11.212-2.277 2.277-4.228 2.65-12.679 2.433-5.493-.142-10.282-.553-10.642-.913m-100.314-69.513c-5.56-1.317-7.892-3.307-8.675-7.405-.851-4.452 3.075-4.43 7.546.04 3.711 3.712 7.08 4.21 10.678 1.58 4.401-3.22 2.08-6.59-5.893-8.553-11.612-2.86-14.9-8.835-8.78-15.952 2.755-3.202 4.211-3.74 10.118-3.74 5.643 0 7.365.573 9.45 3.147 1.401 1.731 2.548 3.981 2.548 5 0 2.752-4.408 2.241-7.024-.814-3.813-4.454-12.395-2.892-11.437 2.08.32 1.662 2.904 3.153 8.18 4.719 9.589 2.846 11.614 4.49 11.614 9.424 0 4.167-5.106 10.443-8.497 10.443-1.073 0-2.75.238-3.727.528s-3.722.067-6.1-.497zm32 0c-5.56-1.317-7.892-3.307-8.675-7.405-.851-4.452 3.075-4.43 7.546.04 3.711 3.712 7.08 4.21 10.678 1.58 4.401-3.22 2.08-6.59-5.893-8.553-11.612-2.86-14.9-8.835-8.78-15.952 2.755-3.202 4.211-3.74 10.118-3.74 5.643 0 7.365.573 9.45 3.147 1.401 1.731 2.548 3.981 2.548 5 0 2.752-4.408 2.241-7.024-.814-3.813-4.454-12.395-2.892-11.437 2.08.32 1.662 2.904 3.153 8.18 4.719 9.589 2.846 11.614 4.49 11.614 9.424 0 4.167-5.106 10.443-8.497 10.443-1.073 0-2.75.238-3.727.528s-3.722.067-6.1-.497zm31.941-.256c-8.477-2.342-12.615-16.775-7.593-26.485 3.706-7.168 13.032-9.893 20.549-6.006 4.254 2.2 5.38 4.27 6.73 12.383l.942 5.666h-11.788c-10.346 0-11.786.286-11.768 2.334.029 3.37 1.579 5.328 5.34 6.746 3.856 1.454 9.012-.095 10.145-3.048.85-2.216 7.16-2.85 7.16-.72 0 .722-1.65 3.062-3.666 5.2-4.133 4.383-9.584 5.717-16.05 3.93m14.384-21.17c0-2.055-6.244-7.938-8.426-7.938-2.697 0-8.907 5.18-8.907 7.43 0 1.453 2.048 1.903 8.667 1.903 5.14 0 8.666-.567 8.666-1.394m76.667 21.73c-1.467-.342-3.417-1.231-4.333-1.975-1.147-.931-1.667-.887-1.667.143 0 .823-1.2 1.497-2.667 1.497-2.562 0-2.666-.889-2.666-22.667s.104-22.666 2.666-22.666c2.34 0 2.667.888 2.667 7.254v7.254l3.667-1.913c11.949-6.233 22.165 5.299 18.775 21.192-1.86 8.727-8.719 13.682-16.442 11.88m9.533-10.055c3.917-7.574-.298-19.613-6.866-19.613-3.922 0-7.604 4.826-8.284 10.857-.779 6.912 1.075 11.448 5.321 13.019 4.33 1.602 7.51.223 9.83-4.263m36.75 9.562c-8.49-2.475-12.605-16.862-7.594-26.552 3.707-7.168 13.032-9.893 20.55-6.006 4.254 2.2 5.379 4.27 6.729 12.383l.943 5.666h-11.789c-10.754 0-11.789.226-11.789 2.572 0 6.965 9.542 9.427 15.42 3.98 2.915-2.703 7.247-3.443 7.247-1.24 0 2.706-7.482 9.187-11.333 9.819-2.2.36-5.973.08-8.384-.622m14.384-21.236c0-2.056-6.245-7.94-8.426-7.94-2.698 0-8.907 5.18-8.907 7.43 0 1.454 2.047 1.904 8.666 1.904 5.14 0 8.667-.567 8.667-1.394m-266.667 20.288c0-.906 11.874-33.333 15.367-41.966.695-1.717 2.115-2.29 4.963-2 3.863.392 4.218 1.04 11.173 20.405 3.951 11 7.534 21.095 7.962 22.434.646 2.02.143 2.36-2.952 2-3.16-.367-4.029-1.402-5.689-6.767l-1.959-6.333h-17.93l-2.398 6.666c-1.933 5.376-2.992 6.667-5.467 6.667-1.688 0-3.07-.498-3.07-1.106m25.333-19.393c0-1.574-2.18-8.609-4.806-15.501-.462-1.213-2.019 1.41-3.955 6.667-1.757 4.766-3.204 9.116-3.216 9.666s2.678 1 5.978 1c4.2 0 6-.55 6-1.832m117.334 3.832c0-15.778.142-16.666 2.666-16.666 1.467 0 2.667.615 2.667 1.367 0 .784 1.68.5 3.934-.667 4.964-2.566 8.04-2.57 11.687-.016 2.584 1.81 3.355 1.792 7.49-.18 4.447-2.12 8.774-1.908 12.652.623 2.558 1.668 4.169 10.047 4.205 21.873.031 10.142-.03 10.333-3.301 10.333-3.32 0-3.334-.05-3.334-12.571 0-9.65-.486-13.058-2.095-14.667-2.716-2.716-3.51-2.647-7.725.668-3.326 2.617-3.513 3.396-3.513 14.667 0 11.647-.068 11.903-3.173 11.903-3.11 0-3.177-.258-3.388-13-.236-14.182-1.583-17.313-6.745-15.675-4.212 1.337-6.694 8.493-6.694 19.3 0 8.486-.253 9.375-2.667 9.375-2.524 0-2.666-.889-2.666-16.666zm86.666-6c0-21.615.122-22.666 2.611-22.666 2.334 0 2.652 1.095 3 10.333.214 5.683.198 15.883-.035 22.667-.384 11.151-.671 12.333-3 12.333-2.444 0-2.575-1.157-2.575-22.667zm50.107 18.334c-.374-2.384-.576-9.884-.448-16.667.225-11.898.341-12.333 3.287-12.333 1.68 0 3.054.634 3.054 1.409 0 .79 1.303.496 2.964-.667 4.542-3.182 7.703-2.666 7.703 1.258 0 2.444-.711 3.333-2.667 3.333-1.466 0-3.866 1.2-5.333 2.667-2.248 2.248-2.667 4.444-2.667 14 0 10.356-.224 11.333-2.606 11.333-1.912 0-2.787-1.155-3.287-4.333m454.56 166.565c-6.757-2.644-10.688-5.963-14.081-11.887l-3.252-5.678V177.376l3.026-5.665c1.665-3.116 5.52-7.316 8.569-9.333l5.543-3.668 138.097-.397c95.557-.274 139.62.045 143.038 1.036 6.656 1.929 12.919 7.437 15.887 13.972 2.257 4.968 2.45 10.051 2.477 65.055l.03 59.667h170.046c167.707 0 170.028-.035 168.667-2.58-1.983-3.703-1.719-4.362 1.136-2.834 1.383.74 7.533 2.83 13.666 4.643s9.757 3.328 8.053 3.367-7.567 1.57-13.028 3.404c-11.94 4.008-11.652 3.989-9.874.667 1.424-2.66 1.014-2.667-168.62-2.667h-170.047v63.376c0 54.187-.3 64.092-2.063 68.315-2.753 6.589-6.815 10.81-13.27 13.789-5.08 2.344-11.878 2.458-142.667 2.39-101.81-.054-138.368-.478-141.333-1.638zm282.05-6.565c4.347-2.192 6.759-4.604 8.95-8.95l3-5.949V181.275l-3-5.872c-1.65-3.229-4.694-7.106-6.764-8.615-3.735-2.724-4.842-2.748-141.76-3.097-154.146-.393-144.006-.997-150.603 8.972l-3.223 4.87v126.48c0 116.165.186 126.761 2.242 129.922 2.765 4.25 5.28 6.368 10.439 8.792 3.356 1.576 25.789 1.887 139.384 1.93l135.384.052zm-190.51-80.365c-8.785-7.392-12.24-23.58-7.472-35.012 2.555-6.126 9.632-13.623 12.86-13.623 3.41 0 2.98 2.498-.965 5.6-3.85 3.029-7.867 10.418-9.055 16.655-1.243 6.532 2.437 16.91 7.786 21.955 7.66 7.225 4.853 11.163-3.154 4.425m90.04 2.5c-.476-.476 1.282-3.242 3.907-6.148s5.614-7.296 6.643-9.759c3.954-9.463.972-21.377-7.295-29.145-4.804-4.513-5.218-6.083-1.604-6.083 2.964 0 9.967 6.581 12.77 12.001 5.614 10.858 3.418 25.08-5.276 34.153-5.463 5.702-7.38 6.746-9.145 4.98m-72.913-6.326c0-2.15 2.84-3.476 7.442-3.476h3.225v-32h-5.334c-3.852 0-5.333-.556-5.333-2 0-1.556 1.778-2 8-2h8v36h4.503c4.381 0 8.363 2.69 6.596 4.456-.482.482-6.777.877-13.988.877-10.318 0-13.111-.395-13.111-1.857m39.203-1.25c-2.896-2.49-3.733-4.55-4.216-10.375-.555-6.693-.273-7.62 3.563-11.727 3.876-4.149 4.627-4.414 10.808-3.82 6.609.635 6.642.618 6.642-3.291 0-2.808-.761-4.128-2.667-4.627-1.466-.383-2.666-1.563-2.666-2.622 0-1.41 1.34-1.814 5-1.511l5 .414.371 17.589c.345 16.324.566 17.65 3.073 18.446 1.486.472 2.473 1.557 2.193 2.411-.663 2.02-10.304 2.88-10.304.92 0-1.03-.759-1.054-2.58-.08-4.32 2.312-10.377 1.576-14.217-1.728zm12.447-2.931c3.517-2.464 5.237-10.288 3.23-14.694-3.77-8.272-14.88-3.642-14.88 6.201 0 3.818.833 5.66 3.513 7.768 4.202 3.305 4.425 3.325 8.137.725m21.966-64.853c-8.477-2.342-12.615-16.775-7.594-26.486 3.707-7.167 13.032-9.893 20.55-6.005 4.254 2.2 5.379 4.27 6.729 12.382l.943 5.667h-11.789c-10.346 0-11.786.285-11.768 2.333.03 3.37 1.58 5.329 5.34 6.747 3.856 1.454 9.012-.095 10.145-3.048.85-2.216 7.161-2.85 7.161-.72 0 .722-1.65 3.062-3.666 5.2-4.134 4.382-9.584 5.717-16.051 3.93m14.384-21.17c0-2.055-6.245-7.939-8.426-7.939-2.698 0-8.907 5.18-8.907 7.43 0 1.454 2.047 1.904 8.666 1.904 5.14 0 8.667-.568 8.667-1.394m-137.778 20.506c-.489-.49-.889-10.69-.889-22.667v-21.778h6.596l.369 19.667.369 19.667 11.666.385c10.57.349 11.667.63 11.667 3 0 2.436-.985 2.615-14.445 2.615-7.944 0-14.844-.4-15.333-.89m35.111-15.778c0-15.778.142-16.667 2.667-16.667s2.667.89 2.667 16.667-.143 16.667-2.667 16.667-2.667-.89-2.667-16.667m13.334 0c0-15.778.142-16.667 2.666-16.667 1.467 0 2.667.616 2.667 1.368 0 .765 1.843.415 4.185-.797 4.76-2.461 10.95-1.767 14.727 1.652 2.056 1.86 2.421 4.373 2.421 16.65 0 13.572-.164 14.46-2.666 14.46-2.47 0-2.667-.888-2.667-12 0-10.222-.395-12.394-2.667-14.666-2.998-2.999-4.43-3.244-7.947-1.362s-5.386 8.435-5.386 18.894c0 8.246-.26 9.135-2.667 9.135-2.524 0-2.667-.89-2.667-16.667m34.666-6c0-21.778.105-22.667 2.667-22.667 2.469 0 2.667.89 2.667 12 0 6.6.475 12 1.055 12s3.706-2.7 6.945-6c4.39-4.473 6.908-6 9.894-6h4.005l-6.272 6.368-6.272 6.368 4.436 6.632c2.44 3.648 5.504 8.282 6.81 10.299l2.372 3.667h-4.057c-3.534 0-4.69-1.042-8.963-8.077-4.716-7.764-5.005-7.989-7.43-5.794-1.738 1.573-2.523 4.087-2.523 8.077 0 4.905-.41 5.794-2.667 5.794-2.562 0-2.667-.89-2.667-22.667m67.507 19.667c-1.05-3.921-1.074-25.505-.03-28.225.896-2.337 5.857-2.93 5.857-.7 0 .79 1.302.497 2.963-.666 4.542-3.182 7.703-2.666 7.703 1.257 0 2.445-.71 3.334-2.666 3.334-1.467 0-3.867 1.2-5.334 2.666-2.248 2.249-2.666 4.445-2.666 14 0 10.21-.25 11.334-2.512 11.334-1.477 0-2.842-1.236-3.315-3zm-115.507-39c0-2.445.711-3.334 2.667-3.334s2.667.89 2.667 3.334-.712 3.333-2.667 3.333c-1.956 0-2.667-.889-2.667-3.333m-925.333 195.426c0-1.646 1.072-2.728 2.973-3 1.814-.26 3.463-1.825 4.23-4.016 1.02-2.91.114-6.756-4.786-20.333l-6.044-16.744h3.563c3.313 0 3.83.84 7.397 12 2.11 6.6 4.23 12 4.711 12 .482 0 2.497-5.4 4.478-12 3.297-10.986 3.886-12 6.963-12 3.944 0 4.196-1.28-4.321 22-7.66 20.936-9.95 24.667-15.145 24.667-3.082 0-4.02-.6-4.02-2.574M1560.82 431.26c-4.657-1.35-6.436-3.138-7.517-7.551-1.026-4.193 3.223-4.006 7.562.333 3.71 3.711 7.08 4.21 10.678 1.578 4.401-3.218 2.079-6.588-5.893-8.552-11.612-2.86-14.9-8.835-8.78-15.952 2.755-3.202 4.211-3.74 10.118-3.74 5.643 0 7.365.573 9.449 3.147 1.402 1.731 2.549 3.981 2.549 5 0 2.752-4.408 2.241-7.024-.814-3.813-4.454-12.395-2.892-11.438 2.08.32 1.662 2.905 3.153 8.181 4.72 9.441 2.802 11.614 4.498 11.614 9.066 0 5.153-3.38 9.17-9.04 10.74-2.728.759-5.26 1.328-5.626 1.266s-2.542-.656-4.833-1.32m32 0c-4.657-1.35-6.436-3.138-7.517-7.551-1.026-4.193 3.223-4.006 7.562.333 3.71 3.711 7.08 4.21 10.678 1.578 4.401-3.218 2.079-6.588-5.893-8.552-11.612-2.86-14.9-8.835-8.78-15.952 2.755-3.202 4.211-3.74 10.118-3.74 5.643 0 7.365.573 9.449 3.147 1.402 1.731 2.549 3.981 2.549 5 0 2.752-4.408 2.241-7.024-.814-3.813-4.454-12.395-2.892-11.438 2.08.32 1.662 2.905 3.153 8.181 4.72 9.441 2.802 11.614 4.498 11.614 9.066 0 5.153-3.38 9.17-9.04 10.74-2.728.759-5.26 1.328-5.626 1.266s-2.542-.656-4.833-1.32m33.115-.043c-5.88-1.714-9.604-8.007-9.61-16.241-.01-10.835 6.175-18.267 15.199-18.267 7.975 0 12.678 4.76 14.161 14.333l.878 5.667h-11.789c-10.346 0-11.786.285-11.768 2.333.03 3.37 1.58 5.328 5.34 6.746 3.857 1.454 9.012-.095 10.145-3.047.85-2.217 7.162-2.851 7.162-.72 0 2.705-7.482 9.187-11.334 9.818-2.2.361-5.973.081-8.384-.622m14.384-21.236c0-2.055-6.244-7.94-8.426-7.94-2.697 0-8.907 5.181-8.907 7.431 0 1.454 2.048 1.903 8.667 1.903 5.14 0 8.666-.567 8.666-1.394m76.667 21.73c-1.467-.343-3.417-1.232-4.333-1.976-1.148-.931-1.667-.886-1.667.144 0 .823-1.2 1.496-2.667 1.496-2.562 0-2.666-.889-2.666-22.666s.104-22.667 2.666-22.667c2.34 0 2.667.889 2.667 7.254v7.254l3.667-1.912c11.948-6.233 22.165 5.298 18.775 21.192-1.861 8.726-8.719 13.681-16.442 11.88m9.722-9.808c2.555-4.74 1.205-14.553-2.404-17.475-1.621-1.312-3.714-2.386-4.651-2.386-.938 0-3.031 1.074-4.652 2.386-3.538 2.865-5.134 13.032-2.746 17.494 3.23 6.035 11.195 6.025 14.453-.02m-217.055 8.32c0-.634 2.458-7.684 5.464-15.667 3.005-7.983 6.66-17.698 8.124-21.59 2.474-6.583 2.938-7.046 6.663-6.666 3.896.398 4.212.99 11.876 22.289 4.33 12.034 7.873 22.123 7.873 22.421 0 .299-1.624.353-3.609.12-3.017-.352-3.93-1.46-5.567-6.755l-1.96-6.333h-17.93l-2.397 6.667c-1.933 5.375-2.992 6.666-5.468 6.666-1.688 0-3.07-.518-3.07-1.152m25.333-19.347c0-1.574-2.181-8.609-4.806-15.5-.462-1.214-2.02 1.41-3.956 6.666-1.757 4.767-3.204 9.117-3.216 9.667s2.678 1 5.978 1c4.2 0 6-.55 6-1.833m118.667 3.833c0-15.778.142-16.667 2.666-16.667 1.467 0 2.667.615 2.667 1.367 0 .784 1.679.5 3.934-.666 4.98-2.576 8.04-2.571 11.735.018 2.637 1.847 3.326 1.847 6.897 0 4.751-2.457 6.878-2.552 11.367-.506 4.395 2.002 6.05 8.045 6.06 22.12.01 10.847-.04 11-3.326 11-3.32 0-3.334-.05-3.334-12.57 0-9.652-.487-13.059-2.095-14.667-2.716-2.717-3.51-2.648-7.725.668-3.327 2.616-3.513 3.395-3.513 14.666 0 11.874-.01 11.904-3.403 11.904h-3.404l.304-12.719c.338-14.13-1.2-17.735-6.804-15.957-4.211 1.337-6.693 8.493-6.693 19.3 0 8.487-.253 9.376-2.667 9.376-2.524 0-2.666-.89-2.666-16.667zm86.666-6c0-21.575.125-22.667 2.597-22.667 3.107 0 3.634 5.223 2.991 29.667-.38 14.478-.608 15.666-3 15.666-2.46 0-2.588-1.117-2.588-22.666m-837.05 19.795c-12.5-3.51-12.963-28.528-.616-33.27 13.01-4.996 24.916 8.874 20.065 23.375-2.788 8.333-10.693 12.355-19.45 9.895m11.441-7.597c4.407-5.618 3.446-16.267-1.777-19.689-10.794-7.072-19.357 12.66-9.022 20.79 3.825 3.008 7.902 2.593 10.8-1.1m23.362 7.183c-2.336-1.016-5.186-3.662-6.333-5.881-2.473-4.782-2.737-15.947-.494-20.871 2.975-6.529 12.374-9.238 18.11-5.22 2.956 2.07 2.964 2.056 2.964-5.334 0-7.014.178-7.409 3.333-7.409h3.334v22.667c0 21.45-.138 22.667-2.556 22.667-1.405 0-2.767-.636-3.026-1.414-.304-.912-1.881-.678-4.445.659-4.779 2.492-5.453 2.5-10.887.136m10.974-6.654c2.525-2.524 3.273-4.673 3.273-9.394s-.748-6.87-3.273-9.394c-3.802-3.802-5.7-4.044-9.71-1.234-5.869 4.11-4.858 19.424 1.45 21.97 4.257 1.717 4.7 1.612 8.26-1.948m70.222 7.115c-5.88-1.714-9.604-8.008-9.61-16.242-.01-10.834 6.175-18.267 15.199-18.267 7.975 0 12.678 4.76 14.161 14.333l.878 5.667h-11.788c-10.754 0-11.789.226-11.789 2.571 0 6.965 9.541 9.428 15.42 3.98 2.915-2.702 7.247-3.442 7.247-1.239 0 2.705-7.482 9.187-11.334 9.819-2.2.36-5.972.08-8.384-.622m14.384-21.236c0-2.056-6.244-7.94-8.426-7.94-2.697 0-8.907 5.18-8.907 7.43 0 1.454 2.048 1.904 8.667 1.904 5.14 0 8.666-.568 8.666-1.394m20.283 21.222c-6.04-1.742-9.605-7.96-9.611-16.766-.01-8.566 2.067-13.353 6.855-15.83 4.773-2.467 9.154-2.407 12.843.177 2.956 2.07 2.964 2.056 2.964-5.334 0-7.014.177-7.409 3.333-7.409h3.333v22.667c0 21.548-.127 22.667-2.588 22.667-1.423 0-2.933-.56-3.355-1.243-.446-.721-2.297-.445-4.412.658-2.005 1.046-3.945 1.851-4.311 1.79-.367-.063-2.64-.682-5.051-1.377m11.092-8.291c3.207-4.58 2.522-13.762-1.314-17.598-3.802-3.802-5.7-4.044-9.71-1.234-3.717 2.602-5.066 9.752-3.015 15.967 2.44 7.395 9.812 8.9 14.039 2.865m1948.908 8.305c-5.88-1.714-9.604-8.008-9.61-16.242-.01-10.834 6.175-18.267 15.199-18.267 7.975 0 12.678 4.76 14.161 14.333l.878 5.667h-11.789c-10.754 0-11.788.226-11.788 2.571 0 6.965 9.541 9.428 15.42 3.98 2.914-2.702 7.247-3.442 7.247-1.239 0 2.705-7.482 9.187-11.334 9.819-2.2.36-5.973.08-8.384-.622m14.384-21.236c0-2.056-6.244-7.94-8.426-7.94-2.697 0-8.907 5.18-8.907 7.43 0 1.454 2.048 1.904 8.667 1.904 5.14 0 8.666-.568 8.666-1.394m20.028 21.268c-5.195-2.118-7.929-5.22-9.394-10.662-1.728-6.42.116-15.044 4.133-19.319 6.494-6.912 19.432-4.978 22.332 3.34 1.33 3.817 1.214 4.1-1.692 4.1-1.717 0-3.469-.905-3.893-2.012-.425-1.106-2.265-2.691-4.088-3.522-9.808-4.469-16.181 16.15-6.877 22.246 3.827 2.508 9.465.777 10.76-3.302.558-1.757 2.012-2.743 4.045-2.743 2.96 0 3.078.274 1.755 4.07-2.318 6.65-10.614 10.44-17.081 7.804m29.838-.477c-2.273-.972-4.523-2.783-5-4.025-.476-1.241-.866-8.208-.866-15.481 0-13.217 0-13.225 3.334-13.225 3.332 0 3.333 0 3.333 13.287 0 11.772.294 13.443 2.58 14.667 3.648 1.952 9.166-.445 10.777-4.683.72-1.895 1.31-7.905 1.31-13.358 0-9.024.239-9.913 2.666-9.913 2.525 0 2.667.89 2.667 16.667s-.142 16.667-2.667 16.667c-1.592 0-2.666-.89-2.666-2.207 0-1.985-.235-2.003-2.334-.18-3.533 3.07-8.535 3.75-13.134 1.784m51.468.957c-4.384-1.54-6.667-4.857-6.667-9.688 0-6.065 3.139-9.196 10.168-10.143 9.698-1.307 11.165-1.87 11.165-4.282 0-3.416-2.648-5.575-6.838-5.575-3.556 0-7.828 2.963-7.828 5.429 0 .68-1.2 1.238-2.667 1.238-4.898 0-2.947-7.097 2.762-10.05 5.366-2.774 12.265-2.432 16.391.813 3.295 2.592 3.514 3.457 3.514 13.905 0 8.126.54 11.683 2 13.141 1.1 1.1 2 2.643 2 3.429 0 1.928-5.742 1.82-7.707-.144-1.167-1.168-2.353-1.195-4.6-.104-4.092 1.986-9.263 2.884-11.693 2.03m12.333-7.998c1.283-1.157 2.333-3.585 2.333-5.396 0-2.978-.4-3.214-4.166-2.46-2.292.458-4.95.833-5.905.833-1.951 0-5.929 3.578-5.929 5.333 0 .629.986 2.13 2.192 3.335 2.5 2.5 7.704 1.753 11.475-1.645m29.667 7.997c-1.467-.352-3.417-1.25-4.334-1.993-1.147-.932-1.666-.887-1.666.143 0 .823-1.2 1.497-2.667 1.497-2.562 0-2.667-.89-2.667-22.667s.105-22.667 2.667-22.667c2.34 0 2.667.89 2.667 7.255v7.254l3.666-1.913c4.648-2.424 7.512-2.423 12.212.01 6.539 3.381 9.261 15.491 5.62 24.993-2.129 5.552-9.671 9.489-15.498 8.09zm9.533-10.073c3.916-7.574-.299-19.614-6.867-19.614-3.921 0-7.604 4.827-8.283 10.858-.78 6.912 1.075 11.448 5.32 13.018 4.33 1.602 7.51.223 9.83-4.262m35.416 9.562c-5.88-1.714-9.605-8.008-9.611-16.242-.01-10.834 6.176-18.267 15.2-18.267 7.975 0 12.677 4.76 14.16 14.333l.879 5.667h-11.789c-10.754 0-11.788.226-11.788 2.571 0 6.965 9.54 9.428 15.419 3.98 2.915-2.702 7.247-3.442 7.247-1.239 0 2.705-7.482 9.187-11.333 9.819-2.2.36-5.973.08-8.384-.622m14.384-21.236c0-2.056-6.245-7.94-8.426-7.94-2.698 0-8.907 5.18-8.907 7.43 0 1.454 2.047 1.904 8.666 1.904 5.14 0 8.667-.568 8.667-1.394m-2388-1.354v-22.747l5 .414 5 .414 6.106 17.906c3.359 9.849 6.428 17.349 6.82 16.667s3.245-8.89 6.338-18.24l5.623-17h9.113v45.334h-6.667l-.105-17-.105-17-5.665 16.666c-5.149 15.148-5.978 16.704-9.092 17.076-3.28.39-3.687-.356-9.458-17.334l-6.031-17.742-.105 17.667-.106 17.667h-6.666zm122.666 6.08c0-15.598.166-16.666 2.584-16.666 2.372 0 2.617 1.188 3 14.506.501 17.452.28 18.828-3.015 18.828-2.399 0-2.569-1.1-2.569-16.667m14.667 2.668c0-11.556-.35-14-2-14-1.111 0-2-1.186-2-2.667 0-1.482.889-2.667 2-2.667 1.394 0 2-1.404 2-4.636 0-5.078 4.469-9.316 8.92-8.459 3.527.68 3.598 4.236.114 5.764-4.067 1.784-4.037 6.522.044 7.1 3.977.565 3.383 4.733-.758 5.324-2.875.41-2.987.945-2.987 14.333 0 13.019-.17 13.908-2.666 13.908-2.498 0-2.667-.89-2.667-14m16-2.667c0-15.778.142-16.667 2.667-16.667s2.666.89 2.666 16.667-.142 16.667-2.666 16.667-2.667-.89-2.667-16.667m1264.283 15.175c-5.88-1.714-9.605-8.007-9.611-16.241-.01-10.835 6.176-18.267 15.2-18.267 7.975 0 12.677 4.76 14.16 14.333l.879 5.667h-11.789c-10.346 0-11.786.285-11.768 2.333.03 3.37 1.58 5.328 5.34 6.746 3.856 1.454 9.012-.095 10.145-3.047.85-2.217 7.161-2.851 7.161-.72 0 2.705-7.482 9.187-11.333 9.818-2.2.361-5.973.081-8.384-.622m14.384-21.236c0-2.055-6.245-7.94-8.426-7.94-2.698 0-8.907 5.181-8.907 7.431 0 1.454 2.047 1.903 8.666 1.903 5.14 0 8.667-.567 8.667-1.394m34.949 21.19c-12.5-3.511-12.962-28.529-.615-33.27 13.01-4.996 24.916 8.874 20.065 23.375-2.788 8.333-10.693 12.354-19.45 9.895m11.442-7.597c4.407-5.618 3.445-16.267-1.777-19.69-10.794-7.072-19.357 12.66-9.022 20.79 3.825 3.009 7.902 2.593 10.799-1.1m22.97 7.593c-5.134-1.965-7.918-5.1-9.394-10.58-1.728-6.42.116-15.043 4.133-19.318 6.494-6.913 19.432-4.978 22.332 3.34 1.33 3.817 1.214 4.1-1.692 4.1-1.717 0-3.469-.906-3.893-2.012-.425-1.106-2.265-2.691-4.088-3.522-9.808-4.47-16.181 16.15-6.877 22.246 3.827 2.507 9.465.777 10.76-3.303.558-1.756 2.012-2.743 4.045-2.743 2.924 0 3.068.305 1.825 3.87-2.469 7.083-10.115 10.614-17.151 7.922m29.306.563c-4.384-1.54-6.667-4.858-6.667-9.688 0-6.065 3.139-9.196 10.168-10.143 9.698-1.307 11.165-1.87 11.165-4.282 0-3.416-2.648-5.575-6.838-5.575-3.556 0-7.828 2.962-7.828 5.428 0 .681-1.2 1.239-2.667 1.239-1.531 0-2.667-.89-2.667-2.088 0-8.77 15.496-13.069 22.913-6.357 1.967 1.78 2.42 4.258 2.42 13.223 0 8.028.545 11.576 2 13.031 1.1 1.1 2 2.643 2 3.429 0 1.928-5.741 1.82-7.706-.145-1.167-1.167-2.353-1.194-4.6-.104-4.092 1.987-9.263 2.885-11.693 2.032m12.333-7.999c1.283-1.156 2.333-3.584 2.333-5.396 0-2.977-.4-3.213-4.166-2.46-2.292.459-4.95.834-5.905.834-1.951 0-5.929 3.578-5.929 5.333 0 .628.986 2.129 2.192 3.334 2.5 2.5 7.704 1.754 11.475-1.645m39.667 7.999c-4.384-1.54-6.667-4.858-6.667-9.688 0-6.065 3.139-9.196 10.168-10.143 9.698-1.307 11.165-1.87 11.165-4.282 0-3.416-2.648-5.575-6.838-5.575-3.556 0-7.828 2.962-7.828 5.428 0 .681-1.2 1.239-2.667 1.239-1.531 0-2.667-.89-2.667-2.088 0-8.47 14.22-13.128 21.82-7.149 3.295 2.592 3.514 3.457 3.514 13.905 0 8.125.54 11.682 2 13.141 1.1 1.1 2 2.643 2 3.429 0 1.928-5.742 1.82-7.707-.145-1.167-1.167-2.353-1.194-4.6-.104-4.092 1.987-9.263 2.885-11.693 2.032m12.333-7.999c1.283-1.156 2.333-3.584 2.333-5.396 0-2.977-.4-3.213-4.166-2.46-2.292.459-4.95.834-5.905.834-1.951 0-5.929 3.578-5.929 5.333 0 .628.986 2.129 2.192 3.334 2.5 2.5 7.704 1.754 11.475-1.645m29.667 7.98c-1.467-.343-3.417-1.232-4.334-1.976-1.147-.931-1.666-.886-1.666.144 0 .823-1.2 1.496-2.667 1.496-2.562 0-2.667-.889-2.667-22.666s.105-22.667 2.667-22.667c2.347 0 2.667.889 2.667 7.409 0 7.39.01 7.403 2.963 5.333 3.711-2.6 8.074-2.641 12.941-.125 5.802 3 8.53 11.833 6.538 21.17-1.861 8.727-8.72 13.682-16.442 11.881m9.533-10.056c3.916-7.573-.299-19.613-6.867-19.613-3.921 0-7.604 4.827-8.283 10.857-.78 6.912 1.075 11.448 5.32 13.02 4.33 1.6 7.51.222 9.83-4.264m35.416 9.496c-8.477-2.342-12.615-16.775-7.594-26.486 3.707-7.168 13.032-9.893 20.55-6.006 4.254 2.2 5.379 4.271 6.729 12.383l.943 5.667h-11.789c-10.346 0-11.786.285-11.768 2.333.03 3.37 1.58 5.328 5.34 6.746 3.856 1.454 9.012-.095 10.145-3.047.85-2.217 7.161-2.851 7.161-.72 0 .722-1.65 3.062-3.666 5.2-4.134 4.382-9.584 5.716-16.051 3.93m14.384-21.17c0-2.055-6.245-7.94-8.426-7.94-2.698 0-8.907 5.181-8.907 7.431 0 1.454 2.047 1.903 8.666 1.903 5.14 0 8.667-.567 8.667-1.394m406.667.061v-22.666h16.666c15.778 0 16.667.142 16.667 2.666 0 2.49-.89 2.667-13.333 2.667h-13.334v13.333h12c11.111 0 12 .198 12 2.667 0 2.47-.889 2.667-12 2.667h-12v16h13.334c12.444 0 13.333.177 13.333 2.666 0 2.525-.89 2.667-16.667 2.667h-16.666zm37.333 21.555c0-.612 2.405-4.546 5.344-8.742l5.344-7.629-3.168-4.258c-1.742-2.343-4.216-5.91-5.497-7.926l-2.33-3.666h4.045c3.184 0 4.658.992 6.929 4.666 1.586 2.567 3.386 4.667 4 4.667s2.413-2.1 4-4.667c2.243-3.63 3.759-4.666 6.825-4.666h3.94l-5.432 8-5.433 8 5.383 7.926c2.96 4.36 5.383 8.26 5.383 8.667s-1.65.739-3.666.738c-2.905 0-4.47-1.274-7.53-6.116l-3.862-6.114-3.807 6.116c-2.874 4.618-4.622 6.116-7.137 6.116-1.832 0-3.331-.5-3.331-1.112m138.933-.488c-1.015-1.015-1.6-6.133-1.6-14 0-10.133-.365-12.4-2-12.4-1.111 0-2-1.185-2-2.667s.889-2.666 2-2.666c1.397 0 2-1.408 2-4.667 0-3.778.508-4.667 2.667-4.667 2.092 0 2.667.89 2.667 4.125 0 3.004.724 4.315 2.666 4.822 1.476.386 2.667 1.819 2.667 3.209 0 1.622-.944 2.51-2.667 2.51-2.447 0-2.666.89-2.666 10.792 0 9.67.277 10.864 2.666 11.49 1.476.385 2.667 1.818 2.667 3.208 0 1.861-.966 2.51-3.733 2.51-2.054 0-4.454-.72-5.334-1.6m85.067-21.067c0-21.588.124-22.666 2.601-22.666 2.45 0 2.625 1.196 3 20.482.466 23.922.352 24.85-3.032 24.85-2.436 0-2.57-1.175-2.57-22.666M183.652 425.507c-5.033-2.222-8.199-5.756-9.374-10.464-.822-3.296-.564-3.666 2.563-3.666 2 0 3.478.751 3.478 1.767 0 3.909 6.004 7.566 12.42 7.566 5.875 0 11.58-3.138 11.58-6.37 0-3.54-4.684-6.92-11.677-8.423-4.21-.905-9.332-2.476-11.38-3.49-7.393-3.662-7.652-13.867-.504-19.881 3.677-3.095 4.97-3.39 12.674-2.9 7.35.468 9.032 1.072 11.733 4.213 3.99 4.638 4.255 10.184.487 10.184-1.466 0-2.666-.627-2.666-1.394s-1.473-2.866-3.273-4.666c-4.146-4.147-11.562-4.439-15.394-.606-4.55 4.55-3.021 8.796 3.804 10.562 2.674.692 7.444 1.93 10.6 2.752 8.112 2.111 10.93 5.382 10.93 12.686 0 7.118-2.75 10.49-10.247 12.572-6.636 1.843-10.844 1.725-15.754-.442m40.95.332c-12.5-3.51-12.962-28.529-.616-33.27 4.994-1.918 12.058-.582 15.873 3.001 7.491 7.038 6.771 23.311-1.254 28.315-4.317 2.692-9.033 3.35-14.003 1.954m11.442-7.597c4.406-5.618 3.445-16.267-1.778-19.69-10.68-6.998-19.248 12.746-9.021 20.79 3.825 3.009 7.902 2.593 10.799-1.1m22.141 7.198c-2.273-.972-4.523-2.783-5-4.024-.476-1.242-.866-8.208-.866-15.482 0-13.217.002-13.224 3.333-13.224 3.333 0 3.334 0 3.334 13.286 0 11.772.294 13.444 2.58 14.667 3.648 1.953 9.166-.445 10.777-4.683.72-1.894 1.31-7.905 1.31-13.357 0-9.024.239-9.913 2.666-9.913 2.525 0 2.667.889 2.667 16.667 0 15.777-.142 16.666-2.667 16.666-1.592 0-2.667-.889-2.667-2.206 0-1.985-.234-2.003-2.333-.18-3.533 3.07-8.535 3.75-13.134 1.783m58.161.477c-5.194-2.117-7.928-5.22-9.393-10.662-1.728-6.42.116-15.043 4.133-19.318 6.494-6.913 19.432-4.978 22.332 3.34 1.33 3.817 1.214 4.1-1.692 4.1-1.717 0-3.469-.906-3.894-2.012-.424-1.106-2.264-2.691-4.088-3.522-9.807-4.47-16.18 16.15-6.876 22.246 3.827 2.507 9.465.777 10.76-3.303.558-1.756 2.012-2.743 4.045-2.743 2.96 0 3.078.275 1.755 4.071-2.318 6.65-10.614 10.44-17.082 7.803m30.922-.032c-8.49-2.474-12.604-16.862-7.593-26.552 3.706-7.168 13.032-9.893 20.549-6.006 4.254 2.2 5.38 4.271 6.73 12.383l.942 5.667h-11.788c-10.754 0-11.789.225-11.789 2.571 0 6.965 9.541 9.428 15.42 3.98 2.915-2.702 7.247-3.443 7.247-1.24 0 2.706-7.482 9.188-11.334 9.82-2.2.36-5.972.08-8.384-.623m14.384-21.236c0-2.055-6.244-7.94-8.426-7.94-2.697 0-8.907 5.181-8.907 7.431 0 1.454 2.048 1.903 8.667 1.903 5.14 0 8.666-.567 8.666-1.394m1846.667.061v-22.666h14.727c13.859 0 14.92.193 18 3.272 3.883 3.883 4.438 11.804 1.157 16.488-1.504 2.148-1.714 3.505-.725 4.696.765.922 1.746 4.346 2.179 7.61a553 553 0 0 0 1.359 9.6c.514 3.306.18 3.667-3.397 3.667-3.92 0-3.966-.088-3.966-7.333 0-10.344-2.568-12.667-14-12.667h-8.667v10c0 9.778-.074 10-3.333 10h-3.334zm26.895-4.873c2.993-2.708 3.153-7.555.343-10.365-1.501-1.501-4.713-2.095-11.333-2.095h-9.238v14.667h8.895c6.406 0 9.577-.618 11.333-2.207m51.772 4.873c0-21.777.104-22.666 2.667-22.666s2.666.889 2.666 22.666-.104 22.667-2.666 22.667c-2.563 0-2.667-.889-2.667-22.667m118.933 21.067c-1.015-1.015-1.6-6.133-1.6-14 0-10.133-.365-12.4-2-12.4-1.111 0-2-1.185-2-2.667s.889-2.666 2-2.666c1.397 0 2-1.408 2-4.667 0-3.778.508-4.667 2.667-4.667 2.092 0 2.667.89 2.667 4.125 0 3.004.724 4.315 2.666 4.822 1.476.386 2.667 1.819 2.667 3.209 0 1.622-.944 2.51-2.667 2.51-2.447 0-2.666.89-2.666 10.792 0 9.67.277 10.864 2.666 11.49 1.476.385 2.667 1.818 2.667 3.208 0 1.861-.966 2.51-3.733 2.51-2.054 0-4.454-.72-5.334-1.6m85.067-21.067c0-21.777.104-22.666 2.667-22.666s2.666.889 2.666 22.666-.104 22.667-2.666 22.667c-2.563 0-2.667-.889-2.667-22.667M287.577 424.33c-.361-.943-.493-8.293-.291-16.334.351-14.017.49-14.636 3.366-15.044 1.65-.235 3 .25 3 1.075 0 .941 1.106.727 2.964-.574 4.542-3.181 7.703-2.665 7.703 1.258 0 2.444-.711 3.333-2.667 3.333-1.466 0-3.866 1.2-5.333 2.667-2.248 2.248-2.667 4.444-2.667 14 0 10.503-.198 11.333-2.708 11.333-1.49 0-3.005-.771-3.367-1.714m678.075-37.62c0-2.443.712-3.332 2.667-3.332 1.956 0 2.667.889 2.667 3.333s-.711 3.333-2.667 3.333-2.667-.889-2.667-3.333m30.667 0c0-2.443.711-3.332 2.667-3.332s2.666.889 2.666 3.333-.71 3.333-2.666 3.333-2.667-.889-2.667-3.333M431.508 305.41l2.206-3.367h-172.03c-152.028 0-172.032-.232-172.032-2 0-1.767 20.017-2 172.154-2h172.153l-2.184-3.333c-2.613-3.987-2.564-3.996 4.767-.869 3.177 1.356 9.022 3.238 12.989 4.184l7.212 1.72-9.879 2.949c-5.433 1.622-11.607 3.655-13.72 4.517l-3.842 1.566zm2110.145-.7c1.423-2.66 1.014-2.667-177.287-2.667-157.968 0-178.713-.232-178.713-2s20.745-2 178.713-2c176.276 0 178.695-.035 177.333-2.579-1.982-3.704-1.718-4.362 1.136-2.835 1.384.74 7.534 2.83 13.667 4.643s9.756 3.328 8.052 3.367-7.566 1.57-13.028 3.404c-11.94 4.009-11.651 3.989-9.873.667M145.028 274.112c-.473-.765.675-2.09 2.55-2.944 3.364-1.533 3.408-1.747 3.408-16.705 0-15.03-.028-15.163-3.414-16.45-4.475-1.702-2.942-3.97 2.683-3.97 4.91 0 6.064 1.634 6.064 8.58v4.362l6.385-.613c8.53-.82 9.903 1.035 10.678 14.412.545 9.413.903 10.593 3.22 10.593 1.489 0 2.37.714 2.056 1.666-.331 1.005-3.554 1.826-8.11 2.067-5.973.316-7.562-.016-7.562-1.577 0-1.087 1.226-2.366 2.725-2.842 2.437-.773 2.684-1.79 2.333-9.617-.467-10.427-2.675-12.899-8.257-9.242-3.105 2.035-3.468 3.12-3.468 10.367 0 7.027.359 8.188 2.721 8.806 1.497.39 2.5 1.385 2.228 2.208-.638 1.936-15.104 2.737-16.24.899m43.824-3.269c-3.714-3.715-4.533-5.543-4.533-10.127 0-10.355 8.395-17.104 18-14.472 5.355 1.467 8.667 5.777 8.667 11.28v4.52h-10.667c-5.867 0-10.667.339-10.667.754 0 2.403 3.107 5.77 6.693 7.256 3.682 1.525 4.546 1.401 7.997-1.15 4.766-3.524 6.644-3.622 6.644-.347 0 3.612-5.686 6.82-12.087 6.82-4.492 0-6.353-.84-10.047-4.534m16.8-14.361c0-2.604-4.241-6.439-7.12-6.439-2.697 0-8.88 4.804-8.88 6.9 0 .605 3.6 1.1 8 1.1 5.225 0 8-.542 8-1.561m13.334 17.037c0-2.15 2.84-3.476 7.442-3.476h3.224v-32h-5.333c-3.852 0-5.333-.555-5.333-2 0-1.555 1.778-2 8-2h8v36l4.333.02c5.145.024 8.369 1.766 7.092 3.83-.573.928-5.884 1.483-14.17 1.483-10.441 0-13.255-.394-13.255-1.857zm36 0c0-2.15 2.84-3.476 7.442-3.476h3.224v-32h-5.333c-3.852 0-5.333-.555-5.333-2 0-1.555 1.778-2 8-2h8v36l4.333.02c5.145.024 8.369 1.766 7.092 3.83-.573.928-5.884 1.483-14.17 1.483-10.441 0-13.255-.394-13.255-1.857zm41.48 0c-4.292-2.379-6.71-7.09-6.766-13.186-.118-12.59 13.275-19.356 22.247-11.24 12.804 11.583-.573 32.69-15.481 24.426m11.379-5.3c6.868-5.907 3.49-18.172-5.007-18.172-7.513 0-10.573 12.067-4.58 18.06 4.054 4.054 4.992 4.065 9.587.112m27.474 6.293c-2.335-.964-2.085-6.686.333-7.614 3.56-1.366 6.171.595 5.74 4.308-.397 3.408-2.738 4.683-6.073 3.306m33.667-.68c-5.06-2.783-7.273-6.89-7.304-13.555-.024-5.276.636-7.101 3.662-10.127 6.144-6.144 18.946-6.54 21.204-.656 1.185 3.09-2.35 4.856-4.97 2.485-4.634-4.194-12.167-1.65-14.442 4.878-1.87 5.36.348 10.433 5.675 12.987 3.418 1.638 4.182 1.539 7.6-.988 4.728-3.496 6.575-3.557 6.575-.219 0 5.56-11.37 8.84-18 5.195m466.958.729c-1.247-1.248 1.555-4.515 3.872-4.515 1.454 0 1.836-3.203 1.836-15.366 0-15.26-.023-15.375-3.413-16.664-4.493-1.708-2.935-3.97 2.736-3.97 5.101 0 6.556 2.456 5.386 9.094l-.713 4.047 7.043-.726c9.166-.946 10.51.688 11.351 13.807.547 8.517 1.053 10.23 3.185 10.788 4.948 1.294 1.436 3.663-6.013 4.057-5.973.316-7.562-.016-7.562-1.577 0-1.087 1.227-2.366 2.726-2.842 2.436-.773 2.683-1.79 2.333-9.617-.467-10.427-2.675-12.899-8.257-9.242-3.105 2.035-3.468 3.12-3.468 10.367 0 7.027.359 8.188 2.72 8.806 5.031 1.315 1.8 3.702-5.545 4.096-4.005.216-7.702-.029-8.217-.543m43.575-3.715c-3.715-3.715-4.533-5.543-4.533-10.127 0-10.997 9.78-18.083 19.406-14.061 5.068 2.117 7.26 5.53 7.26 11.3v4.088h-10.666c-5.867 0-10.667.34-10.667.755 0 2.403 3.107 5.77 6.693 7.256 3.682 1.525 4.546 1.401 7.997-1.15 4.765-3.524 6.643-3.622 6.643-.347 0 3.612-5.685 6.82-12.086 6.82-4.493 0-6.353-.84-10.047-4.534m16.8-14.704c0-2.929-3.833-6.096-7.377-6.096-2.987 0-8.623 4.522-8.623 6.918 0 .595 3.6 1.082 8 1.082 6.045 0 8-.465 8-1.904m13.333 17.263c0-2.209 5.579-4.062 8.664-2.878 1.716.659 2.003-1.615 2.003-15.856v-16.625h-5.333c-3.852 0-5.334-.555-5.334-2 0-1.555 1.778-2 8-2h8v36h4.504c4.38 0 8.362 2.69 6.596 4.456-.483.483-6.777.878-13.988.878-10.69 0-13.112-.365-13.112-1.975m36 .117c0-2.15 2.84-3.476 7.443-3.476h3.224v-32h-5.333c-3.852 0-5.334-.555-5.334-2 0-1.555 1.778-2 8-2h8v36h4.504c4.38 0 8.362 2.69 6.596 4.456-.483.483-6.777.878-13.988.878-10.318 0-13.112-.396-13.112-1.858m40.49-.505c-9.036-7.32-7.41-22.106 2.906-26.416 10.742-4.488 21.801 7.072 17.945 18.758-2.981 9.032-14.11 13.119-20.851 7.658m12.37-4.798c6.868-5.908 3.489-18.173-5.007-18.173-7.513 0-10.573 12.068-4.58 18.06 4.054 4.055 4.991 4.065 9.586.113m27.474 6.293c-2.221-.917-2.123-5.094.164-6.992 2.941-2.441 6.372-.301 5.908 3.685-.397 3.409-2.737 4.683-6.072 3.307m26.333-.99c0-2.158 2.843-3.476 7.5-3.476 3.223 0 3.276-.178 2.892-9.666l-.392-9.667-5-.414c-3.355-.277-5-1.067-5-2.4 0-1.575 1.586-1.903 7.667-1.586l7.666.4.384 11.528.383 11.527 4.617.866c2.754.517 4.616 1.649 4.616 2.806 0 1.561-2.471 1.94-12.666 1.94-9.938 0-12.667-.4-12.667-1.858m475.625 1.039c-1.247-1.248 1.555-4.515 3.872-4.515 1.457 0 1.837-3.284 1.837-15.907 0-15.481-.08-15.919-3-16.333-4.81-.683-3.458-3.055 2-3.507 5.154-.426 5.171-.408 5.728 6.414.15 1.833.347 3.995.438 4.804.107.941 2.468 1.25 6.552.858 8.53-.82 9.903 1.035 10.678 14.412.545 9.413.903 10.593 3.22 10.593 1.489 0 2.37.714 2.056 1.666-.331 1.005-3.554 1.826-8.111 2.067-5.973.316-7.561-.016-7.561-1.577 0-1.087 1.2-2.358 2.666-2.823 2.296-.729 2.667-2.017 2.667-9.26 0-9.126-1.88-12.26-6.482-10.799-4.14 1.315-5.26 3.554-5.691 11.392-.358 6.493-.065 7.485 2.556 8.652 1.628.725 2.76 1.925 2.517 2.667-.511 1.55-14.534 2.603-15.942 1.196m42.242-3.715c-3.715-3.715-4.533-5.543-4.533-10.127 0-11.044 9.59-18.163 19.111-14.185 5.349 2.235 7.555 5.571 7.555 11.425v4.087h-10.666c-5.867 0-10.667.34-10.667.755 0 2.403 3.106 5.77 6.693 7.256 3.682 1.525 4.546 1.401 7.997-1.15 4.765-3.524 6.643-3.622 6.643-.347 0 3.612-5.685 6.82-12.086 6.82-4.493 0-6.353-.84-10.047-4.534m16.8-14.361c0-2.604-4.242-6.439-7.12-6.439-2.697 0-8.88 4.804-8.88 6.9 0 .605 3.6 1.1 8 1.1 5.224 0 8-.542 8-1.561m13.333 17.037c0-2.15 2.84-3.476 7.443-3.476h3.224v-32h-5.333c-3.852 0-5.334-.555-5.334-2 0-1.555 1.778-2 8-2h8v36l4.334.02c5.144.024 8.368 1.766 7.092 3.83-.573.928-5.884 1.483-14.171 1.483-10.44 0-13.255-.394-13.255-1.857zm36-.117c0-2.209 5.579-4.062 8.664-2.878 1.716.659 2.003-1.615 2.003-15.856v-16.625h-5.333c-3.852 0-5.334-.555-5.334-2 0-1.555 1.778-2 8-2h8v36l4.334.02c5.144.024 8.368 1.766 7.092 3.83-.573.928-5.884 1.483-14.171 1.483-10.817 0-13.255-.363-13.255-1.974zm40.49-.388c-9.037-7.32-7.41-22.106 2.906-26.416 7.723-3.227 15.554 1.261 17.99 10.31 1.628 6.041-.708 12.909-5.542 16.294-4.035 2.827-11.75 2.732-15.354-.188m12.37-4.798c6.658-5.727 3.645-18.173-4.4-18.173-8.063 0-11.45 11.797-5.187 18.06 4.053 4.055 4.991 4.065 9.586.113m28.807 6.293c-2.335-.964-2.085-6.687.333-7.615 3.559-1.365 6.17.595 5.739 4.308-.397 3.409-2.737 4.683-6.072 3.307m24.18-2.604c-.857-3.41.428-8.528 2.14-8.528.628 0 2.941 1.8 5.141 4 4.609 4.608 7.977 5.025 12.301 1.523l3.059-2.476-3.244-2.062c-1.784-1.134-5.738-2.463-8.788-2.954-7.304-1.174-10.122-3.41-10.122-8.031 0-6.287 3.34-7.743 17.666-7.702 5.93.017 6.005.073 6.414 4.86.337 3.945-.036 4.842-2.013 4.842-1.334 0-3.175-1.2-4.091-2.667-1.945-3.114-9.794-3.698-12.115-.902-1.726 2.08.42 4.897 3.739 4.91 3.943.013 11.987 2.77 14.021 4.804 2.849 2.849 2.551 8.015-.646 11.212-2.277 2.278-4.227 2.651-12.7 2.432-9.167-.236-10.072-.51-10.763-3.26m501.778 2.653c-1.247-1.248 1.555-4.515 3.872-4.515 1.454 0 1.837-3.203 1.837-15.366 0-15.26-.024-15.375-3.414-16.664-4.493-1.708-2.935-3.97 2.736-3.97 5.101 0 6.556 2.456 5.386 9.094l-.713 4.047 7.043-.726c9.166-.946 10.51.688 11.351 13.807.547 8.517 1.053 10.23 3.185 10.788 4.948 1.294 1.437 3.663-6.013 4.057-5.973.316-7.561-.016-7.561-1.577 0-1.087 1.226-2.366 2.725-2.842 2.436-.773 2.683-1.79 2.333-9.617-.467-10.427-2.675-12.899-8.257-9.242-3.105 2.035-3.468 3.12-3.468 10.367 0 7.027.359 8.188 2.721 8.806 5.03 1.315 1.8 3.702-5.546 4.096-4.005.216-7.702-.029-8.217-.543m42.242-3.715c-3.715-3.715-4.533-5.543-4.533-10.127 0-10.997 9.78-18.083 19.406-14.061 5.067 2.117 7.26 5.53 7.26 11.3v4.088h-10.666c-5.867 0-10.667.34-10.667.755 0 2.403 3.106 5.77 6.693 7.256 3.682 1.525 4.546 1.401 7.997-1.15 4.765-3.524 6.643-3.622 6.643-.347 0 3.612-5.685 6.82-12.086 6.82-4.493 0-6.353-.84-10.047-4.534m16.8-14.361c0-2.737-4.306-6.439-7.488-6.439-2.9 0-8.512 4.562-8.512 6.918 0 .595 3.6 1.082 8 1.082 5.224 0 8-.542 8-1.561m14.667 16.92c0-2.209 5.578-4.062 8.663-2.878 1.716.659 2.003-1.615 2.003-15.856v-16.625h-5.333c-3.852 0-5.333-.555-5.333-2 0-1.555 1.777-2 8-2h8v36h4.503c4.38 0 8.362 2.69 6.596 4.456-.482.483-6.777.878-13.988.878-10.69 0-13.111-.365-13.111-1.975m34.666.117c0-2.15 2.84-3.476 7.443-3.476h3.224v-32h-5.333c-3.852 0-5.334-.555-5.334-2 0-1.555 1.778-2 8-2h8v36l4.334.02c5.144.024 8.368 1.766 7.092 3.83-.573.928-5.884 1.483-14.171 1.483-10.44 0-13.255-.394-13.255-1.857zm41.823-.505c-9.036-7.32-7.41-22.106 2.906-26.416 10.742-4.488 21.801 7.072 17.945 18.758-2.981 9.032-14.11 13.119-20.851 7.658m12.37-4.798c6.868-5.908 3.489-18.173-5.007-18.173-7.513 0-10.573 12.068-4.58 18.06 4.054 4.055 4.991 4.065 9.586.113m27.474 6.293c-2.221-.917-2.123-5.094.164-6.992 2.941-2.441 6.372-.301 5.908 3.685-.397 3.409-2.737 4.683-6.072 3.307m30.48-.993c-4.292-2.379-6.71-7.09-6.766-13.186-.06-6.274 3.211-11.446 8.682-13.732 7.722-3.227 15.554 1.261 17.99 10.31 3.375 12.532-8.853 22.734-19.906 16.608m11.379-5.3c6.658-5.727 3.646-18.173-4.4-18.173-8.062 0-11.45 11.797-5.186 18.06 4.053 4.055 4.99 4.065 9.586.113m519.94 6.041c-.864-1.398 3.166-5.253 4.406-4.214.437.367.964-6.39 1.17-15.017l.376-15.683-3.456-1.314c-4.511-1.715-3.007-3.986 2.64-3.986 4.91 0 5.606 1.043 5.482 8.203l-.084 4.869 6.707-.692c8.901-.919 10.24.825 11.023 14.361.545 9.413.903 10.593 3.22 10.593 1.489 0 2.37.714 2.056 1.666-.331 1.005-3.554 1.826-8.111 2.067-5.972.316-7.561-.016-7.561-1.577 0-1.087 1.2-2.358 2.666-2.823 2.296-.729 2.667-2.017 2.667-9.26 0-9.126-1.88-12.26-6.482-10.799-4.221 1.34-5.543 3.945-5.862 11.555-.264 6.301.062 7.33 2.693 8.489 1.647.725 2.795 1.925 2.55 2.667-.57 1.734-15.083 2.542-16.1.895zm43.734-3.414c-3.715-3.715-4.533-5.543-4.533-10.127 0-10.997 9.78-18.083 19.407-14.061 5.067 2.117 7.26 5.53 7.26 11.3v4.088h-10.667c-5.867 0-10.667.34-10.667.755 0 2.403 3.107 5.77 6.693 7.256 3.682 1.525 4.546 1.401 7.997-1.15 4.765-3.524 6.644-3.622 6.644-.347 0 3.612-5.686 6.82-12.087 6.82-4.492 0-6.353-.84-10.047-4.534m16.8-14.361c0-2.737-4.306-6.439-7.488-6.439-2.9 0-8.512 4.562-8.512 6.918 0 .595 3.6 1.082 8 1.082 5.224 0 8-.542 8-1.561m13.334 17.037c0-2.15 2.839-3.476 7.442-3.476h3.224v-32h-5.333c-3.852 0-5.333-.555-5.333-2 0-1.555 1.777-2 8-2h8v36l4.333.02c5.145.024 8.368 1.766 7.092 3.83-.573.928-5.884 1.483-14.17 1.483-10.441 0-13.255-.394-13.255-1.857zm36 0c0-2.15 2.839-3.476 7.442-3.476h3.224v-32h-5.333c-3.852 0-5.333-.555-5.333-2 0-1.555 1.777-2 8-2h8v36l4.333.02c5.145.024 8.368 1.766 7.092 3.83-.573.928-5.884 1.483-14.17 1.483-10.441 0-13.255-.394-13.255-1.857zm41.48 0c-4.292-2.379-6.71-7.09-6.767-13.186-.059-6.274 3.212-11.446 8.682-13.732 7.723-3.226 15.555 1.261 17.991 10.31 3.375 12.532-8.854 22.734-19.906 16.608m11.378-5.3c6.659-5.727 3.646-18.172-4.398-18.172-8.063 0-11.451 11.797-5.188 18.06 4.054 4.054 4.992 4.065 9.586.112m-2097.4-29.664c-.483-1.262-.323-2.85.356-3.53 2.064-2.064 6.185-.487 6.185 2.367 0 3.438-5.305 4.38-6.54 1.163m1479.208-27.103c0-.69.6-1.625 1.334-2.078.733-.454 1.333-1.389 1.333-2.08 0-.773-44.656-1.254-116.667-1.254h-116.666v-42c0-36.444.264-42 2-42 1.734 0 2 5.408 2 40.667v40.667h114.666c63.067 0 114.667-.48 114.667-1.067s-.71-1.777-1.578-2.644c-2.907-2.907-.19-3.048 6.173-.32 3.469 1.487 8.667 3.08 11.552 3.542 5.868.939 8.356 3.14 3.598 3.183-1.693.015-7.278 1.513-12.412 3.328-10.821 3.825-10 3.656-10 2.056m-331.296-97.351c-.475-.77.672-1.983 2.55-2.697 3.412-1.297 3.413-1.304 3.413-18.03s0-16.734-3.414-18.03c-6.012-2.287-2.27-3.677 9.995-3.716 10.917-.035 12.218.241 15.204 3.228 9.81 9.81 2.172 27.27-11.147 25.483l-5.305-.712v5.874c0 5.062.384 5.873 2.778 5.873 1.627 0 2.55.69 2.228 1.666-.69 2.092-15.086 3.028-16.302 1.06m21.143-18.9c6.63-3.021 7.649-13.695 1.704-17.858-3.643-2.552-6.1-2.488-9.112.237-3.457 3.128-3.32 12.912.228 16.46 3.126 3.127 2.934 3.096 7.18 1.16m15.103 4.678c-1.57-1.57 1.864-4.505 5.272-4.505 3.155 0 3.22-.221 2.837-9.658-.389-9.579-.425-9.663-4.392-10.346-6.14-1.058-4.75-3.282 2.333-3.736 5.104-.328 6.334.01 6.334 1.742 0 1.954.268 1.96 2.963.073 3.685-2.58 13.815-2.778 14.77-.288.378.983.18 2.606-.437 3.605-.933 1.51-1.675 1.523-4.38.075-2.773-1.484-3.76-1.412-6.653.483-3.66 2.398-6.263 8.25-6.263 14.079 0 3.215.62 3.73 5.433 4.499 3.426.548 5.234 1.473 4.893 2.504-.59 1.783-21.071 3.112-22.71 1.474zm37.717-1.03c0-2.158 2.843-3.475 7.5-3.475 3.223 0 3.276-.178 2.892-9.667l-.392-9.667-5-.413c-3.355-.278-5-1.068-5-2.4 0-1.576 1.586-1.904 7.667-1.587l7.666.4.383 11.528.384 11.528 4.616.866c2.754.516 4.617 1.648 4.617 2.805 0 1.562-2.471 1.94-12.666 1.94-9.938 0-12.667-.4-12.667-1.857m31.625 1.039c-1.247-1.247 1.555-4.514 3.871-4.514 1.386 0 1.837-2.3 1.837-9.367 0-8.822-.198-9.441-3.413-10.664-6.013-2.286-2.271-3.676 9.995-3.715 8.857-.028 12.353.463 13.548 1.902.886 1.067 1.903 6.497 2.26 12.066.547 8.516 1.052 10.23 3.185 10.788 4.947 1.294 1.436 3.662-6.013 4.056-5.862.31-7.562-.03-7.562-1.511 0-1.051 1.2-2.225 2.667-2.608 2.32-.607 2.667-1.82 2.667-9.326 0-10.545-2.142-13.341-7.794-10.178-2.937 1.643-3.66 3.17-4.246 8.96-.764 7.553.333 10.93 3.55 10.93 1.125 0 1.798.75 1.495 1.667-.595 1.804-14.45 3.111-16.047 1.514m47.042-.483c-1.415-.891-2.196-4.497-2.667-12.313l-.667-11.052-4.333-.417c-2.583-.25-4.333-1.158-4.333-2.25 0-1.09 1.75-2 4.333-2.248 3.61-.348 4.404-1.03 4.755-4.085.585-5.08 4.245-4.852 4.245.264 0 3.801.23 3.944 7 4.333 8.884.512 9.093 2.86.333 3.737l-6.666.666-.417 6.579c-.229 3.618-.084 7.902.322 9.52 1.421 5.663 8 5.413 10.205-.389 1.341-3.528 4.294-3.507 4.981.036.698 3.595-5.707 8.924-10.698 8.9-2.416-.01-5.293-.587-6.393-1.28zm24-.555c0-2.04 2.801-3.476 6.775-3.476 2.294 0 2.558-1.031 2.558-10v-10h-4.667c-3.26 0-4.666-.604-4.666-2 0-1.397 1.407-2 4.666-2 4.089 0 4.667-.413 4.667-3.334 0-5.426 4.546-8.88 11.061-8.406 4.062.296 5.703 1.043 6.026 2.744.56 2.952-3.61 4.714-5.184 2.19-1.58-2.534-5.752.064-6.33 3.942-.376 2.53.207 2.864 5 2.864 3.935 0 5.427.55 5.427 2 0 1.444-1.482 2-5.333 2h-5.334V95.08l4.667.875c2.793.524 4.667 1.654 4.667 2.815 0 1.554-2.389 1.94-12 1.94-9.369 0-12-.407-12-1.857m48.333.99c-2.221-.917-2.123-5.095.164-6.993 2.941-2.44 6.372-.3 5.908 3.686-.397 3.408-2.737 4.683-6.072 3.306m30.48-.994c-4.292-2.379-6.71-7.09-6.766-13.186-.06-6.274 3.211-11.446 8.682-13.732 7.722-3.226 15.554 1.261 17.99 10.31 3.375 12.532-8.853 22.734-19.906 16.608m11.379-5.3c6.658-5.727 3.646-18.172-4.4-18.172-8.062 0-11.45 11.797-5.186 18.06 4.053 4.054 4.99 4.065 9.586.112m-184.066-29.658c-.485-1.262-.325-2.85.355-3.53 2.064-2.063 6.185-.487 6.185 2.367 0 3.438-5.306 4.381-6.54 1.163" style="fill:#000"/></svg>